<svg width="568" height="421" viewBox="0 0 568 421" fill="none" xmlns="http://www.w3.org/2000/svg">
<path d="M21.0813 360.84C22.6333 360.84 24.1853 360.452 25.6079 359.676L40.7399 350.881C41.6453 350.364 42.1626 349.458 42.1626 348.424C42.1626 347.389 41.6453 346.484 40.7399 345.966L25.6079 337.172C22.8919 335.62 19.3999 335.62 16.5546 337.172L1.42264 345.966C0.517305 346.484 -7.55571e-05 347.389 -7.55571e-05 348.424C-7.55571e-05 349.458 0.517305 350.364 1.42264 350.881L16.5546 359.676C17.9773 360.452 19.5293 360.84 21.0813 360.84ZM21.0813 338.465C22.2453 338.465 23.4093 338.724 24.444 339.37L39.5759 348.165C39.7053 348.294 39.8346 348.424 39.8346 348.553C39.8346 348.682 39.8346 348.812 39.5759 348.941L24.444 357.736C22.3746 358.9 19.9173 358.9 17.8479 357.736L2.71593 348.941C2.5866 348.812 2.45729 348.682 2.45729 348.553C2.45729 348.424 2.45727 348.294 2.71593 348.165L17.8479 339.37C18.8826 338.724 20.0466 338.465 21.0813 338.465Z" fill="url(#paint0_linear_521_4870)"/>
<path d="M64.5373 311.176C67.124 311.176 69.5813 310.529 71.9093 309.236L98.0346 294.104C99.3279 293.328 99.9746 292.164 99.9746 290.612C99.9746 289.189 99.1986 287.896 98.0346 287.12L71.9093 271.988C67.3826 269.401 61.8213 269.401 57.2946 271.988L31.1693 287.12C29.8759 287.896 29.2293 289.06 29.2293 290.612C29.2293 292.035 30.0053 293.328 31.1693 294.104L57.2946 309.236C59.4933 310.4 61.9506 311.176 64.5373 311.176ZM70.6159 307.037C66.8653 309.236 62.2093 309.236 58.3293 307.037L32.204 291.905C31.5573 291.517 31.4279 290.871 31.4279 290.612C31.4279 290.353 31.5573 289.707 32.204 289.319L58.3293 274.187C62.0799 271.988 66.7359 271.988 70.6159 274.187L96.7413 289.319C97.3879 289.707 97.5173 290.353 97.5173 290.612C97.5173 290.871 97.3879 291.517 96.7413 291.905L70.6159 307.037Z" fill="url(#paint1_linear_521_4870)"/>
<path d="M429.257 226.075C432.749 226.075 436.241 225.169 439.345 223.359L476.335 202.019C477.887 201.113 478.921 199.432 478.921 197.621C478.921 195.811 478.016 194.129 476.335 193.224L439.345 171.884C433.137 168.263 425.377 168.263 419.169 171.884L382.18 193.224C380.628 194.129 379.593 195.811 379.593 197.621C379.593 199.432 380.499 201.113 382.18 202.019L419.169 223.359C422.273 225.169 425.765 226.075 429.257 226.075ZM438.181 221.289C432.749 224.523 425.895 224.523 420.333 221.289L383.344 199.949C382.439 199.432 382.051 198.527 382.051 197.621C382.051 196.716 382.568 195.811 383.344 195.293L420.333 173.953C425.765 170.72 432.62 170.72 438.181 173.953L475.171 195.293C476.076 195.811 476.464 196.716 476.464 197.621C476.464 198.656 475.947 199.432 475.171 199.949L438.181 221.289Z" fill="url(#paint2_linear_521_4870)"/>
<path opacity="0.6" d="M267.203 400.675L453.96 292.811C456.676 291.259 456.288 288.543 453.184 286.732L333.292 217.539C330.188 215.728 325.403 215.469 322.687 217.151L135.929 325.015C133.213 326.567 133.601 329.283 136.705 331.093L256.597 400.287C259.701 401.968 264.487 402.227 267.203 400.675Z" fill="black"/>
<path d="M262.935 420.075C265.133 420.075 267.203 419.557 268.755 418.652L482.025 295.656C483.707 294.621 484.741 293.199 484.741 291.517C484.741 289.707 483.448 287.767 481.12 286.473L335.749 201.372C331.74 199.044 325.92 198.785 322.428 200.855L109.287 323.98C107.605 325.015 106.571 326.437 106.571 328.119C106.571 329.929 107.864 331.869 110.192 333.163L255.563 418.264C257.632 419.428 260.348 420.075 262.935 420.075ZM328.248 202.019C330.447 202.019 332.775 202.536 334.585 203.571L479.956 288.672C481.508 289.577 482.284 290.612 482.284 291.647C482.284 292.552 481.508 293.199 480.732 293.587L267.591 416.712C264.875 418.264 259.831 418.005 256.727 416.195L111.356 331.093C109.804 330.188 109.028 329.153 109.028 328.119C109.028 327.213 109.804 326.567 110.58 326.179L323.721 203.053C324.885 202.277 326.567 202.019 328.248 202.019Z" fill="url(#paint3_linear_521_4870)"/>
<path d="M86.2654 144.077L272.376 36.6013C273.669 35.8253 274.963 35.6959 276.127 36.0839L279.619 37.2479L278.455 37.5066C278.972 38.0239 279.36 38.7999 279.619 39.5759L321.652 176.281C322.687 179.644 321.135 183.783 318.289 185.464L132.179 292.94C131.791 293.199 131.273 293.328 130.756 293.457L131.273 294.492L128.04 293.328C126.747 292.811 125.583 291.647 125.065 289.836L82.9027 153.26C81.868 149.897 83.2907 145.759 86.2654 144.077Z" fill="url(#paint4_radial_521_4870)"/>
<path d="M138.775 297.984L322.428 191.931C325.144 190.379 329.8 190.508 333.033 192.319L451.761 260.865L455.771 259.313L454.607 264.875C454.477 265.651 453.831 266.556 452.796 267.073L267.332 374.291C264.616 375.843 259.96 375.713 256.727 373.903L137.74 305.227C136.317 304.321 135.412 303.287 135.153 302.252L133.989 296.82L138.775 297.984Z" fill="url(#paint5_radial_521_4870)"/>
<path d="M267.203 369.505L453.96 261.641C456.676 260.089 456.288 257.373 453.184 255.563L333.292 186.369C330.188 184.559 325.403 184.3 322.687 185.981L135.929 293.845C133.213 295.397 133.601 298.113 136.705 299.924L256.597 369.117C259.701 370.799 264.487 371.057 267.203 369.505Z" fill="url(#paint6_radial_521_4870)"/>
<path d="M136.705 298.372L256.597 367.565C259.701 369.376 264.487 369.635 267.203 367.953L453.96 260.089C454.865 259.572 455.383 258.925 455.641 258.149C456.029 259.443 455.512 260.607 453.96 261.512L267.203 369.376C264.487 370.928 259.701 370.799 256.597 368.988L136.705 299.795C134.636 298.631 133.86 296.949 134.248 295.656C134.507 296.561 135.283 297.596 136.705 298.372Z" fill="white"/>
<g opacity="0.4">
<path d="M364.849 244.181L371.187 240.56C371.704 240.301 371.575 239.784 371.057 239.396L363.556 235.128C362.909 234.74 362.133 234.74 361.616 234.999L355.279 238.62C354.761 238.879 354.891 239.396 355.408 239.784L362.909 244.052C363.427 244.311 364.332 244.44 364.849 244.181Z" fill="#093138"/>
<path d="M355.149 249.743L361.487 246.121C362.004 245.863 361.875 245.345 361.357 244.957L353.856 240.689C353.209 240.301 352.433 240.301 351.916 240.56L345.579 244.181C345.061 244.44 345.191 244.957 345.708 245.345L353.209 249.613C353.727 250.001 354.632 250.001 355.149 249.743Z" fill="#093138"/>
<path d="M345.45 255.304L351.787 251.683C352.304 251.424 352.175 250.907 351.658 250.519L344.156 246.251C343.51 245.863 342.734 245.863 342.216 246.121L335.879 249.743C335.362 250.001 335.491 250.519 336.008 250.907L343.51 255.175C344.027 255.563 344.932 255.692 345.45 255.304Z" fill="#093138"/>
<path d="M331.869 250.777L338.207 247.156C338.724 246.897 338.595 246.38 338.077 245.992L331.869 242.371C331.223 241.983 330.447 241.983 329.929 242.241L323.592 245.863C323.075 246.121 323.204 246.639 323.721 247.027L329.929 250.648C330.576 251.036 331.481 251.036 331.869 250.777Z" fill="#093138"/>
<path d="M322.169 256.339L328.507 252.717C329.024 252.459 328.895 251.941 328.377 251.553L322.169 247.932C321.523 247.544 320.747 247.544 320.229 247.803L313.892 251.424C313.375 251.683 313.504 252.2 314.021 252.588L320.229 256.209C320.747 256.597 321.652 256.597 322.169 256.339Z" fill="#093138"/>
<path d="M312.47 262.029L318.807 258.408C319.324 258.149 319.195 257.632 318.678 257.244L312.47 253.623C311.823 253.235 311.047 253.235 310.53 253.493L304.192 257.115C303.675 257.373 303.804 257.891 304.322 258.279L310.53 261.9C311.047 262.159 311.952 262.288 312.47 262.029Z" fill="#093138"/>
<path d="M302.769 267.591L309.107 263.969C309.624 263.711 309.495 263.193 308.977 262.805L302.769 259.184C302.123 258.796 301.347 258.796 300.829 259.055L294.492 262.676C293.975 262.935 294.104 263.452 294.621 263.84L300.829 267.461C301.347 267.849 302.252 267.849 302.769 267.591Z" fill="#093138"/>
<path d="M292.94 273.152L299.278 269.531C299.795 269.272 299.666 268.755 299.148 268.367L292.94 264.745C292.294 264.357 291.518 264.357 291 264.616L284.663 268.237C284.146 268.496 284.275 269.013 284.792 269.401L291 273.023C291.518 273.411 292.423 273.54 292.94 273.152Z" fill="#093138"/>
<path d="M283.24 278.843L289.577 275.221C290.095 274.962 289.965 274.445 289.448 274.057L283.24 270.436C282.593 270.048 281.817 270.048 281.3 270.306L274.963 273.928C274.445 274.186 274.575 274.704 275.092 275.092L281.3 278.713C281.817 279.101 282.723 279.101 283.24 278.843Z" fill="#093138"/>
<path d="M273.54 284.404L279.878 280.783C280.395 280.524 280.266 280.007 279.748 279.619L273.54 275.997C272.894 275.609 272.118 275.609 271.6 275.868L265.263 279.489C264.746 279.748 264.875 280.265 265.392 280.653L271.6 284.275C272.118 284.663 273.023 284.792 273.54 284.404Z" fill="#093138"/>
<path d="M263.711 290.095L270.048 286.473C270.565 286.215 270.436 285.697 269.919 285.309L263.711 281.688C263.064 281.3 262.288 281.3 261.771 281.559L255.433 285.18C254.916 285.439 255.045 285.956 255.563 286.344L261.771 289.965C262.417 290.353 263.193 290.353 263.711 290.095Z" fill="#093138"/>
<path d="M254.011 295.656L260.348 292.034C260.865 291.776 260.736 291.259 260.219 290.871L254.011 287.249C253.364 286.861 252.588 286.861 252.071 287.12L245.733 290.741C245.216 291 245.345 291.517 245.863 291.905L252.071 295.527C252.588 295.915 253.493 296.044 254.011 295.656Z" fill="#093138"/>
<path d="M244.311 301.347L250.648 297.725C251.166 297.467 251.036 296.949 250.519 296.561L244.311 292.94C243.664 292.552 242.888 292.552 242.371 292.811L236.034 296.432C235.516 296.691 235.646 297.208 236.163 297.596L242.371 301.217C242.888 301.605 243.794 301.605 244.311 301.347Z" fill="#093138"/>
<path d="M317.513 248.061L323.851 244.44C324.368 244.181 324.239 243.664 323.722 243.276L317.513 239.655C316.867 239.267 316.091 239.267 315.573 239.525L309.236 243.147C308.719 243.405 308.848 243.923 309.365 244.311L315.573 247.932C316.22 248.32 317.125 248.32 317.513 248.061Z" fill="#093138"/>
<path d="M327.472 242.371L333.809 238.749C334.327 238.491 334.197 237.973 333.68 237.585L327.472 233.964C326.825 233.576 326.049 233.576 325.532 233.835L319.195 237.456C318.677 237.715 318.807 238.232 319.324 238.62L325.532 242.241C326.049 242.629 326.955 242.629 327.472 242.371Z" fill="#093138"/>
<path d="M337.302 236.68L350.882 228.79C351.399 228.532 351.27 228.014 350.752 227.626L344.544 224.005C343.898 223.617 343.122 223.617 342.604 223.876L329.024 231.765C328.507 232.024 328.636 232.541 329.154 232.929L335.362 236.55C336.008 236.938 336.914 236.938 337.302 236.68Z" fill="#093138"/>
<path d="M330.447 229.696L341.44 223.358C341.958 223.1 341.828 222.583 341.311 222.195L335.103 218.573C334.456 218.185 333.68 218.185 333.163 218.444L322.17 224.781C321.652 225.04 321.782 225.557 322.299 225.945L328.507 229.566C329.024 229.954 329.93 229.955 330.447 229.696Z" fill="#093138"/>
<path d="M307.813 253.623L314.151 250.001C314.668 249.743 314.539 249.225 314.021 248.837L307.813 245.216C307.167 244.828 306.391 244.828 305.873 245.087L299.536 248.708C299.019 248.967 299.148 249.484 299.665 249.872L305.873 253.493C306.391 253.881 307.296 254.011 307.813 253.623Z" fill="#093138"/>
<path d="M298.114 259.313L304.451 255.692C304.968 255.433 304.839 254.916 304.322 254.528L298.114 250.907C297.467 250.519 296.691 250.519 296.174 250.777L289.836 254.399C289.319 254.657 289.448 255.175 289.966 255.563L296.174 259.184C296.691 259.572 297.596 259.572 298.114 259.313Z" fill="#093138"/>
<path d="M288.413 264.875L294.751 261.253C295.268 260.995 295.139 260.477 294.621 260.089L288.413 256.468C287.767 256.08 286.991 256.08 286.473 256.339L280.136 259.96C279.619 260.219 279.748 260.736 280.265 261.124L286.473 264.745C286.991 265.133 287.896 265.263 288.413 264.875Z" fill="#093138"/>
<path d="M278.584 270.565L284.922 266.944C285.439 266.685 285.31 266.168 284.792 265.78L278.584 262.159C277.938 261.771 277.162 261.771 276.644 262.029L270.307 265.651C269.79 265.909 269.919 266.427 270.436 266.815L276.644 270.436C277.291 270.824 278.067 270.824 278.584 270.565Z" fill="#093138"/>
<path d="M268.884 276.127L275.221 272.505C275.739 272.247 275.609 271.729 275.092 271.341L268.884 267.72C268.237 267.332 267.461 267.332 266.944 267.591L260.607 271.212C260.089 271.471 260.219 271.988 260.736 272.376L266.944 275.997C267.461 276.385 268.367 276.515 268.884 276.127Z" fill="#093138"/>
<path d="M259.184 281.817L265.521 278.196C266.039 277.937 265.909 277.42 265.392 277.032L259.184 273.411C258.537 273.023 257.761 273.023 257.244 273.281L250.907 276.903C250.389 277.161 250.519 277.679 251.036 278.067L257.244 281.688C257.761 282.076 258.667 282.076 259.184 281.817Z" fill="#093138"/>
<path d="M249.355 287.379L255.692 283.757C256.209 283.498 256.08 282.981 255.563 282.593L249.355 278.972C248.708 278.584 247.932 278.584 247.415 278.843L241.078 282.464C240.56 282.722 240.689 283.24 241.207 283.628L247.415 287.249C248.061 287.637 248.837 287.767 249.355 287.379Z" fill="#093138"/>
<path d="M239.655 293.069L245.992 289.448C246.509 289.189 246.38 288.672 245.863 288.284L239.655 284.663C239.008 284.275 238.232 284.275 237.715 284.533L231.377 288.154C230.86 288.413 230.989 288.931 231.507 289.319L237.715 292.94C238.232 293.328 239.137 293.328 239.655 293.069Z" fill="#093138"/>
<path d="M229.955 298.631L236.292 295.009C236.81 294.751 236.68 294.233 236.163 293.845L229.955 290.224C229.308 289.836 228.532 289.836 228.015 290.095L221.678 293.716C221.16 293.975 221.29 294.492 221.807 294.88L228.015 298.501C228.532 298.889 229.438 299.019 229.955 298.631Z" fill="#093138"/>
<path d="M212.624 308.719L226.333 300.829C226.851 300.571 226.721 300.053 226.204 299.665L219.996 296.044C219.349 295.656 218.573 295.656 218.056 295.915L204.347 303.804C203.829 304.063 203.959 304.58 204.476 304.968L210.684 308.589C211.201 308.977 212.107 308.977 212.624 308.719Z" fill="#093138"/>
<path d="M193.612 297.725L205.252 291C205.77 290.741 205.64 290.224 205.123 289.836L198.915 286.214C198.268 285.826 197.492 285.827 196.975 286.085L185.335 292.811C184.818 293.069 184.947 293.586 185.464 293.974L191.672 297.596C192.319 297.984 193.095 297.984 193.612 297.725Z" fill="#093138"/>
<path d="M290.742 252.588L297.079 248.967C297.596 248.708 297.467 248.191 296.95 247.803L290.742 244.181C290.095 243.793 289.319 243.793 288.802 244.052L282.464 247.673C281.947 247.932 282.076 248.449 282.594 248.837L288.802 252.459C289.448 252.847 290.224 252.847 290.742 252.588Z" fill="#093138"/>
<path d="M300.7 246.768L307.037 243.147C307.555 242.888 307.425 242.371 306.908 241.983L300.7 238.361C300.053 237.973 299.277 237.973 298.76 238.232L292.423 241.853C291.905 242.112 292.035 242.629 292.552 243.017L298.76 246.639C299.407 247.027 300.312 247.156 300.7 246.768Z" fill="#093138"/>
<path d="M310.788 241.077L317.125 237.456C317.643 237.197 317.513 236.68 316.996 236.292L310.788 232.671C310.141 232.283 309.365 232.283 308.848 232.541L302.511 236.163C301.993 236.421 302.123 236.939 302.64 237.327L308.848 240.948C309.365 241.336 310.271 241.336 310.788 241.077Z" fill="#093138"/>
<path d="M320.747 235.257L327.084 231.636C327.602 231.377 327.472 230.86 326.955 230.472L320.747 226.85C320.1 226.462 319.324 226.463 318.807 226.721L312.47 230.343C311.952 230.601 312.082 231.119 312.599 231.507L318.807 235.128C319.324 235.516 320.23 235.645 320.747 235.257Z" fill="#093138"/>
<path d="M281.041 258.149L287.379 254.528C287.896 254.269 287.767 253.752 287.249 253.364L281.041 249.743C280.395 249.355 279.619 249.355 279.101 249.613L272.764 253.235C272.247 253.493 272.376 254.011 272.893 254.399L279.101 258.02C279.619 258.408 280.524 258.537 281.041 258.149Z" fill="#093138"/>
<path d="M271.342 263.84L277.679 260.219C278.196 259.96 278.067 259.443 277.55 259.055L271.342 255.433C270.695 255.045 269.919 255.045 269.402 255.304L263.064 258.925C262.547 259.184 262.676 259.701 263.194 260.089L269.402 263.711C269.919 264.099 270.824 264.099 271.342 263.84Z" fill="#093138"/>
<path d="M261.512 269.401L267.849 265.78C268.367 265.521 268.237 265.004 267.72 264.616L261.512 260.995C260.865 260.607 260.089 260.607 259.572 260.865L253.235 264.487C252.717 264.745 252.847 265.263 253.364 265.651L259.572 269.272C260.219 269.66 260.995 269.789 261.512 269.401Z" fill="#093138"/>
<path d="M251.812 275.092L258.15 271.471C258.667 271.212 258.538 270.695 258.02 270.307L251.812 266.685C251.166 266.297 250.39 266.297 249.872 266.556L243.535 270.177C243.018 270.436 243.147 270.953 243.664 271.341L249.872 274.963C250.39 275.351 251.295 275.351 251.812 275.092Z" fill="#093138"/>
<path d="M242.112 280.653L248.449 277.032C248.967 276.773 248.837 276.256 248.32 275.868L242.112 272.247C241.465 271.859 240.689 271.858 240.172 272.117L233.835 275.738C233.317 275.997 233.447 276.515 233.964 276.903L240.172 280.524C240.689 280.912 241.595 281.041 242.112 280.653Z" fill="#093138"/>
<path d="M232.283 286.344L238.62 282.723C239.137 282.464 239.008 281.947 238.491 281.559L232.283 277.937C231.636 277.549 230.86 277.549 230.343 277.808L224.005 281.429C223.488 281.688 223.617 282.205 224.135 282.593L230.343 286.214C230.989 286.602 231.895 286.602 232.283 286.344Z" fill="#093138"/>
<path d="M222.583 291.905L228.92 288.284C229.437 288.025 229.308 287.508 228.791 287.12L222.583 283.499C221.936 283.111 221.16 283.111 220.643 283.369L214.306 286.991C213.788 287.249 213.918 287.767 214.435 288.155L220.643 291.776C221.16 292.164 222.066 292.293 222.583 291.905Z" fill="#093138"/>
<path d="M212.883 297.596L219.22 293.975C219.737 293.716 219.608 293.199 219.091 292.811L212.883 289.189C212.236 288.801 211.46 288.801 210.943 289.06L204.605 292.681C204.088 292.94 204.217 293.457 204.735 293.845L210.943 297.467C211.46 297.855 212.365 297.855 212.883 297.596Z" fill="#093138"/>
<path d="M203.183 303.157L209.52 299.536C210.038 299.277 209.908 298.76 209.391 298.372L203.183 294.751C202.536 294.363 201.76 294.363 201.243 294.621L194.906 298.243C194.388 298.501 194.518 299.019 195.035 299.407L201.243 303.028C201.76 303.416 202.666 303.416 203.183 303.157Z" fill="#093138"/>
<path d="M295.915 238.62L302.252 234.999C302.77 234.74 302.64 234.223 302.123 233.835L295.915 230.213C295.268 229.825 294.492 229.825 293.975 230.084L287.638 233.705C287.12 233.964 287.25 234.481 287.767 234.869L293.975 238.491C294.492 238.879 295.398 239.008 295.915 238.62Z" fill="#093138"/>
<path d="M305.615 233.059L311.952 229.437C312.469 229.179 312.34 228.661 311.823 228.273L305.615 224.652C304.968 224.264 304.192 224.264 303.675 224.523L297.337 228.144C296.82 228.403 296.949 228.92 297.467 229.308L303.675 232.929C304.192 233.317 305.097 233.317 305.615 233.059Z" fill="#093138"/>
<path d="M315.315 227.497L321.652 223.876C322.169 223.617 322.04 223.1 321.523 222.712L315.315 219.09C314.668 218.702 313.892 218.702 313.375 218.961L307.037 222.583C306.52 222.841 306.649 223.358 307.167 223.746L313.375 227.368C313.892 227.756 314.797 227.756 315.315 227.497Z" fill="#093138"/>
<path d="M325.015 221.936L331.352 218.315C331.87 218.056 331.74 217.539 331.223 217.151L325.015 213.529C324.368 213.141 323.592 213.141 323.075 213.4L316.738 217.021C316.22 217.28 316.35 217.797 316.867 218.185L322.946 221.807C323.592 222.195 324.498 222.195 325.015 221.936Z" fill="#093138"/>
<path d="M315.056 216.116L321.393 212.495C321.911 212.236 321.781 211.719 321.264 211.331L319.195 210.167C318.548 209.779 317.772 209.779 317.255 210.037L310.917 213.659C310.4 213.917 310.529 214.435 311.047 214.823L313.116 215.987C313.633 216.375 314.539 216.375 315.056 216.116Z" fill="#093138"/>
<path d="M302.382 223.488L308.719 219.867C309.236 219.608 309.107 219.091 308.59 218.703L306.52 217.539C305.874 217.151 305.098 217.151 304.58 217.409L298.243 221.031C297.726 221.289 297.855 221.807 298.372 222.195L300.442 223.359C300.959 223.747 301.864 223.747 302.382 223.488Z" fill="#093138"/>
<path d="M292.681 229.049L299.019 225.428C299.536 225.169 299.407 224.652 298.889 224.264L296.82 223.1C296.173 222.712 295.397 222.712 294.88 222.971L288.543 226.592C288.025 226.851 288.155 227.368 288.672 227.756L290.741 228.92C291.388 229.308 292.164 229.308 292.681 229.049Z" fill="#093138"/>
<path d="M283.111 234.61L289.448 230.989C289.965 230.731 289.836 230.213 289.319 229.825L287.249 228.661C286.603 228.273 285.827 228.273 285.309 228.532L278.972 232.153C278.455 232.412 278.584 232.929 279.101 233.317L281.171 234.481C281.688 234.869 282.593 234.869 283.111 234.61Z" fill="#093138"/>
<path d="M273.411 240.172L279.748 236.551C280.266 236.292 280.136 235.775 279.619 235.387L277.55 234.223C276.903 233.835 276.127 233.835 275.61 234.093L269.272 237.715C268.755 237.973 268.884 238.491 269.402 238.879L271.471 240.043C271.988 240.431 272.894 240.431 273.411 240.172Z" fill="#093138"/>
<path d="M219.479 271.212L225.816 267.59C226.334 267.332 226.204 266.814 225.687 266.426L223.618 265.262C222.971 264.874 222.195 264.874 221.678 265.133L215.34 268.754C214.823 269.013 214.952 269.53 215.47 269.918L217.539 271.082C218.186 271.47 219.091 271.6 219.479 271.212Z" fill="#093138"/>
<path d="M209.908 276.773L216.245 273.152C216.763 272.893 216.633 272.376 216.116 271.988L214.047 270.824C213.4 270.436 212.624 270.436 212.107 270.695L205.769 274.316C205.252 274.575 205.381 275.092 205.899 275.48L207.968 276.644C208.485 277.032 209.391 277.161 209.908 276.773Z" fill="#093138"/>
<path d="M200.208 282.464L206.546 278.713C207.063 278.455 206.934 277.937 206.416 277.549L204.347 276.385C203.7 275.997 202.924 275.997 202.407 276.256L196.07 279.877C195.552 280.136 195.682 280.653 196.199 281.041L198.268 282.205C198.915 282.593 199.691 282.722 200.208 282.464Z" fill="#093138"/>
<path d="M190.638 288.025L196.975 284.404C197.492 284.145 197.363 283.628 196.846 283.24L194.776 282.076C194.13 281.688 193.354 281.688 192.836 281.947L186.499 285.568C185.982 285.826 186.111 286.344 186.628 286.732L188.698 287.896C189.215 288.284 190.12 288.284 190.638 288.025Z" fill="#093138"/>
<path d="M286.215 244.311L292.552 240.689C293.069 240.431 292.94 239.913 292.423 239.525L286.215 235.904C285.568 235.516 284.792 235.516 284.275 235.775L277.937 239.396C277.42 239.655 277.549 240.172 278.067 240.56L284.275 244.181C284.792 244.569 285.697 244.569 286.215 244.311Z" fill="#093138"/>
<path d="M276.386 249.872L282.723 246.251C283.24 245.992 283.111 245.475 282.594 245.087L276.386 241.465C275.739 241.077 274.963 241.077 274.446 241.336L268.108 244.957C267.591 245.216 267.72 245.733 268.238 246.121L274.446 249.743C275.092 250.131 275.868 250.26 276.386 249.872Z" fill="#093138"/>
<path d="M266.685 255.563L273.023 251.941C273.54 251.683 273.411 251.165 272.893 250.777L266.685 247.156C266.039 246.768 265.263 246.768 264.745 247.027L258.408 250.648C257.891 250.907 258.02 251.424 258.537 251.812L264.745 255.433C265.263 255.821 266.168 255.821 266.685 255.563Z" fill="#093138"/>
<path d="M256.986 261.124L263.323 257.503C263.84 257.244 263.711 256.727 263.194 256.339L256.986 252.717C256.339 252.329 255.563 252.329 255.046 252.588L248.708 256.209C248.191 256.468 248.32 256.985 248.838 257.373L255.046 260.995C255.563 261.383 256.468 261.512 256.986 261.124Z" fill="#093138"/>
<path d="M247.156 266.815L253.493 263.193C254.011 262.935 253.881 262.417 253.364 262.029L247.156 258.408C246.509 258.02 245.733 258.02 245.216 258.279L238.879 261.9C238.361 262.159 238.491 262.676 239.008 263.064L245.216 266.685C245.863 267.073 246.768 267.073 247.156 266.815Z" fill="#093138"/>
<path d="M237.456 272.376L243.793 268.755C244.311 268.496 244.181 267.979 243.664 267.591L237.456 263.969C236.809 263.581 236.033 263.581 235.516 263.84L229.179 267.461C228.661 267.72 228.791 268.237 229.308 268.625L235.516 272.247C236.033 272.635 236.939 272.764 237.456 272.376Z" fill="#093138"/>
<path d="M227.756 278.066L234.094 274.445C234.611 274.186 234.482 273.669 233.964 273.281L227.756 269.66C227.11 269.272 226.334 269.272 225.816 269.53L219.479 273.152C218.962 273.41 219.091 273.928 219.608 274.316L225.816 277.937C226.334 278.325 227.239 278.325 227.756 278.066Z" fill="#093138"/>
<path d="M218.056 283.628L224.393 280.007C224.911 279.748 224.781 279.231 224.264 278.843L218.056 275.221C217.409 274.833 216.633 274.833 216.116 275.092L209.779 278.713C209.261 278.972 209.391 279.489 209.908 279.877L216.116 283.499C216.633 283.887 217.539 283.887 218.056 283.628Z" fill="#093138"/>
<path d="M208.227 289.319L214.564 285.697C215.082 285.439 214.952 284.921 214.435 284.533L208.227 280.912C207.58 280.524 206.804 280.524 206.287 280.783L199.95 284.404C199.432 284.663 199.562 285.18 200.079 285.568L206.287 289.189C206.804 289.577 207.71 289.577 208.227 289.319Z" fill="#093138"/>
<path d="M341.828 244.957L360.452 234.223C360.969 233.964 360.84 233.447 360.323 233.059L354.115 229.437C353.468 229.049 352.692 229.049 352.175 229.308L333.551 240.043C333.033 240.301 333.163 240.819 333.68 241.207L339.888 244.828C340.405 245.216 341.311 245.345 341.828 244.957Z" fill="#093138"/>
<path d="M222.195 314.021L240.819 303.287C241.336 303.028 241.207 302.511 240.689 302.123L234.481 298.501C233.835 298.113 233.059 298.113 232.541 298.372L213.917 309.107C213.4 309.365 213.529 309.883 214.047 310.271L220.255 313.892C220.772 314.28 221.677 314.409 222.195 314.021Z" fill="#093138"/>
<path d="M261.124 304.063L267.462 300.441C267.979 300.183 267.85 299.665 267.332 299.277L259.831 295.009C259.184 294.621 258.408 294.621 257.891 294.88L251.554 298.501C251.036 298.76 251.166 299.277 251.683 299.665L259.184 303.933C259.702 304.321 260.607 304.321 261.124 304.063Z" fill="#093138"/>
<path d="M331.869 263.193L341.957 257.373C342.475 257.115 342.345 256.597 341.828 256.209L334.327 251.941C333.68 251.553 332.904 251.553 332.387 251.812L322.299 257.632C321.781 257.891 321.911 258.408 322.428 258.796L329.929 263.064C330.447 263.452 331.352 263.452 331.869 263.193Z" fill="#093138"/>
<path d="M270.566 298.631L280.654 292.811C281.171 292.552 281.042 292.035 280.524 291.647L273.023 287.379C272.376 286.991 271.6 286.991 271.083 287.249L260.995 293.069C260.478 293.328 260.607 293.845 261.124 294.233L268.626 298.501C269.143 298.889 270.048 298.889 270.566 298.631Z" fill="#093138"/>
<path d="M317.772 271.341L327.86 265.521C328.377 265.263 328.248 264.745 327.731 264.357L320.229 260.089C319.583 259.701 318.807 259.701 318.289 259.96L308.201 265.78C307.684 266.039 307.813 266.556 308.331 266.944L315.832 271.212C316.479 271.6 317.255 271.6 317.772 271.341Z" fill="#093138"/>
<path d="M318.289 259.96L274.445 285.309C273.928 285.568 273.928 286.085 274.445 286.473L282.076 290.87C282.593 291.129 283.499 291.129 284.016 290.87L327.86 265.521L318.289 259.96Z" fill="#093138"/>
<path d="M233.964 314.151L226.98 318.16C226.592 318.419 226.592 318.807 227.109 319.065L230.213 320.876C230.731 321.135 231.377 321.135 231.895 321.005L238.879 316.996C239.267 316.737 239.267 316.349 238.749 316.091L235.645 314.28C235.128 314.021 234.352 314.021 233.964 314.151Z" fill="#093138"/>
<path d="M243.794 308.589L236.81 312.599C236.422 312.857 236.422 313.245 236.939 313.504L240.043 315.315C240.56 315.573 241.207 315.573 241.724 315.444L248.708 311.435C249.096 311.176 249.096 310.788 248.579 310.529L245.475 308.719C244.828 308.331 244.182 308.331 243.794 308.589Z" fill="#093138"/>
<path d="M253.493 302.899L246.509 306.908C246.121 307.167 246.121 307.555 246.639 307.813L249.743 309.624C250.26 309.883 250.907 309.883 251.424 309.753L258.408 305.744C258.796 305.485 258.796 305.097 258.279 304.839L255.175 303.028C254.657 302.64 253.881 302.64 253.493 302.899Z" fill="#093138"/>
<path d="M238.362 305.485L231.378 309.495C230.99 309.753 230.989 310.141 231.507 310.4L234.611 312.211C235.128 312.469 235.775 312.469 236.292 312.34L243.276 308.331C243.664 308.072 243.664 307.684 243.147 307.425L240.043 305.615C239.525 305.227 238.75 305.227 238.362 305.485Z" fill="#093138"/>
</g>
<g opacity="0.4">
<path d="M364.849 244.181L371.187 240.56C371.704 240.301 371.575 239.784 371.057 239.396L363.556 235.128C362.909 234.74 362.133 234.74 361.616 234.999L355.279 238.62C354.761 238.879 354.891 239.396 355.408 239.784L362.909 244.052C363.427 244.311 364.332 244.44 364.849 244.181Z" fill="#093138"/>
<path d="M355.149 249.743L361.487 246.121C362.004 245.863 361.875 245.345 361.357 244.957L353.856 240.689C353.209 240.301 352.433 240.301 351.916 240.56L345.579 244.181C345.061 244.44 345.191 244.957 345.708 245.345L353.209 249.613C353.727 250.001 354.632 250.001 355.149 249.743Z" fill="#093138"/>
<path d="M345.45 255.304L351.787 251.683C352.304 251.424 352.175 250.907 351.658 250.519L344.156 246.251C343.51 245.863 342.734 245.863 342.216 246.121L335.879 249.743C335.362 250.001 335.491 250.519 336.008 250.907L343.51 255.175C344.027 255.563 344.932 255.692 345.45 255.304Z" fill="#093138"/>
<path d="M331.869 250.777L338.207 247.156C338.724 246.897 338.595 246.38 338.077 245.992L331.869 242.371C331.223 241.983 330.447 241.983 329.929 242.241L323.592 245.863C323.075 246.121 323.204 246.639 323.721 247.027L329.929 250.648C330.576 251.036 331.481 251.036 331.869 250.777Z" fill="#093138"/>
<path d="M322.169 256.339L328.507 252.717C329.024 252.459 328.895 251.941 328.377 251.553L322.169 247.932C321.523 247.544 320.747 247.544 320.229 247.803L313.892 251.424C313.375 251.683 313.504 252.2 314.021 252.588L320.229 256.209C320.747 256.597 321.652 256.597 322.169 256.339Z" fill="#093138"/>
<path d="M312.47 262.029L318.807 258.408C319.324 258.149 319.195 257.632 318.678 257.244L312.47 253.623C311.823 253.235 311.047 253.235 310.53 253.493L304.192 257.115C303.675 257.373 303.804 257.891 304.322 258.279L310.53 261.9C311.047 262.159 311.952 262.288 312.47 262.029Z" fill="#093138"/>
<path d="M302.769 267.591L309.107 263.969C309.624 263.711 309.495 263.193 308.977 262.805L302.769 259.184C302.123 258.796 301.347 258.796 300.829 259.055L294.492 262.676C293.975 262.935 294.104 263.452 294.621 263.84L300.829 267.461C301.347 267.849 302.252 267.849 302.769 267.591Z" fill="#093138"/>
<path d="M292.94 273.152L299.278 269.531C299.795 269.272 299.666 268.755 299.148 268.367L292.94 264.745C292.294 264.357 291.518 264.357 291 264.616L284.663 268.237C284.146 268.496 284.275 269.013 284.792 269.401L291 273.023C291.518 273.411 292.423 273.54 292.94 273.152Z" fill="#093138"/>
<path d="M283.24 278.843L289.577 275.221C290.095 274.962 289.965 274.445 289.448 274.057L283.24 270.436C282.593 270.048 281.817 270.048 281.3 270.306L274.963 273.928C274.445 274.186 274.575 274.704 275.092 275.092L281.3 278.713C281.817 279.101 282.723 279.101 283.24 278.843Z" fill="#093138"/>
<path d="M273.54 284.404L279.878 280.783C280.395 280.524 280.266 280.007 279.748 279.619L273.54 275.997C272.894 275.609 272.118 275.609 271.6 275.868L265.263 279.489C264.746 279.748 264.875 280.265 265.392 280.653L271.6 284.275C272.118 284.663 273.023 284.792 273.54 284.404Z" fill="#093138"/>
<path d="M263.711 290.095L270.048 286.473C270.565 286.215 270.436 285.697 269.919 285.309L263.711 281.688C263.064 281.3 262.288 281.3 261.771 281.559L255.433 285.18C254.916 285.439 255.045 285.956 255.563 286.344L261.771 289.965C262.417 290.353 263.193 290.353 263.711 290.095Z" fill="#093138"/>
<path d="M254.011 295.656L260.348 292.034C260.865 291.776 260.736 291.259 260.219 290.871L254.011 287.249C253.364 286.861 252.588 286.861 252.071 287.12L245.733 290.741C245.216 291 245.345 291.517 245.863 291.905L252.071 295.527C252.588 295.915 253.493 296.044 254.011 295.656Z" fill="#093138"/>
<path d="M244.311 301.347L250.648 297.725C251.166 297.467 251.036 296.949 250.519 296.561L244.311 292.94C243.664 292.552 242.888 292.552 242.371 292.811L236.034 296.432C235.516 296.691 235.646 297.208 236.163 297.596L242.371 301.217C242.888 301.605 243.794 301.605 244.311 301.347Z" fill="#093138"/>
<path d="M317.513 248.061L323.851 244.44C324.368 244.181 324.239 243.664 323.722 243.276L317.513 239.655C316.867 239.267 316.091 239.267 315.573 239.525L309.236 243.147C308.719 243.405 308.848 243.923 309.365 244.311L315.573 247.932C316.22 248.32 317.125 248.32 317.513 248.061Z" fill="#093138"/>
<path d="M327.472 242.371L333.809 238.749C334.327 238.491 334.197 237.973 333.68 237.585L327.472 233.964C326.825 233.576 326.049 233.576 325.532 233.835L319.195 237.456C318.677 237.715 318.807 238.232 319.324 238.62L325.532 242.241C326.049 242.629 326.955 242.629 327.472 242.371Z" fill="#093138"/>
<path d="M337.302 236.68L350.882 228.79C351.399 228.532 351.27 228.014 350.752 227.626L344.544 224.005C343.898 223.617 343.122 223.617 342.604 223.876L329.024 231.765C328.507 232.024 328.636 232.541 329.154 232.929L335.362 236.55C336.008 236.938 336.914 236.938 337.302 236.68Z" fill="#093138"/>
<path d="M330.447 229.696L341.44 223.358C341.958 223.1 341.828 222.583 341.311 222.195L335.103 218.573C334.456 218.185 333.68 218.185 333.163 218.444L322.17 224.781C321.652 225.04 321.782 225.557 322.299 225.945L328.507 229.566C329.024 229.954 329.93 229.955 330.447 229.696Z" fill="#093138"/>
<path d="M307.813 253.623L314.151 250.001C314.668 249.743 314.539 249.225 314.021 248.837L307.813 245.216C307.167 244.828 306.391 244.828 305.873 245.087L299.536 248.708C299.019 248.967 299.148 249.484 299.665 249.872L305.873 253.493C306.391 253.881 307.296 254.011 307.813 253.623Z" fill="#093138"/>
<path d="M298.114 259.313L304.451 255.692C304.968 255.433 304.839 254.916 304.322 254.528L298.114 250.907C297.467 250.519 296.691 250.519 296.174 250.777L289.836 254.399C289.319 254.657 289.448 255.175 289.966 255.563L296.174 259.184C296.691 259.572 297.596 259.572 298.114 259.313Z" fill="#093138"/>
<path d="M288.413 264.875L294.751 261.253C295.268 260.995 295.139 260.477 294.621 260.089L288.413 256.468C287.767 256.08 286.991 256.08 286.473 256.339L280.136 259.96C279.619 260.219 279.748 260.736 280.265 261.124L286.473 264.745C286.991 265.133 287.896 265.263 288.413 264.875Z" fill="#093138"/>
<path d="M278.584 270.565L284.922 266.944C285.439 266.685 285.31 266.168 284.792 265.78L278.584 262.159C277.938 261.771 277.162 261.771 276.644 262.029L270.307 265.651C269.79 265.909 269.919 266.427 270.436 266.815L276.644 270.436C277.291 270.824 278.067 270.824 278.584 270.565Z" fill="#093138"/>
<path d="M268.884 276.127L275.221 272.505C275.739 272.247 275.609 271.729 275.092 271.341L268.884 267.72C268.237 267.332 267.461 267.332 266.944 267.591L260.607 271.212C260.089 271.471 260.219 271.988 260.736 272.376L266.944 275.997C267.461 276.385 268.367 276.515 268.884 276.127Z" fill="#093138"/>
<path d="M259.184 281.817L265.521 278.196C266.039 277.937 265.909 277.42 265.392 277.032L259.184 273.411C258.537 273.023 257.761 273.023 257.244 273.281L250.907 276.903C250.389 277.161 250.519 277.679 251.036 278.067L257.244 281.688C257.761 282.076 258.667 282.076 259.184 281.817Z" fill="#093138"/>
<path d="M249.355 287.379L255.692 283.757C256.209 283.498 256.08 282.981 255.563 282.593L249.355 278.972C248.708 278.584 247.932 278.584 247.415 278.843L241.078 282.464C240.56 282.722 240.689 283.24 241.207 283.628L247.415 287.249C248.061 287.637 248.837 287.767 249.355 287.379Z" fill="#093138"/>
<path d="M239.655 293.069L245.992 289.448C246.509 289.189 246.38 288.672 245.863 288.284L239.655 284.663C239.008 284.275 238.232 284.275 237.715 284.533L231.377 288.154C230.86 288.413 230.989 288.931 231.507 289.319L237.715 292.94C238.232 293.328 239.137 293.328 239.655 293.069Z" fill="#093138"/>
<path d="M229.955 298.631L236.292 295.009C236.81 294.751 236.68 294.233 236.163 293.845L229.955 290.224C229.308 289.836 228.532 289.836 228.015 290.095L221.678 293.716C221.16 293.975 221.29 294.492 221.807 294.88L228.015 298.501C228.532 298.889 229.438 299.019 229.955 298.631Z" fill="#093138"/>
<path d="M212.624 308.719L226.333 300.829C226.851 300.571 226.721 300.053 226.204 299.665L219.996 296.044C219.349 295.656 218.573 295.656 218.056 295.915L204.347 303.804C203.829 304.063 203.959 304.58 204.476 304.968L210.684 308.589C211.201 308.977 212.107 308.977 212.624 308.719Z" fill="#093138"/>
<path d="M193.612 297.725L205.252 291C205.77 290.741 205.64 290.224 205.123 289.836L198.915 286.214C198.268 285.826 197.492 285.827 196.975 286.085L185.335 292.811C184.818 293.069 184.947 293.586 185.464 293.974L191.672 297.596C192.319 297.984 193.095 297.984 193.612 297.725Z" fill="#093138"/>
<path d="M290.742 252.588L297.079 248.967C297.596 248.708 297.467 248.191 296.95 247.803L290.742 244.181C290.095 243.793 289.319 243.793 288.802 244.052L282.464 247.673C281.947 247.932 282.076 248.449 282.594 248.837L288.802 252.459C289.448 252.847 290.224 252.847 290.742 252.588Z" fill="#093138"/>
<path d="M300.7 246.768L307.037 243.147C307.555 242.888 307.425 242.371 306.908 241.983L300.7 238.361C300.053 237.973 299.277 237.973 298.76 238.232L292.423 241.853C291.905 242.112 292.035 242.629 292.552 243.017L298.76 246.639C299.407 247.027 300.312 247.156 300.7 246.768Z" fill="#093138"/>
<path d="M310.788 241.077L317.125 237.456C317.643 237.197 317.513 236.68 316.996 236.292L310.788 232.671C310.141 232.283 309.365 232.283 308.848 232.541L302.511 236.163C301.993 236.421 302.123 236.939 302.64 237.327L308.848 240.948C309.365 241.336 310.271 241.336 310.788 241.077Z" fill="#093138"/>
<path d="M320.747 235.257L327.084 231.636C327.602 231.377 327.472 230.86 326.955 230.472L320.747 226.85C320.1 226.462 319.324 226.463 318.807 226.721L312.47 230.343C311.952 230.601 312.082 231.119 312.599 231.507L318.807 235.128C319.324 235.516 320.23 235.645 320.747 235.257Z" fill="#093138"/>
<path d="M281.041 258.149L287.379 254.528C287.896 254.269 287.767 253.752 287.249 253.364L281.041 249.743C280.395 249.355 279.619 249.355 279.101 249.613L272.764 253.235C272.247 253.493 272.376 254.011 272.893 254.399L279.101 258.02C279.619 258.408 280.524 258.537 281.041 258.149Z" fill="#093138"/>
<path d="M271.342 263.84L277.679 260.219C278.196 259.96 278.067 259.443 277.55 259.055L271.342 255.433C270.695 255.045 269.919 255.045 269.402 255.304L263.064 258.925C262.547 259.184 262.676 259.701 263.194 260.089L269.402 263.711C269.919 264.099 270.824 264.099 271.342 263.84Z" fill="#093138"/>
<path d="M261.512 269.401L267.849 265.78C268.367 265.521 268.237 265.004 267.72 264.616L261.512 260.995C260.865 260.607 260.089 260.607 259.572 260.865L253.235 264.487C252.717 264.745 252.847 265.263 253.364 265.651L259.572 269.272C260.219 269.66 260.995 269.789 261.512 269.401Z" fill="#093138"/>
<path d="M251.812 275.092L258.15 271.471C258.667 271.212 258.538 270.695 258.02 270.307L251.812 266.685C251.166 266.297 250.39 266.297 249.872 266.556L243.535 270.177C243.018 270.436 243.147 270.953 243.664 271.341L249.872 274.963C250.39 275.351 251.295 275.351 251.812 275.092Z" fill="#093138"/>
<path d="M242.112 280.653L248.449 277.032C248.967 276.773 248.837 276.256 248.32 275.868L242.112 272.247C241.465 271.859 240.689 271.858 240.172 272.117L233.835 275.738C233.317 275.997 233.447 276.515 233.964 276.903L240.172 280.524C240.689 280.912 241.595 281.041 242.112 280.653Z" fill="#093138"/>
<path d="M232.283 286.344L238.62 282.723C239.137 282.464 239.008 281.947 238.491 281.559L232.283 277.937C231.636 277.549 230.86 277.549 230.343 277.808L224.005 281.429C223.488 281.688 223.617 282.205 224.135 282.593L230.343 286.214C230.989 286.602 231.895 286.602 232.283 286.344Z" fill="#093138"/>
<path d="M222.583 291.905L228.92 288.284C229.437 288.025 229.308 287.508 228.791 287.12L222.583 283.499C221.936 283.111 221.16 283.111 220.643 283.369L214.306 286.991C213.788 287.249 213.918 287.767 214.435 288.155L220.643 291.776C221.16 292.164 222.066 292.293 222.583 291.905Z" fill="#093138"/>
<path d="M212.883 297.596L219.22 293.975C219.737 293.716 219.608 293.199 219.091 292.811L212.883 289.189C212.236 288.801 211.46 288.801 210.943 289.06L204.605 292.681C204.088 292.94 204.217 293.457 204.735 293.845L210.943 297.467C211.46 297.855 212.365 297.855 212.883 297.596Z" fill="#093138"/>
<path d="M203.183 303.157L209.52 299.536C210.038 299.277 209.908 298.76 209.391 298.372L203.183 294.751C202.536 294.363 201.76 294.363 201.243 294.621L194.906 298.243C194.388 298.501 194.518 299.019 195.035 299.407L201.243 303.028C201.76 303.416 202.666 303.416 203.183 303.157Z" fill="#093138"/>
<path d="M295.915 238.62L302.252 234.999C302.77 234.74 302.64 234.223 302.123 233.835L295.915 230.213C295.268 229.825 294.492 229.825 293.975 230.084L287.638 233.705C287.12 233.964 287.25 234.481 287.767 234.869L293.975 238.491C294.492 238.879 295.398 239.008 295.915 238.62Z" fill="#093138"/>
<path d="M305.615 233.059L311.952 229.437C312.469 229.179 312.34 228.661 311.823 228.273L305.615 224.652C304.968 224.264 304.192 224.264 303.675 224.523L297.337 228.144C296.82 228.403 296.949 228.92 297.467 229.308L303.675 232.929C304.192 233.317 305.097 233.317 305.615 233.059Z" fill="#093138"/>
<path d="M315.315 227.497L321.652 223.876C322.169 223.617 322.04 223.1 321.523 222.712L315.315 219.09C314.668 218.702 313.892 218.702 313.375 218.961L307.037 222.583C306.52 222.841 306.649 223.358 307.167 223.746L313.375 227.368C313.892 227.756 314.797 227.756 315.315 227.497Z" fill="#093138"/>
<path d="M325.015 221.936L331.352 218.315C331.87 218.056 331.74 217.539 331.223 217.151L325.015 213.529C324.368 213.141 323.592 213.141 323.075 213.4L316.738 217.021C316.22 217.28 316.35 217.797 316.867 218.185L322.946 221.807C323.592 222.195 324.498 222.195 325.015 221.936Z" fill="#093138"/>
<path d="M315.056 216.116L321.393 212.495C321.911 212.236 321.781 211.719 321.264 211.331L319.195 210.167C318.548 209.779 317.772 209.779 317.255 210.037L310.917 213.659C310.4 213.917 310.529 214.435 311.047 214.823L313.116 215.987C313.633 216.375 314.539 216.375 315.056 216.116Z" fill="#093138"/>
<path d="M302.382 223.488L308.719 219.867C309.236 219.608 309.107 219.091 308.59 218.703L306.52 217.539C305.874 217.151 305.098 217.151 304.58 217.409L298.243 221.031C297.726 221.289 297.855 221.807 298.372 222.195L300.442 223.359C300.959 223.747 301.864 223.747 302.382 223.488Z" fill="#093138"/>
<path d="M292.681 229.049L299.019 225.428C299.536 225.169 299.407 224.652 298.889 224.264L296.82 223.1C296.173 222.712 295.397 222.712 294.88 222.971L288.543 226.592C288.025 226.851 288.155 227.368 288.672 227.756L290.741 228.92C291.388 229.308 292.164 229.308 292.681 229.049Z" fill="#093138"/>
<path d="M283.111 234.61L289.448 230.989C289.965 230.731 289.836 230.213 289.319 229.825L287.249 228.661C286.603 228.273 285.827 228.273 285.309 228.532L278.972 232.153C278.455 232.412 278.584 232.929 279.101 233.317L281.171 234.481C281.688 234.869 282.593 234.869 283.111 234.61Z" fill="#093138"/>
<path d="M273.411 240.172L279.748 236.551C280.266 236.292 280.136 235.775 279.619 235.387L277.55 234.223C276.903 233.835 276.127 233.835 275.61 234.093L269.272 237.715C268.755 237.973 268.884 238.491 269.402 238.879L271.471 240.043C271.988 240.431 272.894 240.431 273.411 240.172Z" fill="#093138"/>
<path d="M219.479 271.212L225.816 267.59C226.334 267.332 226.204 266.814 225.687 266.426L223.618 265.262C222.971 264.874 222.195 264.874 221.678 265.133L215.34 268.754C214.823 269.013 214.952 269.53 215.47 269.918L217.539 271.082C218.186 271.47 219.091 271.6 219.479 271.212Z" fill="#093138"/>
<path d="M209.908 276.773L216.245 273.152C216.763 272.893 216.633 272.376 216.116 271.988L214.047 270.824C213.4 270.436 212.624 270.436 212.107 270.695L205.769 274.316C205.252 274.575 205.381 275.092 205.899 275.48L207.968 276.644C208.485 277.032 209.391 277.161 209.908 276.773Z" fill="#093138"/>
<path d="M200.208 282.464L206.546 278.713C207.063 278.455 206.934 277.937 206.416 277.549L204.347 276.385C203.7 275.997 202.924 275.997 202.407 276.256L196.07 279.877C195.552 280.136 195.682 280.653 196.199 281.041L198.268 282.205C198.915 282.593 199.691 282.722 200.208 282.464Z" fill="#093138"/>
<path d="M190.638 288.025L196.975 284.404C197.492 284.145 197.363 283.628 196.846 283.24L194.776 282.076C194.13 281.688 193.354 281.688 192.836 281.947L186.499 285.568C185.982 285.826 186.111 286.344 186.628 286.732L188.698 287.896C189.215 288.284 190.12 288.284 190.638 288.025Z" fill="#093138"/>
<path d="M286.215 244.311L292.552 240.689C293.069 240.431 292.94 239.913 292.423 239.525L286.215 235.904C285.568 235.516 284.792 235.516 284.275 235.775L277.937 239.396C277.42 239.655 277.549 240.172 278.067 240.56L284.275 244.181C284.792 244.569 285.697 244.569 286.215 244.311Z" fill="#093138"/>
<path d="M276.386 249.872L282.723 246.251C283.24 245.992 283.111 245.475 282.594 245.087L276.386 241.465C275.739 241.077 274.963 241.077 274.446 241.336L268.108 244.957C267.591 245.216 267.72 245.733 268.238 246.121L274.446 249.743C275.092 250.131 275.868 250.26 276.386 249.872Z" fill="#093138"/>
<path d="M266.685 255.563L273.023 251.941C273.54 251.683 273.411 251.165 272.893 250.777L266.685 247.156C266.039 246.768 265.263 246.768 264.745 247.027L258.408 250.648C257.891 250.907 258.02 251.424 258.537 251.812L264.745 255.433C265.263 255.821 266.168 255.821 266.685 255.563Z" fill="#093138"/>
<path d="M256.986 261.124L263.323 257.503C263.84 257.244 263.711 256.727 263.194 256.339L256.986 252.717C256.339 252.329 255.563 252.329 255.046 252.588L248.708 256.209C248.191 256.468 248.32 256.985 248.838 257.373L255.046 260.995C255.563 261.383 256.468 261.512 256.986 261.124Z" fill="#093138"/>
<path d="M247.156 266.815L253.493 263.193C254.011 262.935 253.881 262.417 253.364 262.029L247.156 258.408C246.509 258.02 245.733 258.02 245.216 258.279L238.879 261.9C238.361 262.159 238.491 262.676 239.008 263.064L245.216 266.685C245.863 267.073 246.768 267.073 247.156 266.815Z" fill="#093138"/>
<path d="M237.456 272.376L243.793 268.755C244.311 268.496 244.181 267.979 243.664 267.591L237.456 263.969C236.809 263.581 236.033 263.581 235.516 263.84L229.179 267.461C228.661 267.72 228.791 268.237 229.308 268.625L235.516 272.247C236.033 272.635 236.939 272.764 237.456 272.376Z" fill="#093138"/>
<path d="M227.756 278.066L234.094 274.445C234.611 274.186 234.482 273.669 233.964 273.281L227.756 269.66C227.11 269.272 226.334 269.272 225.816 269.53L219.479 273.152C218.962 273.41 219.091 273.928 219.608 274.316L225.816 277.937C226.334 278.325 227.239 278.325 227.756 278.066Z" fill="#093138"/>
<path d="M218.056 283.628L224.393 280.007C224.911 279.748 224.781 279.231 224.264 278.843L218.056 275.221C217.409 274.833 216.633 274.833 216.116 275.092L209.779 278.713C209.261 278.972 209.391 279.489 209.908 279.877L216.116 283.499C216.633 283.887 217.539 283.887 218.056 283.628Z" fill="#093138"/>
<path d="M208.227 289.319L214.564 285.697C215.082 285.439 214.952 284.921 214.435 284.533L208.227 280.912C207.58 280.524 206.804 280.524 206.287 280.783L199.95 284.404C199.432 284.663 199.562 285.18 200.079 285.568L206.287 289.189C206.804 289.577 207.71 289.577 208.227 289.319Z" fill="#093138"/>
<path d="M341.828 244.957L360.452 234.223C360.969 233.964 360.84 233.447 360.323 233.059L354.115 229.437C353.468 229.049 352.692 229.049 352.175 229.308L333.551 240.043C333.033 240.301 333.163 240.819 333.68 241.207L339.888 244.828C340.405 245.216 341.311 245.345 341.828 244.957Z" fill="#093138"/>
<path d="M222.195 314.021L240.819 303.287C241.336 303.028 241.207 302.511 240.689 302.123L234.481 298.501C233.835 298.113 233.059 298.113 232.541 298.372L213.917 309.107C213.4 309.365 213.529 309.883 214.047 310.271L220.255 313.892C220.772 314.28 221.677 314.409 222.195 314.021Z" fill="#093138"/>
<path d="M261.124 304.063L267.462 300.441C267.979 300.183 267.85 299.665 267.332 299.277L259.831 295.009C259.184 294.621 258.408 294.621 257.891 294.88L251.554 298.501C251.036 298.76 251.166 299.277 251.683 299.665L259.184 303.933C259.702 304.321 260.607 304.321 261.124 304.063Z" fill="#093138"/>
<path d="M331.869 263.193L341.957 257.373C342.475 257.115 342.345 256.597 341.828 256.209L334.327 251.941C333.68 251.553 332.904 251.553 332.387 251.812L322.299 257.632C321.781 257.891 321.911 258.408 322.428 258.796L329.929 263.064C330.447 263.452 331.352 263.452 331.869 263.193Z" fill="#093138"/>
<path d="M270.566 298.631L280.654 292.811C281.171 292.552 281.042 292.035 280.524 291.647L273.023 287.379C272.376 286.991 271.6 286.991 271.083 287.249L260.995 293.069C260.478 293.328 260.607 293.845 261.124 294.233L268.626 298.501C269.143 298.889 270.048 298.889 270.566 298.631Z" fill="#093138"/>
<path d="M317.772 271.341L327.86 265.521C328.377 265.263 328.248 264.745 327.731 264.357L320.229 260.089C319.583 259.701 318.807 259.701 318.289 259.96L308.201 265.78C307.684 266.039 307.813 266.556 308.331 266.944L315.832 271.212C316.479 271.6 317.255 271.6 317.772 271.341Z" fill="#093138"/>
<path d="M318.289 259.96L274.445 285.309C273.928 285.568 273.928 286.085 274.445 286.473L282.076 290.87C282.593 291.129 283.499 291.129 284.016 290.87L327.86 265.521L318.289 259.96Z" fill="#093138"/>
<path d="M233.964 314.151L226.98 318.16C226.592 318.419 226.592 318.807 227.109 319.065L230.213 320.876C230.731 321.135 231.377 321.135 231.895 321.005L238.879 316.996C239.267 316.737 239.267 316.349 238.749 316.091L235.645 314.28C235.128 314.021 234.352 314.021 233.964 314.151Z" fill="#093138"/>
<path d="M243.794 308.589L236.81 312.599C236.422 312.857 236.422 313.245 236.939 313.504L240.043 315.315C240.56 315.573 241.207 315.573 241.724 315.444L248.708 311.435C249.096 311.176 249.096 310.788 248.579 310.529L245.475 308.719C244.828 308.331 244.182 308.331 243.794 308.589Z" fill="#093138"/>
<path d="M253.493 302.899L246.509 306.908C246.121 307.167 246.121 307.555 246.639 307.813L249.743 309.624C250.26 309.883 250.907 309.883 251.424 309.753L258.408 305.744C258.796 305.485 258.796 305.097 258.279 304.839L255.175 303.028C254.657 302.64 253.881 302.64 253.493 302.899Z" fill="#093138"/>
<path d="M238.362 305.485L231.378 309.495C230.99 309.753 230.989 310.141 231.507 310.4L234.611 312.211C235.128 312.469 235.775 312.469 236.292 312.34L243.276 308.331C243.664 308.072 243.664 307.684 243.147 307.425L240.043 305.615C239.525 305.227 238.75 305.227 238.362 305.485Z" fill="#093138"/>
</g>
<path d="M135.283 294.104L321.393 186.628C324.368 184.947 325.791 180.808 324.756 177.445L282.723 40.8693C281.688 37.5066 278.455 36.0839 275.48 37.7653L89.3694 145.241C86.3948 146.923 84.9721 151.061 86.0068 154.424L128.04 291C129.204 294.363 132.437 295.785 135.283 294.104Z" fill="url(#paint7_radial_521_4870)"/>
<path d="M137.093 289.319L317.513 185.076C320.358 183.524 321.781 179.515 320.746 176.281L280.524 45.6546C279.489 42.4213 276.385 41.128 273.669 42.68L93.2491 146.923C90.4037 148.475 88.9811 152.484 90.0157 155.717L130.238 286.344C131.144 289.577 134.248 290.871 137.093 289.319Z" fill="url(#paint8_linear_521_4870)"/>
<path opacity="0.4" d="M137.093 289.319L317.513 185.076C320.358 183.524 321.781 179.515 320.746 176.281L280.524 45.6546C279.489 42.4213 276.385 41.128 273.669 42.68L93.2491 146.923C90.4037 148.475 88.9811 152.484 90.0157 155.717L130.238 286.344C131.144 289.577 134.248 290.871 137.093 289.319Z" fill="#093138"/>
<path opacity="0.4" d="M137.093 289.319L317.513 185.076C320.358 183.524 321.781 179.515 320.746 176.281L280.524 45.6546C279.489 42.4213 276.385 41.128 273.669 42.68L93.2491 146.923C90.4037 148.475 88.9811 152.484 90.0157 155.717L130.238 286.344C131.144 289.577 134.248 290.871 137.093 289.319Z" fill="#093138"/>
<path opacity="0.5" d="M146.793 249.355L269.013 178.868C270.953 177.704 271.988 175.117 271.212 172.789L243.535 83.0319C242.888 80.8332 240.689 79.9279 238.879 80.9626L116.659 151.449C114.719 152.613 113.684 155.2 114.46 157.528L142.137 247.285C142.655 249.613 144.853 250.519 146.793 249.355Z" fill="#093138"/>
<path d="M163.219 251.553L285.439 180.937C287.379 179.773 288.413 177.187 287.637 174.859L259.96 85.1012C259.313 82.9026 257.115 81.9972 255.304 83.0319L133.084 153.519C131.144 154.683 130.109 157.269 130.885 159.597L158.563 249.355C159.209 251.683 161.279 252.588 163.219 251.553Z" fill="url(#paint9_radial_521_4870)"/>
<g opacity="0.5">
<path d="M163.219 251.553L285.439 180.937C287.379 179.773 288.413 177.187 287.637 174.859L259.96 85.1012C259.313 82.9026 257.115 81.9972 255.304 83.0319L133.084 153.519C131.144 154.683 130.109 157.269 130.885 159.597L158.563 249.355C159.209 251.683 161.279 252.588 163.219 251.553Z" fill="#093138"/>
</g>
<path d="M133.213 153.777L255.433 83.2906C256.597 82.644 257.891 82.6439 258.925 83.4199C258.408 83.4199 257.761 83.5493 257.115 83.808L134.895 154.295C132.955 155.459 131.92 158.045 132.696 160.373L160.373 250.131C160.632 250.907 161.02 251.553 161.667 252.071C160.373 252.071 159.209 251.165 158.692 249.613L131.015 159.856C130.239 157.528 131.273 154.812 133.213 153.777Z" fill="white"/>
<path opacity="0.4" d="M317.384 324.756C319.065 324.756 320.617 324.368 321.91 323.721L370.798 295.397C372.092 294.621 372.868 293.587 372.868 292.423C372.868 291 371.833 289.707 370.152 288.672L344.932 274.187C341.828 272.376 337.301 272.247 334.585 273.799L285.697 301.993C284.404 302.769 283.628 303.804 283.628 304.968C283.628 306.391 284.662 307.684 286.344 308.719L311.564 323.204C313.245 324.239 315.314 324.756 317.384 324.756ZM339.112 274.057C340.922 274.057 342.733 274.445 344.156 275.351L369.376 289.836C370.669 290.612 371.316 291.517 371.316 292.293C371.316 293.199 370.669 293.716 370.022 294.104L321.134 322.428C318.936 323.721 314.797 323.592 312.21 322.04L286.99 307.555C285.697 306.779 285.05 305.873 285.05 305.097C285.05 304.192 285.697 303.675 286.344 303.287L335.232 275.092C336.396 274.445 337.689 274.057 339.112 274.057Z" fill="#093138"/>
<path d="M225.557 130.239L233.058 125.842C233.705 125.454 234.093 124.419 233.835 123.643C233.576 122.867 232.8 122.479 232.153 122.996L224.652 127.394C224.005 127.782 223.617 128.816 223.876 129.592C224.134 130.368 224.911 130.627 225.557 130.239Z" fill="white"/>
<path d="M207.58 140.715L218.703 134.248C219.349 133.86 219.737 132.826 219.479 132.05C219.22 131.274 218.444 130.886 217.797 131.403L206.675 137.87C206.028 138.258 205.64 139.292 205.899 140.068C206.157 140.715 206.933 141.103 207.58 140.715Z" fill="white"/>
<path d="M240.818 163.866L248.32 159.468C248.966 159.08 249.354 158.046 249.096 157.27C248.837 156.494 248.061 156.106 247.414 156.623L239.913 161.02C239.266 161.408 238.878 162.443 239.137 163.219C239.396 163.995 240.042 164.254 240.818 163.866Z" fill="white"/>
<path d="M224.781 173.178L235.904 166.711C236.55 166.323 236.938 165.288 236.68 164.512C236.421 163.736 235.645 163.348 234.998 163.866L223.876 170.332C223.229 170.72 222.841 171.755 223.1 172.531C223.358 173.307 224.005 173.566 224.781 173.178Z" fill="white"/>
<path d="M248.191 124.29L252.847 121.574C253.493 121.186 253.881 120.151 253.623 119.375C253.364 118.599 252.588 118.211 251.941 118.728L247.285 121.444C246.639 121.832 246.251 122.867 246.509 123.643C246.768 124.419 247.544 124.678 248.191 124.29Z" fill="white"/>
<path d="M233.964 139.551L248.32 131.274C248.966 130.886 249.354 129.851 249.096 129.075C248.837 128.299 248.061 127.911 247.414 128.428L233.058 136.706C232.412 137.094 232.024 138.128 232.282 138.904C232.541 139.68 233.317 139.939 233.964 139.551Z" fill="white"/>
<path d="M247.285 146.018L251.941 143.302C252.588 142.914 252.976 141.879 252.717 141.103C252.459 140.327 251.683 139.939 251.036 140.456L246.38 143.172C245.733 143.56 245.345 144.595 245.604 145.371C245.863 146.147 246.639 146.406 247.285 146.018Z" fill="white"/>
<path d="M222.971 188.31L235.516 181.067C236.163 180.679 236.551 179.644 236.292 178.868C236.033 178.092 235.257 177.704 234.611 178.222L222.065 185.464C221.419 185.852 221.031 186.887 221.289 187.663C221.548 188.439 222.324 188.698 222.971 188.31Z" fill="white"/>
<path d="M252.588 157.14L255.562 155.33C256.209 154.942 256.597 153.907 256.338 153.131C256.08 152.355 255.304 151.967 254.657 152.484L251.682 154.295C251.036 154.683 250.648 155.718 250.906 156.494C251.165 157.14 251.812 157.528 252.588 157.14Z" fill="white"/>
<path d="M255.433 169.556L259.184 167.358C259.831 166.97 260.219 165.935 259.96 165.159C259.701 164.383 258.925 163.995 258.279 164.512L254.528 166.711C253.881 167.099 253.493 168.134 253.752 168.91C254.011 169.686 254.787 169.944 255.433 169.556Z" fill="white"/>
<path d="M240.819 178.092L250.777 172.402C251.424 172.014 251.812 170.979 251.553 170.203C251.295 169.427 250.519 169.039 249.872 169.556L239.913 175.247C239.267 175.635 238.879 176.67 239.137 177.446C239.396 178.092 240.172 178.48 240.819 178.092Z" fill="white"/>
<path d="M253.881 177.575L260.995 173.436C261.641 173.048 262.029 172.014 261.771 171.238C261.512 170.462 260.736 170.074 260.089 170.591L252.976 174.73C252.329 175.118 251.941 176.152 252.2 176.928C252.459 177.704 253.235 177.963 253.881 177.575Z" fill="white"/>
<path d="M212.236 194.647L216.763 192.06C217.409 191.672 217.797 190.638 217.539 189.862C217.28 189.086 216.504 188.698 215.857 189.215L211.331 191.802C210.684 192.19 210.296 193.224 210.555 194C210.684 194.647 211.46 195.035 212.236 194.647Z" fill="white"/>
<path d="M229.696 156.106L242.241 148.863C242.888 148.475 243.276 147.44 243.017 146.664C242.758 145.888 241.982 145.5 241.336 146.018L228.79 153.26C228.144 153.648 227.756 154.683 228.014 155.459C228.273 156.235 229.049 156.623 229.696 156.106Z" fill="white"/>
<path d="M228.273 149.898L250.26 137.223C250.906 136.835 251.294 135.8 251.036 135.024C250.777 134.248 250.001 133.86 249.354 134.378L227.368 147.052C226.721 147.44 226.333 148.475 226.592 149.251C226.721 150.027 227.497 150.415 228.273 149.898Z" fill="#05FF00"/>
<path d="M241.207 156.623L253.752 149.38C254.399 148.992 254.787 147.958 254.528 147.182C254.269 146.406 253.493 146.018 252.847 146.535L240.301 153.778C239.655 154.166 239.267 155.2 239.525 155.976C239.784 156.752 240.56 157.011 241.207 156.623Z" fill="#05FF00"/>
<path d="M220.125 161.667L224.652 159.08C225.298 158.692 225.686 157.658 225.428 156.882C225.169 156.106 224.393 155.718 223.746 156.235L219.22 158.822C218.573 159.21 218.185 160.244 218.444 161.02C218.702 161.796 219.478 162.055 220.125 161.667Z" fill="#05FF00"/>
<path d="M173.565 160.244L200.725 144.595C201.372 144.207 201.76 143.172 201.501 142.396C201.242 141.62 200.466 141.232 199.82 141.75L172.66 157.399C172.013 157.787 171.625 158.822 171.884 159.598C172.142 160.374 172.918 160.632 173.565 160.244Z" fill="#05FF00"/>
<path d="M242.241 170.203L257.373 161.408C258.02 161.02 258.408 159.986 258.149 159.21C257.89 158.434 257.114 158.046 256.468 158.563L241.336 167.358C240.689 167.746 240.301 168.78 240.56 169.556C240.818 170.203 241.594 170.591 242.241 170.203Z" fill="#05FF00"/>
<path d="M239.913 121.962L251.036 115.495C251.683 115.107 252.071 114.072 251.812 113.296C251.553 112.52 250.777 112.132 250.131 112.65L239.008 119.116C238.361 119.504 237.973 120.539 238.232 121.315C238.491 122.091 239.267 122.35 239.913 121.962Z" fill="#05FF00"/>
<path d="M256.209 183.266L269.142 175.764C269.789 175.376 270.177 174.342 269.918 173.566C269.66 172.79 268.884 172.402 268.237 172.919L255.304 180.42C254.657 180.808 254.269 181.843 254.528 182.619C254.786 183.395 255.562 183.654 256.209 183.266Z" fill="#05FF00"/>
<path d="M170.591 146.276L176.152 143.043C176.669 142.784 176.928 142.008 176.799 141.491C176.669 140.974 176.023 140.715 175.505 140.974L169.944 144.207C169.427 144.466 169.168 145.242 169.297 145.759C169.556 146.406 170.073 146.664 170.591 146.276Z" fill="white"/>
<path d="M159.985 152.355L165.546 149.121C166.064 148.863 166.322 148.087 166.193 147.57C166.064 147.052 165.417 146.793 164.9 147.052L159.338 150.285C158.821 150.544 158.562 151.32 158.692 151.837C158.95 152.484 159.468 152.743 159.985 152.355Z" fill="white"/>
<path d="M149.509 158.563L155.07 155.33C155.588 155.071 155.846 154.295 155.717 153.777C155.588 153.26 154.941 153.002 154.424 153.26L148.862 156.494C148.345 156.752 148.086 157.528 148.216 158.045C148.474 158.563 148.992 158.822 149.509 158.563Z" fill="white"/>
<path d="M144.336 161.538L144.465 161.408C144.983 161.15 145.241 160.374 145.112 159.856C144.983 159.339 144.336 159.08 143.819 159.339L143.689 159.468C143.172 159.727 142.913 160.503 143.043 161.02C143.301 161.538 143.819 161.796 144.336 161.538Z" fill="#05FF00"/>
<path opacity="0.6" d="M411.539 208.485C421.497 214.176 437.535 214.176 447.493 208.485C457.452 202.795 457.452 193.483 447.493 187.792C437.535 182.101 421.497 182.101 411.539 187.792C401.58 193.483 401.58 202.795 411.539 208.485Z" fill="black"/>
<path d="M391.751 93.6372H464.048L457.323 172.013C457.323 176.411 454.477 180.679 448.657 184.041C437.147 190.637 418.523 190.637 407.012 184.041C401.321 180.679 398.347 176.411 398.347 172.013L391.751 93.6372Z" fill="url(#paint10_radial_521_4870)"/>
<path opacity="0.4" d="M391.751 93.6372H464.048L462.884 106.571C461.203 108.64 459.004 110.709 456.159 112.649C442.32 121.832 419.557 123.643 403.908 117.047L406.365 174.341C406.495 176.799 407.271 179.256 408.952 181.196C411.28 183.912 415.807 187.145 424.472 189.085C418.135 188.697 411.927 187.016 407.012 184.171C401.321 180.808 398.347 176.54 398.347 172.143L392.915 109.287L391.751 93.6372Z" fill="#093138"/>
<path opacity="0.4" d="M427.964 114.46C407.964 114.46 391.751 105.137 391.751 93.6372C391.751 82.1372 407.964 72.8146 427.964 72.8146C447.964 72.8146 464.177 82.1372 464.177 93.6372C464.177 105.137 447.964 114.46 427.964 114.46Z" fill="#093138"/>
<path opacity="0.4" d="M427.964 104.243C410.75 104.243 396.795 96.1938 396.795 86.2652C396.795 76.3366 410.75 68.2878 427.964 68.2878C445.178 68.2878 459.133 76.3366 459.133 86.2652C459.133 96.1938 445.178 104.243 427.964 104.243Z" fill="#093138"/>
<path d="M389.681 92.6026C389.681 92.4733 389.681 92.4733 389.681 92.4733L390.328 85.4893V85.6186C390.587 80.3159 394.337 75.0133 401.321 71.0039C416.065 62.4679 439.863 62.4679 454.477 71.0039C461.72 75.1426 465.341 80.5746 465.471 86.0066L466.117 92.2146C466.117 92.3439 466.117 92.6026 466.117 92.7319V92.8613C466.505 98.8106 462.755 104.889 454.865 109.416C439.863 118.081 415.548 118.081 400.675 109.416C392.915 104.631 389.164 98.5519 389.681 92.6026Z" fill="url(#paint11_linear_521_4870)"/>
<path d="M427.964 104.243C410.75 104.243 396.795 96.1938 396.795 86.2652C396.795 76.3366 410.75 68.2878 427.964 68.2878C445.178 68.2878 459.133 76.3366 459.133 86.2652C459.133 96.1938 445.178 104.243 427.964 104.243Z" fill="url(#paint12_linear_521_4870)"/>
<path d="M429.387 104.243C412.172 104.243 398.217 96.1938 398.217 86.2652C398.217 76.3366 412.172 68.2878 429.387 68.2878C446.601 68.2878 460.556 76.3366 460.556 86.2652C460.556 96.1938 446.601 104.243 429.387 104.243Z" fill="url(#paint13_linear_521_4870)"/>
<path opacity="0.4" d="M446.329 76.1773C434.172 69.1933 414.384 69.1933 402.227 76.1773C402.097 76.3066 401.968 76.3066 401.839 76.4359C403.003 75.4013 404.425 74.3666 405.977 73.4613C418.135 66.4773 437.923 66.4773 450.08 73.4613C462.108 80.4453 462.238 91.5679 450.468 98.6813C458.228 91.6973 456.935 82.2559 446.329 76.1773Z" fill="#093138"/>
<path d="M449.951 76.5653C437.793 69.5813 418.005 69.5813 405.848 76.5653C400.416 79.6693 397.441 83.6786 396.795 87.6879C396.019 82.5146 398.993 77.3413 405.848 73.4613C418.005 66.4773 437.793 66.4773 449.951 73.4613C456.676 77.3413 459.78 82.6439 459.004 87.6879C458.357 83.6786 455.383 79.7986 449.951 76.5653Z" fill="url(#paint14_linear_521_4870)"/>
<path d="M401.192 71.0039C415.806 62.3386 439.733 62.2092 454.606 70.4866C469.48 78.8932 469.48 92.7319 454.865 101.268C440.25 109.933 416.324 110.063 401.45 101.785C386.577 93.5079 386.448 79.6692 401.192 71.0039ZM405.977 98.9399C409.986 101.268 414.901 102.82 420.204 103.596L420.721 101.785C420.98 101.009 421.626 100.492 422.402 100.492H433.654C434.43 100.492 435.077 101.009 435.336 101.785L435.853 103.596C441.026 102.82 445.941 101.268 450.08 98.9399C462.237 91.9559 462.237 80.5746 450.08 73.4612C437.922 66.4772 418.134 66.4772 405.977 73.4612C393.82 80.5746 393.82 91.9559 405.977 98.9399Z" fill="url(#paint15_radial_521_4870)"/>
<path d="M405.977 72.1679C418.134 65.1839 437.922 65.1839 450.08 72.1679C456.417 75.7893 459.521 80.7039 459.133 85.4893C458.874 81.0919 455.77 76.8239 450.08 73.4613C437.922 66.4773 418.134 66.4773 405.977 73.4613C400.157 76.8239 397.182 81.0919 396.924 85.4893C396.536 80.7039 399.51 75.9186 405.977 72.1679Z" fill="white"/>
<path d="M401.451 100.492C416.324 108.899 440.121 108.64 454.865 99.9746C461.849 95.8359 465.471 90.5333 465.729 85.2306C465.988 90.9213 462.367 96.8706 454.865 101.268C440.251 109.933 416.324 110.063 401.451 101.785C393.691 97.3879 389.94 91.5679 390.328 85.6186C390.457 91.1799 394.208 96.4826 401.451 100.492Z" fill="white"/>
<path d="M424.601 104.631H431.327C431.844 104.631 432.232 104.243 432.232 103.725V103.596C432.232 103.079 431.844 102.691 431.327 102.691H424.601C424.084 102.691 423.696 103.079 423.696 103.596V103.725C423.825 104.243 424.213 104.631 424.601 104.631Z" fill="#00C2FF"/>
<path d="M424.601 102.82H431.327C431.844 102.82 432.232 103.208 432.232 103.725V103.854C432.232 103.984 432.232 103.984 432.232 104.113C432.103 103.725 431.844 103.466 431.456 103.466H424.731C424.343 103.466 424.084 103.725 423.955 104.113C423.955 103.984 423.955 103.984 423.955 103.854V103.725C423.825 103.208 424.213 102.82 424.601 102.82Z" fill="url(#paint16_linear_521_4870)"/>
<g opacity="0.4">
<path d="M426.929 163.865C427.705 166.969 430.938 168.78 434.042 168.004C437.146 167.228 438.957 163.995 438.181 160.891C437.405 157.787 434.43 156.881 431.326 157.787C428.222 158.563 426.153 160.761 426.929 163.865Z" fill="#093138"/>
<path d="M422.403 157.787C423.567 158.951 425.119 158.821 426.024 157.787C427.059 156.752 427.188 155.329 426.024 154.165C424.86 153.001 422.661 152.484 421.627 153.519C420.592 154.424 421.239 156.623 422.403 157.787Z" fill="#093138"/>
<path d="M428.481 153.001C428.74 154.553 430.033 155.329 431.456 155.071C432.879 154.812 433.784 153.648 433.525 152.096C433.267 150.544 431.715 148.733 430.421 148.992C428.999 149.251 428.093 151.32 428.481 153.001Z" fill="#093138"/>
<path d="M435.853 152.225C435.207 153.777 435.983 155.071 437.276 155.588C438.569 156.105 439.992 155.717 440.639 154.165C441.285 152.613 440.897 150.415 439.604 149.897C438.311 149.38 436.5 150.673 435.853 152.225Z" fill="#093138"/>
</g>
<path opacity="0.5" d="M427.511 99.9153C427.511 99.9153 408.416 93.5505 416.127 71.5186C423.839 49.4867 438.894 42.7547 432.896 25.1292C432.896 25.1292 442.443 39.3275 433.508 58.6666C424.573 77.8834 422.615 75.6802 422.737 84.9825C422.859 95.8761 431.672 99.9153 431.672 99.9153H427.511Z" fill="url(#paint17_linear_521_4870)"/>
<defs>
<linearGradient id="paint0_linear_521_4870" x1="42.1626" y1="348.286" x2="-7.62939e-05" y2="348.286" gradientUnits="userSpaceOnUse">
<stop stop-color="#00C2FF"/>
<stop offset="1" stop-color="#00FF0A"/>
</linearGradient>
<linearGradient id="paint1_linear_521_4870" x1="99.9746" y1="290.383" x2="29.2293" y2="290.383" gradientUnits="userSpaceOnUse">
<stop stop-color="#00C2FF"/>
<stop offset="1" stop-color="#00FF0A"/>
</linearGradient>
<linearGradient id="paint2_linear_521_4870" x1="478.921" y1="197.305" x2="379.593" y2="197.305" gradientUnits="userSpaceOnUse">
<stop stop-color="#00C2FF"/>
<stop offset="1" stop-color="#00FF0A"/>
</linearGradient>
<linearGradient id="paint3_linear_521_4870" x1="484.741" y1="308.537" x2="106.571" y2="308.537" gradientUnits="userSpaceOnUse">
<stop stop-color="#00C2FF"/>
<stop offset="1" stop-color="#00FF0A"/>
</linearGradient>
<radialGradient id="paint4_radial_521_4870" cx="0" cy="0" r="1" gradientUnits="userSpaceOnUse" gradientTransform="translate(275.809 29.8852) rotate(180) scale(288.796 288.796)">
<stop stop-color="#05FF00"/>
<stop offset="0.4742" stop-color="#00FF7F"/>
<stop offset="0.4769" stop-color="#00FE80"/>
<stop offset="0.6595" stop-color="#00D3DB"/>
<stop offset="0.7421" stop-color="#00C2FF"/>
<stop offset="0.8016" stop-color="#00C2FF"/>
</radialGradient>
<radialGradient id="paint5_radial_521_4870" cx="0" cy="0" r="1" gradientUnits="userSpaceOnUse" gradientTransform="translate(452.443 261.81) rotate(180) scale(315.796 315.796)">
<stop stop-color="#05FF00"/>
<stop offset="0.4742" stop-color="#00FF7F"/>
<stop offset="0.4763" stop-color="#00FE80"/>
<stop offset="0.6184" stop-color="#00D3DB"/>
<stop offset="0.6825" stop-color="#00C2FF"/>
<stop offset="0.7381" stop-color="#00C2FF"/>
</radialGradient>
<radialGradient id="paint6_radial_521_4870" cx="0" cy="0" r="1" gradientUnits="userSpaceOnUse" gradientTransform="translate(423.398 198.424) rotate(180) scale(283.188 283.188)">
<stop stop-color="#05FF00"/>
<stop offset="0.4742" stop-color="#00FF7F"/>
<stop offset="0.4767" stop-color="#00FE80"/>
<stop offset="0.6486" stop-color="#00D3DB"/>
<stop offset="0.7262" stop-color="#00C2FF"/>
<stop offset="1" stop-color="#00C2FF"/>
</radialGradient>
<radialGradient id="paint7_radial_521_4870" cx="0" cy="0" r="1" gradientUnits="userSpaceOnUse" gradientTransform="translate(352.85 90.1255) rotate(180) scale(288.854 288.854)">
<stop stop-color="#05FF00"/>
<stop offset="0.4742" stop-color="#00FF7F"/>
<stop offset="0.4767" stop-color="#00FE80"/>
<stop offset="0.6486" stop-color="#00D3DB"/>
<stop offset="0.7262" stop-color="#00C2FF"/>
<stop offset="1" stop-color="#00C2FF"/>
</radialGradient>
<linearGradient id="paint8_linear_521_4870" x1="321.101" y1="165.95" x2="89.6381" y2="165.95" gradientUnits="userSpaceOnUse">
<stop stop-color="#00C2FF"/>
<stop offset="1" stop-color="#00C2FF"/>
</linearGradient>
<radialGradient id="paint9_radial_521_4870" cx="0" cy="0" r="1" gradientUnits="userSpaceOnUse" gradientTransform="translate(458.298 28.4421) rotate(180) scale(449.883 449.883)">
<stop stop-color="#05FF00"/>
<stop offset="0.4742" stop-color="#00FF7F"/>
<stop offset="0.4767" stop-color="#00FE80"/>
<stop offset="0.6486" stop-color="#00D3DB"/>
<stop offset="0.7262" stop-color="#00C2FF"/>
<stop offset="1" stop-color="#00C2FF"/>
</radialGradient>
<radialGradient id="paint10_radial_521_4870" cx="0" cy="0" r="1" gradientUnits="userSpaceOnUse" gradientTransform="translate(470.106 116.617) rotate(180) scale(213.851 213.851)">
<stop stop-color="#05FF00"/>
<stop offset="0.1528" stop-color="#00FF7F"/>
<stop offset="0.4087" stop-color="#00C2FF"/>
<stop offset="0.9311" stop-color="#00C2FF"/>
</radialGradient>
<linearGradient id="paint11_linear_521_4870" x1="466.321" y1="90.1253" x2="389.614" y2="90.1253" gradientUnits="userSpaceOnUse">
<stop stop-color="#05FF00"/>
<stop offset="0.252" stop-color="#00FF7F"/>
<stop offset="0.5556" stop-color="#00C2FF"/>
</linearGradient>
<linearGradient id="paint12_linear_521_4870" x1="459.128" y1="86.2277" x2="396.81" y2="86.2277" gradientUnits="userSpaceOnUse">
<stop stop-color="#00C2FF"/>
<stop offset="1" stop-color="#00FF7F"/>
</linearGradient>
<linearGradient id="paint13_linear_521_4870" x1="460.607" y1="86.2277" x2="398.289" y2="86.2277" gradientUnits="userSpaceOnUse">
<stop stop-color="#00C2FF"/>
<stop offset="1" stop-color="#00FF7F"/>
</linearGradient>
<linearGradient id="paint14_linear_521_4870" x1="459.123" y1="78.0138" x2="380.55" y2="78.0138" gradientUnits="userSpaceOnUse">
<stop stop-color="#00C2FF"/>
<stop offset="0.1889" stop-color="#00C0FD"/>
<stop offset="0.2872" stop-color="#01BBF5"/>
<stop offset="0.3646" stop-color="#02B2E7"/>
<stop offset="0.4312" stop-color="#04A4D4"/>
<stop offset="0.4907" stop-color="#0793BC"/>
<stop offset="0.5452" stop-color="#0A7E9D"/>
<stop offset="0.5949" stop-color="#0D657A"/>
<stop offset="0.6071" stop-color="#0E5E70"/>
<stop offset="0.6228" stop-color="#0D6A67"/>
<stop offset="0.6867" stop-color="#0B9748"/>
<stop offset="0.751" stop-color="#09BD2E"/>
<stop offset="0.8147" stop-color="#07DA1A"/>
<stop offset="0.8778" stop-color="#06EE0C"/>
<stop offset="0.9399" stop-color="#05FB03"/>
<stop offset="1" stop-color="#05FF00"/>
</linearGradient>
<radialGradient id="paint15_radial_521_4870" cx="0" cy="0" r="1" gradientUnits="userSpaceOnUse" gradientTransform="translate(475.895 68.423) rotate(180) scale(139.893 139.893)">
<stop stop-color="#05FF00"/>
<stop offset="0.252" stop-color="#00FF7F"/>
<stop offset="0.7357" stop-color="#00C2FF"/>
</radialGradient>
<linearGradient id="paint16_linear_521_4870" x1="432.901" y1="103.372" x2="422.031" y2="103.372" gradientUnits="userSpaceOnUse">
<stop stop-color="#00C2FF"/>
<stop offset="0.1889" stop-color="#00C0FD"/>
<stop offset="0.2872" stop-color="#01BBF5"/>
<stop offset="0.3646" stop-color="#02B2E7"/>
<stop offset="0.4312" stop-color="#04A4D4"/>
<stop offset="0.4907" stop-color="#0793BC"/>
<stop offset="0.5452" stop-color="#0A7E9D"/>
<stop offset="0.5949" stop-color="#0D657A"/>
<stop offset="0.6071" stop-color="#0E5E70"/>
<stop offset="0.6228" stop-color="#0D6A67"/>
<stop offset="0.6867" stop-color="#0B9748"/>
<stop offset="0.751" stop-color="#09BD2E"/>
<stop offset="0.8147" stop-color="#07DA1A"/>
<stop offset="0.8778" stop-color="#06EE0C"/>
<stop offset="0.9399" stop-color="#05FB03"/>
<stop offset="1" stop-color="#05FF00"/>
</linearGradient>
<linearGradient id="paint17_linear_521_4870" x1="420.53" y1="30.3975" x2="422.449" y2="100.215" gradientUnits="userSpaceOnUse">
<stop stop-color="white" stop-opacity="0"/>
<stop offset="0.841667" stop-color="white"/>
</linearGradient>
</defs>
</svg>
