<svg width="1932" height="87" viewBox="0 0 1932 87" fill="none" xmlns="http://www.w3.org/2000/svg" xmlns:xlink="http://www.w3.org/1999/xlink">
<style>.Rectangle_21_249 {
	animation: 2s linear 0s 1 normal forwards running Rectangle_21_249;
		opacity: 1;
}
@keyframes Rectangle_21_249 {
	0% {
		opacity: 1;
	}
	50% {
		opacity: 0;
	}
	100% {
		opacity: 1;
	}
}.Frame_66_319 {
	animation: 2s linear 0s 1 normal forwards running Frame_66_319;
		transform: translateX(0px) translateY(33.16px);
}
@keyframes Frame_66_319 {
	0% {
		transform: translateX(0px) translateY(33.16px);
	}
	100% {
		transform: translateX(-602.5px) translateY(33.16px);
	}
}
</style>
<g clip-path="url(#clip_0_782)" width="1932" height="87" data-name="▶ Frame 86">
	<rect width="1932" height="87" fill="url(#paint_linear___49)" data-name="Rectangle 20"/>
	<rect width="1932" height="87" fill="url(#paint_linear___48)" data-name="Rectangle 21" class="Rectangle_21_249"/>
	<g transform="translate(0 33.16)" class="Frame_66_319" width="2693" height="20" data-name="Frame 66">
		<g data-name="TRIPLIQUE SEU SALÁRIO">
		<path d="M8.376 19H5.304V4.456H0.384V1.864H13.296V4.456H8.376V19ZM20.7915 1.864C22.2955 1.864 23.5355 2.048 24.5115 2.416C25.4875 2.784 26.2155 3.344 26.6955 4.096C27.1755 4.832 27.4155 5.768 27.4155 6.904C27.4155 7.736 27.2555 8.448 26.9355 9.04C26.6315 9.632 26.2315 10.128 25.7355 10.528C25.2395 10.912 24.7035 11.224 24.1275 11.464L29.0475 19H25.5915L21.4875 12.232H18.9915V19H15.9195V1.864H20.7915ZM20.5995 4.432H18.9915V9.712H20.6955C21.5435 9.712 22.2315 9.608 22.7595 9.4C23.2875 9.192 23.6715 8.888 23.9115 8.488C24.1675 8.088 24.2955 7.592 24.2955 7C24.2955 6.376 24.1595 5.88 23.8875 5.512C23.6155 5.128 23.2075 4.856 22.6635 4.696C22.1355 4.52 21.4475 4.432 20.5995 4.432ZM37.2431 19H30.0431V17.248L32.1071 16.48V4.408L30.0431 3.616V1.864H37.2431V3.616L35.1791 4.408V16.48L37.2431 17.248V19ZM45.4299 1.864C47.6539 1.864 49.2699 2.328 50.2779 3.256C51.3019 4.184 51.8139 5.464 51.8139 7.096C51.8139 7.832 51.7019 8.536 51.4779 9.208C51.2539 9.864 50.8779 10.456 50.3499 10.984C49.8219 11.512 49.1259 11.928 48.2619 12.232C47.4139 12.536 46.3579 12.688 45.0939 12.688H43.3899V19H40.3179V1.864H45.4299ZM45.2379 4.408H43.3899V10.144H44.7819C45.6139 10.144 46.3179 10.048 46.8939 9.856C47.4859 9.648 47.9339 9.328 48.2379 8.896C48.5419 8.464 48.6939 7.904 48.6939 7.216C48.6939 6.272 48.4139 5.568 47.8539 5.104C47.2939 4.64 46.4219 4.408 45.2379 4.408ZM55.1773 19V1.864H58.2493V16.408H65.4013V19H55.1773ZM74.1806 19H66.9806V17.248L69.0446 16.48V4.408L66.9806 3.616V1.864H74.1806V3.616L72.1166 4.408V16.48L74.1806 17.248V19ZM92.5674 10.408C92.5674 11.736 92.3994 12.944 92.0634 14.032C91.7434 15.104 91.2474 16.032 90.5754 16.816C89.9194 17.6 89.0794 18.192 88.0554 18.592L92.1834 23.08H88.1034L84.9114 19.24C84.8474 19.24 84.7754 19.24 84.6954 19.24C84.6314 19.24 84.5674 19.24 84.5034 19.24C83.1274 19.24 81.9274 19.032 80.9034 18.616C79.8954 18.184 79.0634 17.584 78.4074 16.816C77.7514 16.032 77.2554 15.096 76.9194 14.008C76.5994 12.92 76.4394 11.712 76.4394 10.384C76.4394 8.608 76.7274 7.064 77.3034 5.752C77.8954 4.44 78.7834 3.424 79.9674 2.704C81.1674 1.968 82.6874 1.6 84.5274 1.6C86.3354 1.6 87.8314 1.968 89.0154 2.704C90.1994 3.424 91.0874 4.448 91.6794 5.776C92.2714 7.088 92.5674 8.632 92.5674 10.408ZM79.6794 10.408C79.6794 11.704 79.8474 12.816 80.1834 13.744C80.5354 14.672 81.0634 15.384 81.7674 15.88C82.4874 16.376 83.3994 16.624 84.5034 16.624C85.6394 16.624 86.5594 16.376 87.2634 15.88C87.9674 15.384 88.4874 14.672 88.8234 13.744C89.1594 12.816 89.3274 11.704 89.3274 10.408C89.3274 8.472 88.9514 6.952 88.1994 5.848C87.4474 4.744 86.2234 4.192 84.5274 4.192C83.4074 4.192 82.4874 4.44 81.7674 4.936C81.0634 5.432 80.5354 6.144 80.1834 7.072C79.8474 8 79.6794 9.112 79.6794 10.408ZM109.8 12.952C109.8 14.136 109.544 15.208 109.032 16.168C108.536 17.112 107.776 17.864 106.752 18.424C105.728 18.968 104.432 19.24 102.864 19.24C100.64 19.24 98.9524 18.664 97.8004 17.512C96.6484 16.344 96.0724 14.808 96.0724 12.904V1.864H99.1444V12.592C99.1444 13.984 99.4644 15.008 100.104 15.664C100.744 16.304 101.696 16.624 102.96 16.624C103.856 16.624 104.576 16.472 105.12 16.168C105.68 15.864 106.088 15.408 106.344 14.8C106.616 14.176 106.752 13.432 106.752 12.568V1.864H109.8V12.952ZM123.89 19H114.146V1.864H123.89V4.432H117.218V8.8H123.458V11.368H117.218V16.408H123.89V19ZM143.723 14.32C143.723 15.328 143.475 16.2 142.979 16.936C142.483 17.672 141.763 18.24 140.819 18.64C139.891 19.04 138.779 19.24 137.483 19.24C136.859 19.24 136.259 19.2 135.683 19.12C135.123 19.056 134.587 18.952 134.075 18.808C133.579 18.664 133.115 18.488 132.683 18.28V15.4C133.403 15.72 134.195 16.016 135.059 16.288C135.923 16.544 136.803 16.672 137.699 16.672C138.387 16.672 138.947 16.584 139.379 16.408C139.827 16.216 140.155 15.96 140.363 15.64C140.571 15.304 140.675 14.92 140.675 14.488C140.675 14.008 140.539 13.6 140.267 13.264C139.995 12.928 139.595 12.616 139.067 12.328C138.539 12.04 137.883 11.736 137.099 11.416C136.571 11.192 136.051 10.944 135.539 10.672C135.043 10.384 134.595 10.04 134.195 9.64C133.795 9.24 133.475 8.768 133.235 8.224C132.995 7.68 132.875 7.04 132.875 6.304C132.875 5.328 133.107 4.488 133.571 3.784C134.051 3.08 134.715 2.544 135.563 2.176C136.427 1.808 137.427 1.624 138.563 1.624C139.475 1.624 140.331 1.72 141.131 1.912C141.931 2.104 142.723 2.376 143.507 2.728L142.523 5.2C141.819 4.896 141.139 4.656 140.483 4.48C139.827 4.304 139.155 4.216 138.467 4.216C137.923 4.216 137.459 4.304 137.075 4.48C136.691 4.64 136.403 4.872 136.211 5.176C136.019 5.48 135.923 5.832 135.923 6.232C135.923 6.696 136.043 7.088 136.283 7.408C136.523 7.728 136.891 8.032 137.387 8.32C137.899 8.592 138.555 8.904 139.355 9.256C140.283 9.656 141.067 10.072 141.707 10.504C142.347 10.936 142.843 11.456 143.195 12.064C143.547 12.672 143.723 13.424 143.723 14.32ZM156.703 19H146.959V1.864H156.703V4.432H150.031V8.8H156.271V11.368H150.031V16.408H156.703V19ZM173.925 12.952C173.925 14.136 173.669 15.208 173.157 16.168C172.661 17.112 171.901 17.864 170.877 18.424C169.853 18.968 168.557 19.24 166.989 19.24C164.765 19.24 163.077 18.664 161.925 17.512C160.773 16.344 160.197 14.808 160.197 12.904V1.864H163.269V12.592C163.269 13.984 163.589 15.008 164.229 15.664C164.869 16.304 165.821 16.624 167.085 16.624C167.981 16.624 168.701 16.472 169.245 16.168C169.805 15.864 170.213 15.408 170.469 14.8C170.741 14.176 170.877 13.432 170.877 12.568V1.864H173.925V12.952ZM194.465 14.32C194.465 15.328 194.217 16.2 193.721 16.936C193.225 17.672 192.505 18.24 191.561 18.64C190.633 19.04 189.521 19.24 188.225 19.24C187.601 19.24 187.001 19.2 186.425 19.12C185.865 19.056 185.329 18.952 184.817 18.808C184.321 18.664 183.857 18.488 183.425 18.28V15.4C184.145 15.72 184.937 16.016 185.801 16.288C186.665 16.544 187.545 16.672 188.441 16.672C189.129 16.672 189.689 16.584 190.121 16.408C190.569 16.216 190.897 15.96 191.105 15.64C191.313 15.304 191.417 14.92 191.417 14.488C191.417 14.008 191.281 13.6 191.009 13.264C190.737 12.928 190.337 12.616 189.809 12.328C189.281 12.04 188.625 11.736 187.841 11.416C187.313 11.192 186.793 10.944 186.281 10.672C185.785 10.384 185.337 10.04 184.937 9.64C184.537 9.24 184.217 8.768 183.977 8.224C183.737 7.68 183.617 7.04 183.617 6.304C183.617 5.328 183.849 4.488 184.313 3.784C184.793 3.08 185.457 2.544 186.305 2.176C187.169 1.808 188.169 1.624 189.305 1.624C190.217 1.624 191.073 1.72 191.873 1.912C192.673 2.104 193.465 2.376 194.249 2.728L193.265 5.2C192.561 4.896 191.881 4.656 191.225 4.48C190.569 4.304 189.897 4.216 189.209 4.216C188.665 4.216 188.201 4.304 187.817 4.48C187.433 4.64 187.145 4.872 186.953 5.176C186.761 5.48 186.665 5.832 186.665 6.232C186.665 6.696 186.785 7.088 187.025 7.408C187.265 7.728 187.633 8.032 188.129 8.32C188.641 8.592 189.297 8.904 190.097 9.256C191.025 9.656 191.809 10.072 192.449 10.504C193.089 10.936 193.585 11.456 193.937 12.064C194.289 12.672 194.465 13.424 194.465 14.32ZM208.285 19L206.725 14.464H200.269L198.733 19H195.469L201.757 1.792H205.261L211.549 19H208.285ZM204.445 7.408C204.381 7.184 204.285 6.88 204.157 6.496C204.029 6.112 203.901 5.72 203.773 5.32C203.661 4.904 203.573 4.56 203.509 4.288C203.429 4.608 203.325 4.976 203.197 5.392C203.085 5.808 202.973 6.2 202.861 6.568C202.765 6.936 202.685 7.216 202.621 7.408L201.109 11.824H205.933L204.445 7.408ZM213.802 19V1.864H216.874V16.408H224.026V19H213.802ZM237.582 19L236.022 14.464H229.566L228.03 19H224.766L231.054 1.792H234.558L240.846 19H237.582ZM233.742 7.408C233.678 7.184 233.582 6.88 233.454 6.496C233.326 6.112 233.198 5.72 233.07 5.32C232.958 4.904 232.87 4.56 232.806 4.288C232.726 4.608 232.622 4.976 232.494 5.392C232.382 5.808 232.27 6.2 232.158 6.568C232.062 6.936 231.982 7.216 231.918 7.408L230.406 11.824H235.23L233.742 7.408ZM237.294 -3.272C237.102 -3.048 236.838 -2.776 236.502 -2.456C236.182 -2.136 235.822 -1.8 235.422 -1.448C235.038 -1.096 234.654 -0.760001 234.27 -0.440001C233.902 -0.136001 233.574 0.119999 233.286 0.327999H231.27V0.0159998C231.526 -0.288001 231.814 -0.640001 232.134 -1.04C232.454 -1.456 232.766 -1.88 233.07 -2.312C233.39 -2.76 233.646 -3.16 233.838 -3.512H237.294V-3.272ZM247.971 1.864C249.475 1.864 250.715 2.048 251.691 2.416C252.667 2.784 253.395 3.344 253.875 4.096C254.355 4.832 254.595 5.768 254.595 6.904C254.595 7.736 254.435 8.448 254.115 9.04C253.811 9.632 253.411 10.128 252.915 10.528C252.419 10.912 251.883 11.224 251.307 11.464L256.227 19H252.771L248.667 12.232H246.171V19H243.099V1.864H247.971ZM247.779 4.432H246.171V9.712H247.875C248.723 9.712 249.411 9.608 249.939 9.4C250.467 9.192 250.851 8.888 251.091 8.488C251.347 8.088 251.475 7.592 251.475 7C251.475 6.376 251.339 5.88 251.067 5.512C250.795 5.128 250.387 4.856 249.843 4.696C249.315 4.52 248.627 4.432 247.779 4.432ZM264.423 19H257.223V17.248L259.287 16.48V4.408L257.223 3.616V1.864H264.423V3.616L262.359 4.408V16.48L264.423 17.248V19ZM282.81 10.408C282.81 11.736 282.642 12.944 282.306 14.032C281.986 15.104 281.49 16.032 280.818 16.816C280.162 17.6 279.322 18.2 278.298 18.616C277.29 19.032 276.106 19.24 274.746 19.24C273.37 19.24 272.17 19.032 271.146 18.616C270.138 18.184 269.306 17.584 268.65 16.816C267.994 16.032 267.498 15.096 267.162 14.008C266.842 12.92 266.682 11.712 266.682 10.384C266.682 8.608 266.97 7.064 267.546 5.752C268.138 4.44 269.026 3.424 270.21 2.704C271.41 1.968 272.93 1.6 274.77 1.6C276.578 1.6 278.074 1.968 279.258 2.704C280.442 3.424 281.33 4.448 281.922 5.776C282.514 7.088 282.81 8.632 282.81 10.408ZM269.922 10.408C269.922 11.704 270.09 12.816 270.426 13.744C270.778 14.672 271.306 15.384 272.01 15.88C272.73 16.376 273.642 16.624 274.746 16.624C275.882 16.624 276.802 16.376 277.506 15.88C278.21 15.384 278.73 14.672 279.066 13.744C279.402 12.816 279.57 11.704 279.57 10.408C279.57 8.472 279.194 6.952 278.442 5.848C277.69 4.744 276.466 4.192 274.77 4.192C273.65 4.192 272.73 4.44 272.01 4.936C271.306 5.432 270.778 6.144 270.426 7.072C270.09 8 269.922 9.112 269.922 10.408Z" fill="#0D0F10" data-name="TRIPLIQUE SEU SALÁRIO"/>
		</g>
		<g data-name="TRIPLIQUE SEU SALÁRIO" transform="translate(305 0)">
		<path d="M7.752 19H5.592V3.76H0.24V1.864H13.08V3.76H7.752V19ZM20.3919 1.864C21.8159 1.864 22.9839 2.048 23.8959 2.416C24.8239 2.768 25.5119 3.304 25.9599 4.024C26.4079 4.744 26.6319 5.648 26.6319 6.736C26.6319 7.648 26.4639 8.408 26.1279 9.016C25.7919 9.624 25.3599 10.112 24.8319 10.48C24.3199 10.832 23.7759 11.112 23.1999 11.32L27.9039 19H25.3839L21.2319 11.92H17.8239V19H15.6639V1.864H20.3919ZM20.2719 3.736H17.8239V10.096H20.3919C21.3199 10.096 22.0799 9.976 22.6719 9.736C23.2639 9.48 23.6959 9.112 23.9679 8.632C24.2559 8.152 24.3999 7.552 24.3999 6.832C24.3999 6.08 24.2479 5.48 23.9439 5.032C23.6559 4.584 23.2079 4.256 22.5999 4.048C21.9919 3.84 21.2159 3.736 20.2719 3.736ZM35.4176 19H29.2256V17.752L31.2416 17.296V3.592L29.2256 3.112V1.864H35.4176V3.112L33.4016 3.592V17.296L35.4176 17.752V19ZM43.2624 1.864C45.5024 1.864 47.1344 2.304 48.1584 3.184C49.1824 4.064 49.6944 5.304 49.6944 6.904C49.6944 7.608 49.5744 8.288 49.3344 8.944C49.1104 9.584 48.7344 10.16 48.2064 10.672C47.6784 11.184 46.9744 11.592 46.0944 11.896C45.2144 12.184 44.1344 12.328 42.8544 12.328H40.8864V19H38.7264V1.864H43.2624ZM43.0704 3.712H40.8864V10.48H42.6144C43.7024 10.48 44.6064 10.368 45.3264 10.144C46.0464 9.904 46.5824 9.528 46.9344 9.016C47.2864 8.504 47.4624 7.832 47.4624 7C47.4624 5.896 47.1104 5.072 46.4064 4.528C45.7024 3.984 44.5904 3.712 43.0704 3.712ZM53.2577 19V1.864H55.4177V17.08H62.9057V19H53.2577ZM70.6676 19H64.4756V17.752L66.4916 17.296V3.592L64.4756 3.112V1.864H70.6676V3.112L68.6516 3.592V17.296L70.6676 17.752V19ZM88.9284 10.408C88.9284 11.8 88.7364 13.064 88.3524 14.2C87.9844 15.336 87.4324 16.296 86.6964 17.08C85.9604 17.864 85.0404 18.44 83.9364 18.808L88.0404 23.08H84.9444L81.6324 19.216C81.5364 19.216 81.4324 19.216 81.3204 19.216C81.2244 19.232 81.1284 19.24 81.0324 19.24C79.6884 19.24 78.5204 19.032 77.5284 18.616C76.5364 18.184 75.7124 17.584 75.0564 16.816C74.4004 16.032 73.9124 15.096 73.5924 14.008C73.2724 12.92 73.1124 11.712 73.1124 10.384C73.1124 8.624 73.4004 7.088 73.9764 5.776C74.5524 4.464 75.4244 3.44 76.5924 2.704C77.7764 1.968 79.2644 1.6 81.0564 1.6C82.7684 1.6 84.2084 1.968 85.3764 2.704C86.5444 3.424 87.4244 4.448 88.0164 5.776C88.6244 7.088 88.9284 8.632 88.9284 10.408ZM75.3924 10.408C75.3924 11.848 75.5924 13.088 75.9924 14.128C76.3924 15.168 77.0084 15.968 77.8404 16.528C78.6884 17.088 79.7524 17.368 81.0324 17.368C82.3284 17.368 83.3844 17.088 84.2004 16.528C85.0324 15.968 85.6484 15.168 86.0484 14.128C86.4484 13.088 86.6484 11.848 86.6484 10.408C86.6484 8.248 86.2004 6.56 85.3044 5.344C84.4084 4.112 82.9924 3.496 81.0564 3.496C79.7604 3.496 78.6884 3.776 77.8404 4.336C77.0084 4.88 76.3924 5.672 75.9924 6.712C75.5924 7.736 75.3924 8.968 75.3924 10.408ZM105.758 12.952C105.758 14.136 105.518 15.208 105.038 16.168C104.558 17.112 103.822 17.864 102.83 18.424C101.854 18.968 100.606 19.24 99.0864 19.24C96.9584 19.24 95.3344 18.664 94.2144 17.512C93.1104 16.344 92.5584 14.808 92.5584 12.904V1.864H94.7184V12.976C94.7184 14.368 95.0864 15.448 95.8224 16.216C96.5744 16.984 97.7024 17.368 99.2064 17.368C100.246 17.368 101.086 17.184 101.726 16.816C102.382 16.432 102.862 15.912 103.166 15.256C103.47 14.584 103.622 13.816 103.622 12.952V1.864H105.758V12.952ZM119.857 19H110.281V1.864H119.857V3.76H112.441V9.112H119.425V10.984H112.441V17.104H119.857V19ZM139.571 14.416C139.571 15.44 139.323 16.312 138.827 17.032C138.331 17.736 137.619 18.28 136.691 18.664C135.779 19.048 134.699 19.24 133.451 19.24C132.811 19.24 132.195 19.208 131.603 19.144C131.027 19.08 130.499 18.992 130.019 18.88C129.539 18.752 129.115 18.6 128.747 18.424V16.36C129.323 16.616 130.035 16.848 130.883 17.056C131.747 17.264 132.635 17.368 133.547 17.368C134.395 17.368 135.107 17.256 135.683 17.032C136.259 16.808 136.691 16.488 136.979 16.072C137.267 15.656 137.411 15.168 137.411 14.608C137.411 14.048 137.291 13.576 137.051 13.192C136.811 12.808 136.395 12.456 135.803 12.136C135.227 11.8 134.419 11.448 133.379 11.08C132.643 10.808 131.995 10.52 131.435 10.216C130.891 9.896 130.435 9.536 130.067 9.136C129.699 8.736 129.419 8.28 129.227 7.768C129.051 7.256 128.963 6.664 128.963 5.992C128.963 5.08 129.195 4.304 129.659 3.664C130.123 3.008 130.763 2.504 131.579 2.152C132.411 1.8 133.363 1.624 134.435 1.624C135.379 1.624 136.243 1.712 137.027 1.888C137.811 2.064 138.523 2.296 139.163 2.584L138.491 4.432C137.899 4.176 137.251 3.96 136.547 3.784C135.859 3.608 135.139 3.52 134.387 3.52C133.667 3.52 133.067 3.624 132.587 3.832C132.107 4.04 131.747 4.336 131.507 4.72C131.267 5.088 131.147 5.52 131.147 6.016C131.147 6.592 131.267 7.072 131.507 7.456C131.747 7.84 132.139 8.184 132.683 8.488C133.227 8.792 133.963 9.12 134.891 9.472C135.899 9.84 136.747 10.24 137.435 10.672C138.139 11.088 138.667 11.592 139.019 12.184C139.387 12.776 139.571 13.52 139.571 14.416ZM152.599 19H143.023V1.864H152.599V3.76H145.183V9.112H152.167V10.984H145.183V17.104H152.599V19ZM169.391 12.952C169.391 14.136 169.151 15.208 168.671 16.168C168.191 17.112 167.455 17.864 166.463 18.424C165.487 18.968 164.239 19.24 162.719 19.24C160.591 19.24 158.967 18.664 157.847 17.512C156.743 16.344 156.191 14.808 156.191 12.904V1.864H158.351V12.976C158.351 14.368 158.719 15.448 159.455 16.216C160.207 16.984 161.335 17.368 162.839 17.368C163.879 17.368 164.719 17.184 165.359 16.816C166.015 16.432 166.495 15.912 166.799 15.256C167.103 14.584 167.255 13.816 167.255 12.952V1.864H169.391V12.952ZM189.868 14.416C189.868 15.44 189.62 16.312 189.124 17.032C188.628 17.736 187.916 18.28 186.988 18.664C186.076 19.048 184.996 19.24 183.748 19.24C183.108 19.24 182.492 19.208 181.9 19.144C181.324 19.08 180.796 18.992 180.316 18.88C179.836 18.752 179.412 18.6 179.044 18.424V16.36C179.62 16.616 180.332 16.848 181.18 17.056C182.044 17.264 182.932 17.368 183.844 17.368C184.692 17.368 185.404 17.256 185.98 17.032C186.556 16.808 186.988 16.488 187.276 16.072C187.564 15.656 187.708 15.168 187.708 14.608C187.708 14.048 187.588 13.576 187.348 13.192C187.108 12.808 186.692 12.456 186.1 12.136C185.524 11.8 184.716 11.448 183.676 11.08C182.94 10.808 182.292 10.52 181.732 10.216C181.188 9.896 180.732 9.536 180.364 9.136C179.996 8.736 179.716 8.28 179.524 7.768C179.348 7.256 179.26 6.664 179.26 5.992C179.26 5.08 179.492 4.304 179.956 3.664C180.42 3.008 181.06 2.504 181.876 2.152C182.708 1.8 183.66 1.624 184.732 1.624C185.676 1.624 186.54 1.712 187.324 1.888C188.108 2.064 188.82 2.296 189.46 2.584L188.788 4.432C188.196 4.176 187.548 3.96 186.844 3.784C186.156 3.608 185.436 3.52 184.684 3.52C183.964 3.52 183.364 3.624 182.884 3.832C182.404 4.04 182.044 4.336 181.804 4.72C181.564 5.088 181.444 5.52 181.444 6.016C181.444 6.592 181.564 7.072 181.804 7.456C182.044 7.84 182.436 8.184 182.98 8.488C183.524 8.792 184.26 9.12 185.188 9.472C186.196 9.84 187.044 10.24 187.732 10.672C188.436 11.088 188.964 11.592 189.316 12.184C189.684 12.776 189.868 13.52 189.868 14.416ZM204.072 19L202.008 13.696H195.216L193.176 19H190.992L197.688 1.792H199.632L206.304 19H204.072ZM199.44 6.592C199.392 6.464 199.312 6.232 199.2 5.896C199.088 5.56 198.976 5.216 198.864 4.864C198.768 4.496 198.688 4.216 198.624 4.024C198.544 4.344 198.456 4.672 198.36 5.008C198.28 5.328 198.192 5.624 198.096 5.896C198.016 6.168 197.944 6.4 197.88 6.592L195.936 11.776H201.36L199.44 6.592ZM208.648 19V1.864H210.808V17.08H218.296V19H208.648ZM231.986 19L229.922 13.696H223.13L221.09 19H218.906L225.602 1.792H227.546L234.218 19H231.986ZM227.354 6.592C227.306 6.464 227.226 6.232 227.114 5.896C227.002 5.56 226.89 5.216 226.778 4.864C226.682 4.496 226.602 4.216 226.538 4.024C226.458 4.344 226.37 4.672 226.274 5.008C226.194 5.328 226.106 5.624 226.01 5.896C225.93 6.168 225.858 6.4 225.794 6.592L223.85 11.776H229.274L227.354 6.592ZM230.09 -3.416C229.946 -3.192 229.738 -2.92 229.466 -2.6C229.194 -2.28 228.89 -1.944 228.554 -1.592C228.234 -1.256 227.906 -0.928 227.57 -0.608001C227.25 -0.304001 226.946 -0.0400009 226.658 0.183999H225.266V-0.104002C225.506 -0.408001 225.762 -0.768001 226.034 -1.184C226.322 -1.6 226.602 -2.024 226.874 -2.456C227.146 -2.904 227.37 -3.304 227.546 -3.656H230.09V-3.416ZM241.29 1.864C242.714 1.864 243.882 2.048 244.794 2.416C245.722 2.768 246.41 3.304 246.858 4.024C247.306 4.744 247.53 5.648 247.53 6.736C247.53 7.648 247.362 8.408 247.026 9.016C246.69 9.624 246.258 10.112 245.73 10.48C245.218 10.832 244.674 11.112 244.098 11.32L248.802 19H246.282L242.13 11.92H238.722V19H236.562V1.864H241.29ZM241.17 3.736H238.722V10.096H241.29C242.218 10.096 242.978 9.976 243.57 9.736C244.162 9.48 244.594 9.112 244.866 8.632C245.154 8.152 245.298 7.552 245.298 6.832C245.298 6.08 245.146 5.48 244.842 5.032C244.554 4.584 244.106 4.256 243.498 4.048C242.89 3.84 242.114 3.736 241.17 3.736ZM256.316 19H250.124V17.752L252.14 17.296V3.592L250.124 3.112V1.864H256.316V3.112L254.3 3.592V17.296L256.316 17.752V19ZM274.577 10.408C274.577 11.736 274.409 12.944 274.073 14.032C273.737 15.104 273.233 16.032 272.561 16.816C271.905 17.6 271.081 18.2 270.089 18.616C269.113 19.032 267.977 19.24 266.681 19.24C265.337 19.24 264.169 19.032 263.177 18.616C262.185 18.184 261.361 17.584 260.705 16.816C260.049 16.032 259.561 15.096 259.241 14.008C258.921 12.92 258.761 11.712 258.761 10.384C258.761 8.624 259.049 7.088 259.625 5.776C260.201 4.464 261.073 3.44 262.241 2.704C263.425 1.968 264.913 1.6 266.705 1.6C268.417 1.6 269.857 1.968 271.025 2.704C272.193 3.424 273.073 4.448 273.665 5.776C274.273 7.088 274.577 8.632 274.577 10.408ZM261.041 10.408C261.041 11.848 261.241 13.088 261.641 14.128C262.041 15.168 262.657 15.968 263.489 16.528C264.337 17.088 265.401 17.368 266.681 17.368C267.977 17.368 269.033 17.088 269.849 16.528C270.681 15.968 271.297 15.168 271.697 14.128C272.097 13.088 272.297 11.848 272.297 10.408C272.297 8.248 271.849 6.56 270.953 5.344C270.057 4.112 268.641 3.496 266.705 3.496C265.409 3.496 264.337 3.776 263.489 4.336C262.657 4.88 262.041 5.672 261.641 6.712C261.241 7.736 261.041 8.968 261.041 10.408Z" fill="#0D0F10" data-name="TRIPLIQUE SEU SALÁRIO"/>
		</g>
		<g data-name="TRIPLIQUE SEU SALÁRIO" transform="translate(602 0)">
		<path d="M8.376 19H5.304V4.456H0.384V1.864H13.296V4.456H8.376V19ZM20.7915 1.864C22.2955 1.864 23.5355 2.048 24.5115 2.416C25.4875 2.784 26.2155 3.344 26.6955 4.096C27.1755 4.832 27.4155 5.768 27.4155 6.904C27.4155 7.736 27.2555 8.448 26.9355 9.04C26.6315 9.632 26.2315 10.128 25.7355 10.528C25.2395 10.912 24.7035 11.224 24.1275 11.464L29.0475 19H25.5915L21.4875 12.232H18.9915V19H15.9195V1.864H20.7915ZM20.5995 4.432H18.9915V9.712H20.6955C21.5435 9.712 22.2315 9.608 22.7595 9.4C23.2875 9.192 23.6715 8.888 23.9115 8.488C24.1675 8.088 24.2955 7.592 24.2955 7C24.2955 6.376 24.1595 5.88 23.8875 5.512C23.6155 5.128 23.2075 4.856 22.6635 4.696C22.1355 4.52 21.4475 4.432 20.5995 4.432ZM37.2431 19H30.0431V17.248L32.1071 16.48V4.408L30.0431 3.616V1.864H37.2431V3.616L35.1791 4.408V16.48L37.2431 17.248V19ZM45.4299 1.864C47.6539 1.864 49.2699 2.328 50.2779 3.256C51.3019 4.184 51.8139 5.464 51.8139 7.096C51.8139 7.832 51.7019 8.536 51.4779 9.208C51.2539 9.864 50.8779 10.456 50.3499 10.984C49.8219 11.512 49.1259 11.928 48.2619 12.232C47.4139 12.536 46.3579 12.688 45.0939 12.688H43.3899V19H40.3179V1.864H45.4299ZM45.2379 4.408H43.3899V10.144H44.7819C45.6139 10.144 46.3179 10.048 46.8939 9.856C47.4859 9.648 47.9339 9.328 48.2379 8.896C48.5419 8.464 48.6939 7.904 48.6939 7.216C48.6939 6.272 48.4139 5.568 47.8539 5.104C47.2939 4.64 46.4219 4.408 45.2379 4.408ZM55.1773 19V1.864H58.2493V16.408H65.4013V19H55.1773ZM74.1806 19H66.9806V17.248L69.0446 16.48V4.408L66.9806 3.616V1.864H74.1806V3.616L72.1166 4.408V16.48L74.1806 17.248V19ZM92.5674 10.408C92.5674 11.736 92.3994 12.944 92.0634 14.032C91.7434 15.104 91.2474 16.032 90.5754 16.816C89.9194 17.6 89.0794 18.192 88.0554 18.592L92.1834 23.08H88.1034L84.9114 19.24C84.8474 19.24 84.7754 19.24 84.6954 19.24C84.6314 19.24 84.5674 19.24 84.5034 19.24C83.1274 19.24 81.9274 19.032 80.9034 18.616C79.8954 18.184 79.0634 17.584 78.4074 16.816C77.7514 16.032 77.2554 15.096 76.9194 14.008C76.5994 12.92 76.4394 11.712 76.4394 10.384C76.4394 8.608 76.7274 7.064 77.3034 5.752C77.8954 4.44 78.7834 3.424 79.9674 2.704C81.1674 1.968 82.6874 1.6 84.5274 1.6C86.3354 1.6 87.8314 1.968 89.0154 2.704C90.1994 3.424 91.0874 4.448 91.6794 5.776C92.2714 7.088 92.5674 8.632 92.5674 10.408ZM79.6794 10.408C79.6794 11.704 79.8474 12.816 80.1834 13.744C80.5354 14.672 81.0634 15.384 81.7674 15.88C82.4874 16.376 83.3994 16.624 84.5034 16.624C85.6394 16.624 86.5594 16.376 87.2634 15.88C87.9674 15.384 88.4874 14.672 88.8234 13.744C89.1594 12.816 89.3274 11.704 89.3274 10.408C89.3274 8.472 88.9514 6.952 88.1994 5.848C87.4474 4.744 86.2234 4.192 84.5274 4.192C83.4074 4.192 82.4874 4.44 81.7674 4.936C81.0634 5.432 80.5354 6.144 80.1834 7.072C79.8474 8 79.6794 9.112 79.6794 10.408ZM109.8 12.952C109.8 14.136 109.544 15.208 109.032 16.168C108.536 17.112 107.776 17.864 106.752 18.424C105.728 18.968 104.432 19.24 102.864 19.24C100.64 19.24 98.9524 18.664 97.8004 17.512C96.6484 16.344 96.0724 14.808 96.0724 12.904V1.864H99.1444V12.592C99.1444 13.984 99.4644 15.008 100.104 15.664C100.744 16.304 101.696 16.624 102.96 16.624C103.856 16.624 104.576 16.472 105.12 16.168C105.68 15.864 106.088 15.408 106.344 14.8C106.616 14.176 106.752 13.432 106.752 12.568V1.864H109.8V12.952ZM123.89 19H114.146V1.864H123.89V4.432H117.218V8.8H123.458V11.368H117.218V16.408H123.89V19ZM143.723 14.32C143.723 15.328 143.475 16.2 142.979 16.936C142.483 17.672 141.763 18.24 140.819 18.64C139.891 19.04 138.779 19.24 137.483 19.24C136.859 19.24 136.259 19.2 135.683 19.12C135.123 19.056 134.587 18.952 134.075 18.808C133.579 18.664 133.115 18.488 132.683 18.28V15.4C133.403 15.72 134.195 16.016 135.059 16.288C135.923 16.544 136.803 16.672 137.699 16.672C138.387 16.672 138.947 16.584 139.379 16.408C139.827 16.216 140.155 15.96 140.363 15.64C140.571 15.304 140.675 14.92 140.675 14.488C140.675 14.008 140.539 13.6 140.267 13.264C139.995 12.928 139.595 12.616 139.067 12.328C138.539 12.04 137.883 11.736 137.099 11.416C136.571 11.192 136.051 10.944 135.539 10.672C135.043 10.384 134.595 10.04 134.195 9.64C133.795 9.24 133.475 8.768 133.235 8.224C132.995 7.68 132.875 7.04 132.875 6.304C132.875 5.328 133.107 4.488 133.571 3.784C134.051 3.08 134.715 2.544 135.563 2.176C136.427 1.808 137.427 1.624 138.563 1.624C139.475 1.624 140.331 1.72 141.131 1.912C141.931 2.104 142.723 2.376 143.507 2.728L142.523 5.2C141.819 4.896 141.139 4.656 140.483 4.48C139.827 4.304 139.155 4.216 138.467 4.216C137.923 4.216 137.459 4.304 137.075 4.48C136.691 4.64 136.403 4.872 136.211 5.176C136.019 5.48 135.923 5.832 135.923 6.232C135.923 6.696 136.043 7.088 136.283 7.408C136.523 7.728 136.891 8.032 137.387 8.32C137.899 8.592 138.555 8.904 139.355 9.256C140.283 9.656 141.067 10.072 141.707 10.504C142.347 10.936 142.843 11.456 143.195 12.064C143.547 12.672 143.723 13.424 143.723 14.32ZM156.703 19H146.959V1.864H156.703V4.432H150.031V8.8H156.271V11.368H150.031V16.408H156.703V19ZM173.925 12.952C173.925 14.136 173.669 15.208 173.157 16.168C172.661 17.112 171.901 17.864 170.877 18.424C169.853 18.968 168.557 19.24 166.989 19.24C164.765 19.24 163.077 18.664 161.925 17.512C160.773 16.344 160.197 14.808 160.197 12.904V1.864H163.269V12.592C163.269 13.984 163.589 15.008 164.229 15.664C164.869 16.304 165.821 16.624 167.085 16.624C167.981 16.624 168.701 16.472 169.245 16.168C169.805 15.864 170.213 15.408 170.469 14.8C170.741 14.176 170.877 13.432 170.877 12.568V1.864H173.925V12.952ZM194.465 14.32C194.465 15.328 194.217 16.2 193.721 16.936C193.225 17.672 192.505 18.24 191.561 18.64C190.633 19.04 189.521 19.24 188.225 19.24C187.601 19.24 187.001 19.2 186.425 19.12C185.865 19.056 185.329 18.952 184.817 18.808C184.321 18.664 183.857 18.488 183.425 18.28V15.4C184.145 15.72 184.937 16.016 185.801 16.288C186.665 16.544 187.545 16.672 188.441 16.672C189.129 16.672 189.689 16.584 190.121 16.408C190.569 16.216 190.897 15.96 191.105 15.64C191.313 15.304 191.417 14.92 191.417 14.488C191.417 14.008 191.281 13.6 191.009 13.264C190.737 12.928 190.337 12.616 189.809 12.328C189.281 12.04 188.625 11.736 187.841 11.416C187.313 11.192 186.793 10.944 186.281 10.672C185.785 10.384 185.337 10.04 184.937 9.64C184.537 9.24 184.217 8.768 183.977 8.224C183.737 7.68 183.617 7.04 183.617 6.304C183.617 5.328 183.849 4.488 184.313 3.784C184.793 3.08 185.457 2.544 186.305 2.176C187.169 1.808 188.169 1.624 189.305 1.624C190.217 1.624 191.073 1.72 191.873 1.912C192.673 2.104 193.465 2.376 194.249 2.728L193.265 5.2C192.561 4.896 191.881 4.656 191.225 4.48C190.569 4.304 189.897 4.216 189.209 4.216C188.665 4.216 188.201 4.304 187.817 4.48C187.433 4.64 187.145 4.872 186.953 5.176C186.761 5.48 186.665 5.832 186.665 6.232C186.665 6.696 186.785 7.088 187.025 7.408C187.265 7.728 187.633 8.032 188.129 8.32C188.641 8.592 189.297 8.904 190.097 9.256C191.025 9.656 191.809 10.072 192.449 10.504C193.089 10.936 193.585 11.456 193.937 12.064C194.289 12.672 194.465 13.424 194.465 14.32ZM208.285 19L206.725 14.464H200.269L198.733 19H195.469L201.757 1.792H205.261L211.549 19H208.285ZM204.445 7.408C204.381 7.184 204.285 6.88 204.157 6.496C204.029 6.112 203.901 5.72 203.773 5.32C203.661 4.904 203.573 4.56 203.509 4.288C203.429 4.608 203.325 4.976 203.197 5.392C203.085 5.808 202.973 6.2 202.861 6.568C202.765 6.936 202.685 7.216 202.621 7.408L201.109 11.824H205.933L204.445 7.408ZM213.802 19V1.864H216.874V16.408H224.026V19H213.802ZM237.582 19L236.022 14.464H229.566L228.03 19H224.766L231.054 1.792H234.558L240.846 19H237.582ZM233.742 7.408C233.678 7.184 233.582 6.88 233.454 6.496C233.326 6.112 233.198 5.72 233.07 5.32C232.958 4.904 232.87 4.56 232.806 4.288C232.726 4.608 232.622 4.976 232.494 5.392C232.382 5.808 232.27 6.2 232.158 6.568C232.062 6.936 231.982 7.216 231.918 7.408L230.406 11.824H235.23L233.742 7.408ZM237.294 -3.272C237.102 -3.048 236.838 -2.776 236.502 -2.456C236.182 -2.136 235.822 -1.8 235.422 -1.448C235.038 -1.096 234.654 -0.760001 234.27 -0.440001C233.902 -0.136001 233.574 0.119999 233.286 0.327999H231.27V0.0159998C231.526 -0.288001 231.814 -0.640001 232.134 -1.04C232.454 -1.456 232.766 -1.88 233.07 -2.312C233.39 -2.76 233.646 -3.16 233.838 -3.512H237.294V-3.272ZM247.971 1.864C249.475 1.864 250.715 2.048 251.691 2.416C252.667 2.784 253.395 3.344 253.875 4.096C254.355 4.832 254.595 5.768 254.595 6.904C254.595 7.736 254.435 8.448 254.115 9.04C253.811 9.632 253.411 10.128 252.915 10.528C252.419 10.912 251.883 11.224 251.307 11.464L256.227 19H252.771L248.667 12.232H246.171V19H243.099V1.864H247.971ZM247.779 4.432H246.171V9.712H247.875C248.723 9.712 249.411 9.608 249.939 9.4C250.467 9.192 250.851 8.888 251.091 8.488C251.347 8.088 251.475 7.592 251.475 7C251.475 6.376 251.339 5.88 251.067 5.512C250.795 5.128 250.387 4.856 249.843 4.696C249.315 4.52 248.627 4.432 247.779 4.432ZM264.423 19H257.223V17.248L259.287 16.48V4.408L257.223 3.616V1.864H264.423V3.616L262.359 4.408V16.48L264.423 17.248V19ZM282.81 10.408C282.81 11.736 282.642 12.944 282.306 14.032C281.986 15.104 281.49 16.032 280.818 16.816C280.162 17.6 279.322 18.2 278.298 18.616C277.29 19.032 276.106 19.24 274.746 19.24C273.37 19.24 272.17 19.032 271.146 18.616C270.138 18.184 269.306 17.584 268.65 16.816C267.994 16.032 267.498 15.096 267.162 14.008C266.842 12.92 266.682 11.712 266.682 10.384C266.682 8.608 266.97 7.064 267.546 5.752C268.138 4.44 269.026 3.424 270.21 2.704C271.41 1.968 272.93 1.6 274.77 1.6C276.578 1.6 278.074 1.968 279.258 2.704C280.442 3.424 281.33 4.448 281.922 5.776C282.514 7.088 282.81 8.632 282.81 10.408ZM269.922 10.408C269.922 11.704 270.09 12.816 270.426 13.744C270.778 14.672 271.306 15.384 272.01 15.88C272.73 16.376 273.642 16.624 274.746 16.624C275.882 16.624 276.802 16.376 277.506 15.88C278.21 15.384 278.73 14.672 279.066 13.744C279.402 12.816 279.57 11.704 279.57 10.408C279.57 8.472 279.194 6.952 278.442 5.848C277.69 4.744 276.466 4.192 274.77 4.192C273.65 4.192 272.73 4.44 272.01 4.936C271.306 5.432 270.778 6.144 270.426 7.072C270.09 8 269.922 9.112 269.922 10.408Z" fill="#0D0F10" data-name="TRIPLIQUE SEU SALÁRIO"/>
		</g>
		<g data-name="TRIPLIQUE SEU SALÁRIO" transform="translate(907 0)">
		<path d="M7.752 19H5.592V3.76H0.24V1.864H13.08V3.76H7.752V19ZM20.3919 1.864C21.8159 1.864 22.9839 2.048 23.8959 2.416C24.8239 2.768 25.5119 3.304 25.9599 4.024C26.4079 4.744 26.6319 5.648 26.6319 6.736C26.6319 7.648 26.4639 8.408 26.1279 9.016C25.7919 9.624 25.3599 10.112 24.8319 10.48C24.3199 10.832 23.7759 11.112 23.1999 11.32L27.9039 19H25.3839L21.2319 11.92H17.8239V19H15.6639V1.864H20.3919ZM20.2719 3.736H17.8239V10.096H20.3919C21.3199 10.096 22.0799 9.976 22.6719 9.736C23.2639 9.48 23.6959 9.112 23.9679 8.632C24.2559 8.152 24.3999 7.552 24.3999 6.832C24.3999 6.08 24.2479 5.48 23.9439 5.032C23.6559 4.584 23.2079 4.256 22.5999 4.048C21.9919 3.84 21.2159 3.736 20.2719 3.736ZM35.4176 19H29.2256V17.752L31.2416 17.296V3.592L29.2256 3.112V1.864H35.4176V3.112L33.4016 3.592V17.296L35.4176 17.752V19ZM43.2624 1.864C45.5024 1.864 47.1344 2.304 48.1584 3.184C49.1824 4.064 49.6944 5.304 49.6944 6.904C49.6944 7.608 49.5744 8.288 49.3344 8.944C49.1104 9.584 48.7344 10.16 48.2064 10.672C47.6784 11.184 46.9744 11.592 46.0944 11.896C45.2144 12.184 44.1344 12.328 42.8544 12.328H40.8864V19H38.7264V1.864H43.2624ZM43.0704 3.712H40.8864V10.48H42.6144C43.7024 10.48 44.6064 10.368 45.3264 10.144C46.0464 9.904 46.5824 9.528 46.9344 9.016C47.2864 8.504 47.4624 7.832 47.4624 7C47.4624 5.896 47.1104 5.072 46.4064 4.528C45.7024 3.984 44.5904 3.712 43.0704 3.712ZM53.2577 19V1.864H55.4177V17.08H62.9057V19H53.2577ZM70.6676 19H64.4756V17.752L66.4916 17.296V3.592L64.4756 3.112V1.864H70.6676V3.112L68.6516 3.592V17.296L70.6676 17.752V19ZM88.9284 10.408C88.9284 11.8 88.7364 13.064 88.3524 14.2C87.9844 15.336 87.4324 16.296 86.6964 17.08C85.9604 17.864 85.0404 18.44 83.9364 18.808L88.0404 23.08H84.9444L81.6324 19.216C81.5364 19.216 81.4324 19.216 81.3204 19.216C81.2244 19.232 81.1284 19.24 81.0324 19.24C79.6884 19.24 78.5204 19.032 77.5284 18.616C76.5364 18.184 75.7124 17.584 75.0564 16.816C74.4004 16.032 73.9124 15.096 73.5924 14.008C73.2724 12.92 73.1124 11.712 73.1124 10.384C73.1124 8.624 73.4004 7.088 73.9764 5.776C74.5524 4.464 75.4244 3.44 76.5924 2.704C77.7764 1.968 79.2644 1.6 81.0564 1.6C82.7684 1.6 84.2084 1.968 85.3764 2.704C86.5444 3.424 87.4244 4.448 88.0164 5.776C88.6244 7.088 88.9284 8.632 88.9284 10.408ZM75.3924 10.408C75.3924 11.848 75.5924 13.088 75.9924 14.128C76.3924 15.168 77.0084 15.968 77.8404 16.528C78.6884 17.088 79.7524 17.368 81.0324 17.368C82.3284 17.368 83.3844 17.088 84.2004 16.528C85.0324 15.968 85.6484 15.168 86.0484 14.128C86.4484 13.088 86.6484 11.848 86.6484 10.408C86.6484 8.248 86.2004 6.56 85.3044 5.344C84.4084 4.112 82.9924 3.496 81.0564 3.496C79.7604 3.496 78.6884 3.776 77.8404 4.336C77.0084 4.88 76.3924 5.672 75.9924 6.712C75.5924 7.736 75.3924 8.968 75.3924 10.408ZM105.758 12.952C105.758 14.136 105.518 15.208 105.038 16.168C104.558 17.112 103.822 17.864 102.83 18.424C101.854 18.968 100.606 19.24 99.0864 19.24C96.9584 19.24 95.3344 18.664 94.2144 17.512C93.1104 16.344 92.5584 14.808 92.5584 12.904V1.864H94.7184V12.976C94.7184 14.368 95.0864 15.448 95.8224 16.216C96.5744 16.984 97.7024 17.368 99.2064 17.368C100.246 17.368 101.086 17.184 101.726 16.816C102.382 16.432 102.862 15.912 103.166 15.256C103.47 14.584 103.622 13.816 103.622 12.952V1.864H105.758V12.952ZM119.857 19H110.281V1.864H119.857V3.76H112.441V9.112H119.425V10.984H112.441V17.104H119.857V19ZM139.571 14.416C139.571 15.44 139.323 16.312 138.827 17.032C138.331 17.736 137.619 18.28 136.691 18.664C135.779 19.048 134.699 19.24 133.451 19.24C132.811 19.24 132.195 19.208 131.603 19.144C131.027 19.08 130.499 18.992 130.019 18.88C129.539 18.752 129.115 18.6 128.747 18.424V16.36C129.323 16.616 130.035 16.848 130.883 17.056C131.747 17.264 132.635 17.368 133.547 17.368C134.395 17.368 135.107 17.256 135.683 17.032C136.259 16.808 136.691 16.488 136.979 16.072C137.267 15.656 137.411 15.168 137.411 14.608C137.411 14.048 137.291 13.576 137.051 13.192C136.811 12.808 136.395 12.456 135.803 12.136C135.227 11.8 134.419 11.448 133.379 11.08C132.643 10.808 131.995 10.52 131.435 10.216C130.891 9.896 130.435 9.536 130.067 9.136C129.699 8.736 129.419 8.28 129.227 7.768C129.051 7.256 128.963 6.664 128.963 5.992C128.963 5.08 129.195 4.304 129.659 3.664C130.123 3.008 130.763 2.504 131.579 2.152C132.411 1.8 133.363 1.624 134.435 1.624C135.379 1.624 136.243 1.712 137.027 1.888C137.811 2.064 138.523 2.296 139.163 2.584L138.491 4.432C137.899 4.176 137.251 3.96 136.547 3.784C135.859 3.608 135.139 3.52 134.387 3.52C133.667 3.52 133.067 3.624 132.587 3.832C132.107 4.04 131.747 4.336 131.507 4.72C131.267 5.088 131.147 5.52 131.147 6.016C131.147 6.592 131.267 7.072 131.507 7.456C131.747 7.84 132.139 8.184 132.683 8.488C133.227 8.792 133.963 9.12 134.891 9.472C135.899 9.84 136.747 10.24 137.435 10.672C138.139 11.088 138.667 11.592 139.019 12.184C139.387 12.776 139.571 13.52 139.571 14.416ZM152.599 19H143.023V1.864H152.599V3.76H145.183V9.112H152.167V10.984H145.183V17.104H152.599V19ZM169.391 12.952C169.391 14.136 169.151 15.208 168.671 16.168C168.191 17.112 167.455 17.864 166.463 18.424C165.487 18.968 164.239 19.24 162.719 19.24C160.591 19.24 158.967 18.664 157.847 17.512C156.743 16.344 156.191 14.808 156.191 12.904V1.864H158.351V12.976C158.351 14.368 158.719 15.448 159.455 16.216C160.207 16.984 161.335 17.368 162.839 17.368C163.879 17.368 164.719 17.184 165.359 16.816C166.015 16.432 166.495 15.912 166.799 15.256C167.103 14.584 167.255 13.816 167.255 12.952V1.864H169.391V12.952ZM189.868 14.416C189.868 15.44 189.62 16.312 189.124 17.032C188.628 17.736 187.916 18.28 186.988 18.664C186.076 19.048 184.996 19.24 183.748 19.24C183.108 19.24 182.492 19.208 181.9 19.144C181.324 19.08 180.796 18.992 180.316 18.88C179.836 18.752 179.412 18.6 179.044 18.424V16.36C179.62 16.616 180.332 16.848 181.18 17.056C182.044 17.264 182.932 17.368 183.844 17.368C184.692 17.368 185.404 17.256 185.98 17.032C186.556 16.808 186.988 16.488 187.276 16.072C187.564 15.656 187.708 15.168 187.708 14.608C187.708 14.048 187.588 13.576 187.348 13.192C187.108 12.808 186.692 12.456 186.1 12.136C185.524 11.8 184.716 11.448 183.676 11.08C182.94 10.808 182.292 10.52 181.732 10.216C181.188 9.896 180.732 9.536 180.364 9.136C179.996 8.736 179.716 8.28 179.524 7.768C179.348 7.256 179.26 6.664 179.26 5.992C179.26 5.08 179.492 4.304 179.956 3.664C180.42 3.008 181.06 2.504 181.876 2.152C182.708 1.8 183.66 1.624 184.732 1.624C185.676 1.624 186.54 1.712 187.324 1.888C188.108 2.064 188.82 2.296 189.46 2.584L188.788 4.432C188.196 4.176 187.548 3.96 186.844 3.784C186.156 3.608 185.436 3.52 184.684 3.52C183.964 3.52 183.364 3.624 182.884 3.832C182.404 4.04 182.044 4.336 181.804 4.72C181.564 5.088 181.444 5.52 181.444 6.016C181.444 6.592 181.564 7.072 181.804 7.456C182.044 7.84 182.436 8.184 182.98 8.488C183.524 8.792 184.26 9.12 185.188 9.472C186.196 9.84 187.044 10.24 187.732 10.672C188.436 11.088 188.964 11.592 189.316 12.184C189.684 12.776 189.868 13.52 189.868 14.416ZM204.072 19L202.008 13.696H195.216L193.176 19H190.992L197.688 1.792H199.632L206.304 19H204.072ZM199.44 6.592C199.392 6.464 199.312 6.232 199.2 5.896C199.088 5.56 198.976 5.216 198.864 4.864C198.768 4.496 198.688 4.216 198.624 4.024C198.544 4.344 198.456 4.672 198.36 5.008C198.28 5.328 198.192 5.624 198.096 5.896C198.016 6.168 197.944 6.4 197.88 6.592L195.936 11.776H201.36L199.44 6.592ZM208.648 19V1.864H210.808V17.08H218.296V19H208.648ZM231.986 19L229.922 13.696H223.13L221.09 19H218.906L225.602 1.792H227.546L234.218 19H231.986ZM227.354 6.592C227.306 6.464 227.226 6.232 227.114 5.896C227.002 5.56 226.89 5.216 226.778 4.864C226.682 4.496 226.602 4.216 226.538 4.024C226.458 4.344 226.37 4.672 226.274 5.008C226.194 5.328 226.106 5.624 226.01 5.896C225.93 6.168 225.858 6.4 225.794 6.592L223.85 11.776H229.274L227.354 6.592ZM230.09 -3.416C229.946 -3.192 229.738 -2.92 229.466 -2.6C229.194 -2.28 228.89 -1.944 228.554 -1.592C228.234 -1.256 227.906 -0.928 227.57 -0.608001C227.25 -0.304001 226.946 -0.0400009 226.658 0.183999H225.266V-0.104002C225.506 -0.408001 225.762 -0.768001 226.034 -1.184C226.322 -1.6 226.602 -2.024 226.874 -2.456C227.146 -2.904 227.37 -3.304 227.546 -3.656H230.09V-3.416ZM241.29 1.864C242.714 1.864 243.882 2.048 244.794 2.416C245.722 2.768 246.41 3.304 246.858 4.024C247.306 4.744 247.53 5.648 247.53 6.736C247.53 7.648 247.362 8.408 247.026 9.016C246.69 9.624 246.258 10.112 245.73 10.48C245.218 10.832 244.674 11.112 244.098 11.32L248.802 19H246.282L242.13 11.92H238.722V19H236.562V1.864H241.29ZM241.17 3.736H238.722V10.096H241.29C242.218 10.096 242.978 9.976 243.57 9.736C244.162 9.48 244.594 9.112 244.866 8.632C245.154 8.152 245.298 7.552 245.298 6.832C245.298 6.08 245.146 5.48 244.842 5.032C244.554 4.584 244.106 4.256 243.498 4.048C242.89 3.84 242.114 3.736 241.17 3.736ZM256.316 19H250.124V17.752L252.14 17.296V3.592L250.124 3.112V1.864H256.316V3.112L254.3 3.592V17.296L256.316 17.752V19ZM274.577 10.408C274.577 11.736 274.409 12.944 274.073 14.032C273.737 15.104 273.233 16.032 272.561 16.816C271.905 17.6 271.081 18.2 270.089 18.616C269.113 19.032 267.977 19.24 266.681 19.24C265.337 19.24 264.169 19.032 263.177 18.616C262.185 18.184 261.361 17.584 260.705 16.816C260.049 16.032 259.561 15.096 259.241 14.008C258.921 12.92 258.761 11.712 258.761 10.384C258.761 8.624 259.049 7.088 259.625 5.776C260.201 4.464 261.073 3.44 262.241 2.704C263.425 1.968 264.913 1.6 266.705 1.6C268.417 1.6 269.857 1.968 271.025 2.704C272.193 3.424 273.073 4.448 273.665 5.776C274.273 7.088 274.577 8.632 274.577 10.408ZM261.041 10.408C261.041 11.848 261.241 13.088 261.641 14.128C262.041 15.168 262.657 15.968 263.489 16.528C264.337 17.088 265.401 17.368 266.681 17.368C267.977 17.368 269.033 17.088 269.849 16.528C270.681 15.968 271.297 15.168 271.697 14.128C272.097 13.088 272.297 11.848 272.297 10.408C272.297 8.248 271.849 6.56 270.953 5.344C270.057 4.112 268.641 3.496 266.705 3.496C265.409 3.496 264.337 3.776 263.489 4.336C262.657 4.88 262.041 5.672 261.641 6.712C261.241 7.736 261.041 8.968 261.041 10.408Z" fill="#0D0F10" data-name="TRIPLIQUE SEU SALÁRIO"/>
		</g>
		<g data-name="TRIPLIQUE SEU SALÁRIO" transform="translate(1204 0)">
		<path d="M8.376 19H5.304V4.456H0.384V1.864H13.296V4.456H8.376V19ZM20.7915 1.864C22.2955 1.864 23.5355 2.048 24.5115 2.416C25.4875 2.784 26.2155 3.344 26.6955 4.096C27.1755 4.832 27.4155 5.768 27.4155 6.904C27.4155 7.736 27.2555 8.448 26.9355 9.04C26.6315 9.632 26.2315 10.128 25.7355 10.528C25.2395 10.912 24.7035 11.224 24.1275 11.464L29.0475 19H25.5915L21.4875 12.232H18.9915V19H15.9195V1.864H20.7915ZM20.5995 4.432H18.9915V9.712H20.6955C21.5435 9.712 22.2315 9.608 22.7595 9.4C23.2875 9.192 23.6715 8.888 23.9115 8.488C24.1675 8.088 24.2955 7.592 24.2955 7C24.2955 6.376 24.1595 5.88 23.8875 5.512C23.6155 5.128 23.2075 4.856 22.6635 4.696C22.1355 4.52 21.4475 4.432 20.5995 4.432ZM37.2431 19H30.0431V17.248L32.1071 16.48V4.408L30.0431 3.616V1.864H37.2431V3.616L35.1791 4.408V16.48L37.2431 17.248V19ZM45.4299 1.864C47.6539 1.864 49.2699 2.328 50.2779 3.256C51.3019 4.184 51.8139 5.464 51.8139 7.096C51.8139 7.832 51.7019 8.536 51.4779 9.208C51.2539 9.864 50.8779 10.456 50.3499 10.984C49.8219 11.512 49.1259 11.928 48.2619 12.232C47.4139 12.536 46.3579 12.688 45.0939 12.688H43.3899V19H40.3179V1.864H45.4299ZM45.2379 4.408H43.3899V10.144H44.7819C45.6139 10.144 46.3179 10.048 46.8939 9.856C47.4859 9.648 47.9339 9.328 48.2379 8.896C48.5419 8.464 48.6939 7.904 48.6939 7.216C48.6939 6.272 48.4139 5.568 47.8539 5.104C47.2939 4.64 46.4219 4.408 45.2379 4.408ZM55.1773 19V1.864H58.2493V16.408H65.4013V19H55.1773ZM74.1806 19H66.9806V17.248L69.0446 16.48V4.408L66.9806 3.616V1.864H74.1806V3.616L72.1166 4.408V16.48L74.1806 17.248V19ZM92.5674 10.408C92.5674 11.736 92.3994 12.944 92.0634 14.032C91.7434 15.104 91.2474 16.032 90.5754 16.816C89.9194 17.6 89.0794 18.192 88.0554 18.592L92.1834 23.08H88.1034L84.9114 19.24C84.8474 19.24 84.7754 19.24 84.6954 19.24C84.6314 19.24 84.5674 19.24 84.5034 19.24C83.1274 19.24 81.9274 19.032 80.9034 18.616C79.8954 18.184 79.0634 17.584 78.4074 16.816C77.7514 16.032 77.2554 15.096 76.9194 14.008C76.5994 12.92 76.4394 11.712 76.4394 10.384C76.4394 8.608 76.7274 7.064 77.3034 5.752C77.8954 4.44 78.7834 3.424 79.9674 2.704C81.1674 1.968 82.6874 1.6 84.5274 1.6C86.3354 1.6 87.8314 1.968 89.0154 2.704C90.1994 3.424 91.0874 4.448 91.6794 5.776C92.2714 7.088 92.5674 8.632 92.5674 10.408ZM79.6794 10.408C79.6794 11.704 79.8474 12.816 80.1834 13.744C80.5354 14.672 81.0634 15.384 81.7674 15.88C82.4874 16.376 83.3994 16.624 84.5034 16.624C85.6394 16.624 86.5594 16.376 87.2634 15.88C87.9674 15.384 88.4874 14.672 88.8234 13.744C89.1594 12.816 89.3274 11.704 89.3274 10.408C89.3274 8.472 88.9514 6.952 88.1994 5.848C87.4474 4.744 86.2234 4.192 84.5274 4.192C83.4074 4.192 82.4874 4.44 81.7674 4.936C81.0634 5.432 80.5354 6.144 80.1834 7.072C79.8474 8 79.6794 9.112 79.6794 10.408ZM109.8 12.952C109.8 14.136 109.544 15.208 109.032 16.168C108.536 17.112 107.776 17.864 106.752 18.424C105.728 18.968 104.432 19.24 102.864 19.24C100.64 19.24 98.9524 18.664 97.8004 17.512C96.6484 16.344 96.0724 14.808 96.0724 12.904V1.864H99.1444V12.592C99.1444 13.984 99.4644 15.008 100.104 15.664C100.744 16.304 101.696 16.624 102.96 16.624C103.856 16.624 104.576 16.472 105.12 16.168C105.68 15.864 106.088 15.408 106.344 14.8C106.616 14.176 106.752 13.432 106.752 12.568V1.864H109.8V12.952ZM123.89 19H114.146V1.864H123.89V4.432H117.218V8.8H123.458V11.368H117.218V16.408H123.89V19ZM143.723 14.32C143.723 15.328 143.475 16.2 142.979 16.936C142.483 17.672 141.763 18.24 140.819 18.64C139.891 19.04 138.779 19.24 137.483 19.24C136.859 19.24 136.259 19.2 135.683 19.12C135.123 19.056 134.587 18.952 134.075 18.808C133.579 18.664 133.115 18.488 132.683 18.28V15.4C133.403 15.72 134.195 16.016 135.059 16.288C135.923 16.544 136.803 16.672 137.699 16.672C138.387 16.672 138.947 16.584 139.379 16.408C139.827 16.216 140.155 15.96 140.363 15.64C140.571 15.304 140.675 14.92 140.675 14.488C140.675 14.008 140.539 13.6 140.267 13.264C139.995 12.928 139.595 12.616 139.067 12.328C138.539 12.04 137.883 11.736 137.099 11.416C136.571 11.192 136.051 10.944 135.539 10.672C135.043 10.384 134.595 10.04 134.195 9.64C133.795 9.24 133.475 8.768 133.235 8.224C132.995 7.68 132.875 7.04 132.875 6.304C132.875 5.328 133.107 4.488 133.571 3.784C134.051 3.08 134.715 2.544 135.563 2.176C136.427 1.808 137.427 1.624 138.563 1.624C139.475 1.624 140.331 1.72 141.131 1.912C141.931 2.104 142.723 2.376 143.507 2.728L142.523 5.2C141.819 4.896 141.139 4.656 140.483 4.48C139.827 4.304 139.155 4.216 138.467 4.216C137.923 4.216 137.459 4.304 137.075 4.48C136.691 4.64 136.403 4.872 136.211 5.176C136.019 5.48 135.923 5.832 135.923 6.232C135.923 6.696 136.043 7.088 136.283 7.408C136.523 7.728 136.891 8.032 137.387 8.32C137.899 8.592 138.555 8.904 139.355 9.256C140.283 9.656 141.067 10.072 141.707 10.504C142.347 10.936 142.843 11.456 143.195 12.064C143.547 12.672 143.723 13.424 143.723 14.32ZM156.703 19H146.959V1.864H156.703V4.432H150.031V8.8H156.271V11.368H150.031V16.408H156.703V19ZM173.925 12.952C173.925 14.136 173.669 15.208 173.157 16.168C172.661 17.112 171.901 17.864 170.877 18.424C169.853 18.968 168.557 19.24 166.989 19.24C164.765 19.24 163.077 18.664 161.925 17.512C160.773 16.344 160.197 14.808 160.197 12.904V1.864H163.269V12.592C163.269 13.984 163.589 15.008 164.229 15.664C164.869 16.304 165.821 16.624 167.085 16.624C167.981 16.624 168.701 16.472 169.245 16.168C169.805 15.864 170.213 15.408 170.469 14.8C170.741 14.176 170.877 13.432 170.877 12.568V1.864H173.925V12.952ZM194.465 14.32C194.465 15.328 194.217 16.2 193.721 16.936C193.225 17.672 192.505 18.24 191.561 18.64C190.633 19.04 189.521 19.24 188.225 19.24C187.601 19.24 187.001 19.2 186.425 19.12C185.865 19.056 185.329 18.952 184.817 18.808C184.321 18.664 183.857 18.488 183.425 18.28V15.4C184.145 15.72 184.937 16.016 185.801 16.288C186.665 16.544 187.545 16.672 188.441 16.672C189.129 16.672 189.689 16.584 190.121 16.408C190.569 16.216 190.897 15.96 191.105 15.64C191.313 15.304 191.417 14.92 191.417 14.488C191.417 14.008 191.281 13.6 191.009 13.264C190.737 12.928 190.337 12.616 189.809 12.328C189.281 12.04 188.625 11.736 187.841 11.416C187.313 11.192 186.793 10.944 186.281 10.672C185.785 10.384 185.337 10.04 184.937 9.64C184.537 9.24 184.217 8.768 183.977 8.224C183.737 7.68 183.617 7.04 183.617 6.304C183.617 5.328 183.849 4.488 184.313 3.784C184.793 3.08 185.457 2.544 186.305 2.176C187.169 1.808 188.169 1.624 189.305 1.624C190.217 1.624 191.073 1.72 191.873 1.912C192.673 2.104 193.465 2.376 194.249 2.728L193.265 5.2C192.561 4.896 191.881 4.656 191.225 4.48C190.569 4.304 189.897 4.216 189.209 4.216C188.665 4.216 188.201 4.304 187.817 4.48C187.433 4.64 187.145 4.872 186.953 5.176C186.761 5.48 186.665 5.832 186.665 6.232C186.665 6.696 186.785 7.088 187.025 7.408C187.265 7.728 187.633 8.032 188.129 8.32C188.641 8.592 189.297 8.904 190.097 9.256C191.025 9.656 191.809 10.072 192.449 10.504C193.089 10.936 193.585 11.456 193.937 12.064C194.289 12.672 194.465 13.424 194.465 14.32ZM208.285 19L206.725 14.464H200.269L198.733 19H195.469L201.757 1.792H205.261L211.549 19H208.285ZM204.445 7.408C204.381 7.184 204.285 6.88 204.157 6.496C204.029 6.112 203.901 5.72 203.773 5.32C203.661 4.904 203.573 4.56 203.509 4.288C203.429 4.608 203.325 4.976 203.197 5.392C203.085 5.808 202.973 6.2 202.861 6.568C202.765 6.936 202.685 7.216 202.621 7.408L201.109 11.824H205.933L204.445 7.408ZM213.802 19V1.864H216.874V16.408H224.026V19H213.802ZM237.582 19L236.022 14.464H229.566L228.03 19H224.766L231.054 1.792H234.558L240.846 19H237.582ZM233.742 7.408C233.678 7.184 233.582 6.88 233.454 6.496C233.326 6.112 233.198 5.72 233.07 5.32C232.958 4.904 232.87 4.56 232.806 4.288C232.726 4.608 232.622 4.976 232.494 5.392C232.382 5.808 232.27 6.2 232.158 6.568C232.062 6.936 231.982 7.216 231.918 7.408L230.406 11.824H235.23L233.742 7.408ZM237.294 -3.272C237.102 -3.048 236.838 -2.776 236.502 -2.456C236.182 -2.136 235.822 -1.8 235.422 -1.448C235.038 -1.096 234.654 -0.760001 234.27 -0.440001C233.902 -0.136001 233.574 0.119999 233.286 0.327999H231.27V0.0159998C231.526 -0.288001 231.814 -0.640001 232.134 -1.04C232.454 -1.456 232.766 -1.88 233.07 -2.312C233.39 -2.76 233.646 -3.16 233.838 -3.512H237.294V-3.272ZM247.971 1.864C249.475 1.864 250.715 2.048 251.691 2.416C252.667 2.784 253.395 3.344 253.875 4.096C254.355 4.832 254.595 5.768 254.595 6.904C254.595 7.736 254.435 8.448 254.115 9.04C253.811 9.632 253.411 10.128 252.915 10.528C252.419 10.912 251.883 11.224 251.307 11.464L256.227 19H252.771L248.667 12.232H246.171V19H243.099V1.864H247.971ZM247.779 4.432H246.171V9.712H247.875C248.723 9.712 249.411 9.608 249.939 9.4C250.467 9.192 250.851 8.888 251.091 8.488C251.347 8.088 251.475 7.592 251.475 7C251.475 6.376 251.339 5.88 251.067 5.512C250.795 5.128 250.387 4.856 249.843 4.696C249.315 4.52 248.627 4.432 247.779 4.432ZM264.423 19H257.223V17.248L259.287 16.48V4.408L257.223 3.616V1.864H264.423V3.616L262.359 4.408V16.48L264.423 17.248V19ZM282.81 10.408C282.81 11.736 282.642 12.944 282.306 14.032C281.986 15.104 281.49 16.032 280.818 16.816C280.162 17.6 279.322 18.2 278.298 18.616C277.29 19.032 276.106 19.24 274.746 19.24C273.37 19.24 272.17 19.032 271.146 18.616C270.138 18.184 269.306 17.584 268.65 16.816C267.994 16.032 267.498 15.096 267.162 14.008C266.842 12.92 266.682 11.712 266.682 10.384C266.682 8.608 266.97 7.064 267.546 5.752C268.138 4.44 269.026 3.424 270.21 2.704C271.41 1.968 272.93 1.6 274.77 1.6C276.578 1.6 278.074 1.968 279.258 2.704C280.442 3.424 281.33 4.448 281.922 5.776C282.514 7.088 282.81 8.632 282.81 10.408ZM269.922 10.408C269.922 11.704 270.09 12.816 270.426 13.744C270.778 14.672 271.306 15.384 272.01 15.88C272.73 16.376 273.642 16.624 274.746 16.624C275.882 16.624 276.802 16.376 277.506 15.88C278.21 15.384 278.73 14.672 279.066 13.744C279.402 12.816 279.57 11.704 279.57 10.408C279.57 8.472 279.194 6.952 278.442 5.848C277.69 4.744 276.466 4.192 274.77 4.192C273.65 4.192 272.73 4.44 272.01 4.936C271.306 5.432 270.778 6.144 270.426 7.072C270.09 8 269.922 9.112 269.922 10.408Z" fill="#0D0F10" data-name="TRIPLIQUE SEU SALÁRIO"/>
		</g>
		<g data-name="TRIPLIQUE SEU SALÁRIO" transform="translate(1509 0)">
		<path d="M7.752 19H5.592V3.76H0.24V1.864H13.08V3.76H7.752V19ZM20.3919 1.864C21.8159 1.864 22.9839 2.048 23.8959 2.416C24.8239 2.768 25.5119 3.304 25.9599 4.024C26.4079 4.744 26.6319 5.648 26.6319 6.736C26.6319 7.648 26.4639 8.408 26.1279 9.016C25.7919 9.624 25.3599 10.112 24.8319 10.48C24.3199 10.832 23.7759 11.112 23.1999 11.32L27.9039 19H25.3839L21.2319 11.92H17.8239V19H15.6639V1.864H20.3919ZM20.2719 3.736H17.8239V10.096H20.3919C21.3199 10.096 22.0799 9.976 22.6719 9.736C23.2639 9.48 23.6959 9.112 23.9679 8.632C24.2559 8.152 24.3999 7.552 24.3999 6.832C24.3999 6.08 24.2479 5.48 23.9439 5.032C23.6559 4.584 23.2079 4.256 22.5999 4.048C21.9919 3.84 21.2159 3.736 20.2719 3.736ZM35.4176 19H29.2256V17.752L31.2416 17.296V3.592L29.2256 3.112V1.864H35.4176V3.112L33.4016 3.592V17.296L35.4176 17.752V19ZM43.2624 1.864C45.5024 1.864 47.1344 2.304 48.1584 3.184C49.1824 4.064 49.6944 5.304 49.6944 6.904C49.6944 7.608 49.5744 8.288 49.3344 8.944C49.1104 9.584 48.7344 10.16 48.2064 10.672C47.6784 11.184 46.9744 11.592 46.0944 11.896C45.2144 12.184 44.1344 12.328 42.8544 12.328H40.8864V19H38.7264V1.864H43.2624ZM43.0704 3.712H40.8864V10.48H42.6144C43.7024 10.48 44.6064 10.368 45.3264 10.144C46.0464 9.904 46.5824 9.528 46.9344 9.016C47.2864 8.504 47.4624 7.832 47.4624 7C47.4624 5.896 47.1104 5.072 46.4064 4.528C45.7024 3.984 44.5904 3.712 43.0704 3.712ZM53.2577 19V1.864H55.4177V17.08H62.9057V19H53.2577ZM70.6676 19H64.4756V17.752L66.4916 17.296V3.592L64.4756 3.112V1.864H70.6676V3.112L68.6516 3.592V17.296L70.6676 17.752V19ZM88.9284 10.408C88.9284 11.8 88.7364 13.064 88.3524 14.2C87.9844 15.336 87.4324 16.296 86.6964 17.08C85.9604 17.864 85.0404 18.44 83.9364 18.808L88.0404 23.08H84.9444L81.6324 19.216C81.5364 19.216 81.4324 19.216 81.3204 19.216C81.2244 19.232 81.1284 19.24 81.0324 19.24C79.6884 19.24 78.5204 19.032 77.5284 18.616C76.5364 18.184 75.7124 17.584 75.0564 16.816C74.4004 16.032 73.9124 15.096 73.5924 14.008C73.2724 12.92 73.1124 11.712 73.1124 10.384C73.1124 8.624 73.4004 7.088 73.9764 5.776C74.5524 4.464 75.4244 3.44 76.5924 2.704C77.7764 1.968 79.2644 1.6 81.0564 1.6C82.7684 1.6 84.2084 1.968 85.3764 2.704C86.5444 3.424 87.4244 4.448 88.0164 5.776C88.6244 7.088 88.9284 8.632 88.9284 10.408ZM75.3924 10.408C75.3924 11.848 75.5924 13.088 75.9924 14.128C76.3924 15.168 77.0084 15.968 77.8404 16.528C78.6884 17.088 79.7524 17.368 81.0324 17.368C82.3284 17.368 83.3844 17.088 84.2004 16.528C85.0324 15.968 85.6484 15.168 86.0484 14.128C86.4484 13.088 86.6484 11.848 86.6484 10.408C86.6484 8.248 86.2004 6.56 85.3044 5.344C84.4084 4.112 82.9924 3.496 81.0564 3.496C79.7604 3.496 78.6884 3.776 77.8404 4.336C77.0084 4.88 76.3924 5.672 75.9924 6.712C75.5924 7.736 75.3924 8.968 75.3924 10.408ZM105.758 12.952C105.758 14.136 105.518 15.208 105.038 16.168C104.558 17.112 103.822 17.864 102.83 18.424C101.854 18.968 100.606 19.24 99.0864 19.24C96.9584 19.24 95.3344 18.664 94.2144 17.512C93.1104 16.344 92.5584 14.808 92.5584 12.904V1.864H94.7184V12.976C94.7184 14.368 95.0864 15.448 95.8224 16.216C96.5744 16.984 97.7024 17.368 99.2064 17.368C100.246 17.368 101.086 17.184 101.726 16.816C102.382 16.432 102.862 15.912 103.166 15.256C103.47 14.584 103.622 13.816 103.622 12.952V1.864H105.758V12.952ZM119.857 19H110.281V1.864H119.857V3.76H112.441V9.112H119.425V10.984H112.441V17.104H119.857V19ZM139.571 14.416C139.571 15.44 139.323 16.312 138.827 17.032C138.331 17.736 137.619 18.28 136.691 18.664C135.779 19.048 134.699 19.24 133.451 19.24C132.811 19.24 132.195 19.208 131.603 19.144C131.027 19.08 130.499 18.992 130.019 18.88C129.539 18.752 129.115 18.6 128.747 18.424V16.36C129.323 16.616 130.035 16.848 130.883 17.056C131.747 17.264 132.635 17.368 133.547 17.368C134.395 17.368 135.107 17.256 135.683 17.032C136.259 16.808 136.691 16.488 136.979 16.072C137.267 15.656 137.411 15.168 137.411 14.608C137.411 14.048 137.291 13.576 137.051 13.192C136.811 12.808 136.395 12.456 135.803 12.136C135.227 11.8 134.419 11.448 133.379 11.08C132.643 10.808 131.995 10.52 131.435 10.216C130.891 9.896 130.435 9.536 130.067 9.136C129.699 8.736 129.419 8.28 129.227 7.768C129.051 7.256 128.963 6.664 128.963 5.992C128.963 5.08 129.195 4.304 129.659 3.664C130.123 3.008 130.763 2.504 131.579 2.152C132.411 1.8 133.363 1.624 134.435 1.624C135.379 1.624 136.243 1.712 137.027 1.888C137.811 2.064 138.523 2.296 139.163 2.584L138.491 4.432C137.899 4.176 137.251 3.96 136.547 3.784C135.859 3.608 135.139 3.52 134.387 3.52C133.667 3.52 133.067 3.624 132.587 3.832C132.107 4.04 131.747 4.336 131.507 4.72C131.267 5.088 131.147 5.52 131.147 6.016C131.147 6.592 131.267 7.072 131.507 7.456C131.747 7.84 132.139 8.184 132.683 8.488C133.227 8.792 133.963 9.12 134.891 9.472C135.899 9.84 136.747 10.24 137.435 10.672C138.139 11.088 138.667 11.592 139.019 12.184C139.387 12.776 139.571 13.52 139.571 14.416ZM152.599 19H143.023V1.864H152.599V3.76H145.183V9.112H152.167V10.984H145.183V17.104H152.599V19ZM169.391 12.952C169.391 14.136 169.151 15.208 168.671 16.168C168.191 17.112 167.455 17.864 166.463 18.424C165.487 18.968 164.239 19.24 162.719 19.24C160.591 19.24 158.967 18.664 157.847 17.512C156.743 16.344 156.191 14.808 156.191 12.904V1.864H158.351V12.976C158.351 14.368 158.719 15.448 159.455 16.216C160.207 16.984 161.335 17.368 162.839 17.368C163.879 17.368 164.719 17.184 165.359 16.816C166.015 16.432 166.495 15.912 166.799 15.256C167.103 14.584 167.255 13.816 167.255 12.952V1.864H169.391V12.952ZM189.868 14.416C189.868 15.44 189.62 16.312 189.124 17.032C188.628 17.736 187.916 18.28 186.988 18.664C186.076 19.048 184.996 19.24 183.748 19.24C183.108 19.24 182.492 19.208 181.9 19.144C181.324 19.08 180.796 18.992 180.316 18.88C179.836 18.752 179.412 18.6 179.044 18.424V16.36C179.62 16.616 180.332 16.848 181.18 17.056C182.044 17.264 182.932 17.368 183.844 17.368C184.692 17.368 185.404 17.256 185.98 17.032C186.556 16.808 186.988 16.488 187.276 16.072C187.564 15.656 187.708 15.168 187.708 14.608C187.708 14.048 187.588 13.576 187.348 13.192C187.108 12.808 186.692 12.456 186.1 12.136C185.524 11.8 184.716 11.448 183.676 11.08C182.94 10.808 182.292 10.52 181.732 10.216C181.188 9.896 180.732 9.536 180.364 9.136C179.996 8.736 179.716 8.28 179.524 7.768C179.348 7.256 179.26 6.664 179.26 5.992C179.26 5.08 179.492 4.304 179.956 3.664C180.42 3.008 181.06 2.504 181.876 2.152C182.708 1.8 183.66 1.624 184.732 1.624C185.676 1.624 186.54 1.712 187.324 1.888C188.108 2.064 188.82 2.296 189.46 2.584L188.788 4.432C188.196 4.176 187.548 3.96 186.844 3.784C186.156 3.608 185.436 3.52 184.684 3.52C183.964 3.52 183.364 3.624 182.884 3.832C182.404 4.04 182.044 4.336 181.804 4.72C181.564 5.088 181.444 5.52 181.444 6.016C181.444 6.592 181.564 7.072 181.804 7.456C182.044 7.84 182.436 8.184 182.98 8.488C183.524 8.792 184.26 9.12 185.188 9.472C186.196 9.84 187.044 10.24 187.732 10.672C188.436 11.088 188.964 11.592 189.316 12.184C189.684 12.776 189.868 13.52 189.868 14.416ZM204.072 19L202.008 13.696H195.216L193.176 19H190.992L197.688 1.792H199.632L206.304 19H204.072ZM199.44 6.592C199.392 6.464 199.312 6.232 199.2 5.896C199.088 5.56 198.976 5.216 198.864 4.864C198.768 4.496 198.688 4.216 198.624 4.024C198.544 4.344 198.456 4.672 198.36 5.008C198.28 5.328 198.192 5.624 198.096 5.896C198.016 6.168 197.944 6.4 197.88 6.592L195.936 11.776H201.36L199.44 6.592ZM208.648 19V1.864H210.808V17.08H218.296V19H208.648ZM231.986 19L229.922 13.696H223.13L221.09 19H218.906L225.602 1.792H227.546L234.218 19H231.986ZM227.354 6.592C227.306 6.464 227.226 6.232 227.114 5.896C227.002 5.56 226.89 5.216 226.778 4.864C226.682 4.496 226.602 4.216 226.538 4.024C226.458 4.344 226.37 4.672 226.274 5.008C226.194 5.328 226.106 5.624 226.01 5.896C225.93 6.168 225.858 6.4 225.794 6.592L223.85 11.776H229.274L227.354 6.592ZM230.09 -3.416C229.946 -3.192 229.738 -2.92 229.466 -2.6C229.194 -2.28 228.89 -1.944 228.554 -1.592C228.234 -1.256 227.906 -0.928 227.57 -0.608001C227.25 -0.304001 226.946 -0.0400009 226.658 0.183999H225.266V-0.104002C225.506 -0.408001 225.762 -0.768001 226.034 -1.184C226.322 -1.6 226.602 -2.024 226.874 -2.456C227.146 -2.904 227.37 -3.304 227.546 -3.656H230.09V-3.416ZM241.29 1.864C242.714 1.864 243.882 2.048 244.794 2.416C245.722 2.768 246.41 3.304 246.858 4.024C247.306 4.744 247.53 5.648 247.53 6.736C247.53 7.648 247.362 8.408 247.026 9.016C246.69 9.624 246.258 10.112 245.73 10.48C245.218 10.832 244.674 11.112 244.098 11.32L248.802 19H246.282L242.13 11.92H238.722V19H236.562V1.864H241.29ZM241.17 3.736H238.722V10.096H241.29C242.218 10.096 242.978 9.976 243.57 9.736C244.162 9.48 244.594 9.112 244.866 8.632C245.154 8.152 245.298 7.552 245.298 6.832C245.298 6.08 245.146 5.48 244.842 5.032C244.554 4.584 244.106 4.256 243.498 4.048C242.89 3.84 242.114 3.736 241.17 3.736ZM256.316 19H250.124V17.752L252.14 17.296V3.592L250.124 3.112V1.864H256.316V3.112L254.3 3.592V17.296L256.316 17.752V19ZM274.577 10.408C274.577 11.736 274.409 12.944 274.073 14.032C273.737 15.104 273.233 16.032 272.561 16.816C271.905 17.6 271.081 18.2 270.089 18.616C269.113 19.032 267.977 19.24 266.681 19.24C265.337 19.24 264.169 19.032 263.177 18.616C262.185 18.184 261.361 17.584 260.705 16.816C260.049 16.032 259.561 15.096 259.241 14.008C258.921 12.92 258.761 11.712 258.761 10.384C258.761 8.624 259.049 7.088 259.625 5.776C260.201 4.464 261.073 3.44 262.241 2.704C263.425 1.968 264.913 1.6 266.705 1.6C268.417 1.6 269.857 1.968 271.025 2.704C272.193 3.424 273.073 4.448 273.665 5.776C274.273 7.088 274.577 8.632 274.577 10.408ZM261.041 10.408C261.041 11.848 261.241 13.088 261.641 14.128C262.041 15.168 262.657 15.968 263.489 16.528C264.337 17.088 265.401 17.368 266.681 17.368C267.977 17.368 269.033 17.088 269.849 16.528C270.681 15.968 271.297 15.168 271.697 14.128C272.097 13.088 272.297 11.848 272.297 10.408C272.297 8.248 271.849 6.56 270.953 5.344C270.057 4.112 268.641 3.496 266.705 3.496C265.409 3.496 264.337 3.776 263.489 4.336C262.657 4.88 262.041 5.672 261.641 6.712C261.241 7.736 261.041 8.968 261.041 10.408Z" fill="#0D0F10" data-name="TRIPLIQUE SEU SALÁRIO"/>
		</g>
		<g data-name="TRIPLIQUE SEU SALÁRIO" transform="translate(1806 0)">
		<path d="M8.376 19H5.304V4.456H0.384V1.864H13.296V4.456H8.376V19ZM20.7915 1.864C22.2955 1.864 23.5355 2.048 24.5115 2.416C25.4875 2.784 26.2155 3.344 26.6955 4.096C27.1755 4.832 27.4155 5.768 27.4155 6.904C27.4155 7.736 27.2555 8.448 26.9355 9.04C26.6315 9.632 26.2315 10.128 25.7355 10.528C25.2395 10.912 24.7035 11.224 24.1275 11.464L29.0475 19H25.5915L21.4875 12.232H18.9915V19H15.9195V1.864H20.7915ZM20.5995 4.432H18.9915V9.712H20.6955C21.5435 9.712 22.2315 9.608 22.7595 9.4C23.2875 9.192 23.6715 8.888 23.9115 8.488C24.1675 8.088 24.2955 7.592 24.2955 7C24.2955 6.376 24.1595 5.88 23.8875 5.512C23.6155 5.128 23.2075 4.856 22.6635 4.696C22.1355 4.52 21.4475 4.432 20.5995 4.432ZM37.2431 19H30.0431V17.248L32.1071 16.48V4.408L30.0431 3.616V1.864H37.2431V3.616L35.1791 4.408V16.48L37.2431 17.248V19ZM45.4299 1.864C47.6539 1.864 49.2699 2.328 50.2779 3.256C51.3019 4.184 51.8139 5.464 51.8139 7.096C51.8139 7.832 51.7019 8.536 51.4779 9.208C51.2539 9.864 50.8779 10.456 50.3499 10.984C49.8219 11.512 49.1259 11.928 48.2619 12.232C47.4139 12.536 46.3579 12.688 45.0939 12.688H43.3899V19H40.3179V1.864H45.4299ZM45.2379 4.408H43.3899V10.144H44.7819C45.6139 10.144 46.3179 10.048 46.8939 9.856C47.4859 9.648 47.9339 9.328 48.2379 8.896C48.5419 8.464 48.6939 7.904 48.6939 7.216C48.6939 6.272 48.4139 5.568 47.8539 5.104C47.2939 4.64 46.4219 4.408 45.2379 4.408ZM55.1773 19V1.864H58.2493V16.408H65.4013V19H55.1773ZM74.1806 19H66.9806V17.248L69.0446 16.48V4.408L66.9806 3.616V1.864H74.1806V3.616L72.1166 4.408V16.48L74.1806 17.248V19ZM92.5674 10.408C92.5674 11.736 92.3994 12.944 92.0634 14.032C91.7434 15.104 91.2474 16.032 90.5754 16.816C89.9194 17.6 89.0794 18.192 88.0554 18.592L92.1834 23.08H88.1034L84.9114 19.24C84.8474 19.24 84.7754 19.24 84.6954 19.24C84.6314 19.24 84.5674 19.24 84.5034 19.24C83.1274 19.24 81.9274 19.032 80.9034 18.616C79.8954 18.184 79.0634 17.584 78.4074 16.816C77.7514 16.032 77.2554 15.096 76.9194 14.008C76.5994 12.92 76.4394 11.712 76.4394 10.384C76.4394 8.608 76.7274 7.064 77.3034 5.752C77.8954 4.44 78.7834 3.424 79.9674 2.704C81.1674 1.968 82.6874 1.6 84.5274 1.6C86.3354 1.6 87.8314 1.968 89.0154 2.704C90.1994 3.424 91.0874 4.448 91.6794 5.776C92.2714 7.088 92.5674 8.632 92.5674 10.408ZM79.6794 10.408C79.6794 11.704 79.8474 12.816 80.1834 13.744C80.5354 14.672 81.0634 15.384 81.7674 15.88C82.4874 16.376 83.3994 16.624 84.5034 16.624C85.6394 16.624 86.5594 16.376 87.2634 15.88C87.9674 15.384 88.4874 14.672 88.8234 13.744C89.1594 12.816 89.3274 11.704 89.3274 10.408C89.3274 8.472 88.9514 6.952 88.1994 5.848C87.4474 4.744 86.2234 4.192 84.5274 4.192C83.4074 4.192 82.4874 4.44 81.7674 4.936C81.0634 5.432 80.5354 6.144 80.1834 7.072C79.8474 8 79.6794 9.112 79.6794 10.408ZM109.8 12.952C109.8 14.136 109.544 15.208 109.032 16.168C108.536 17.112 107.776 17.864 106.752 18.424C105.728 18.968 104.432 19.24 102.864 19.24C100.64 19.24 98.9524 18.664 97.8004 17.512C96.6484 16.344 96.0724 14.808 96.0724 12.904V1.864H99.1444V12.592C99.1444 13.984 99.4644 15.008 100.104 15.664C100.744 16.304 101.696 16.624 102.96 16.624C103.856 16.624 104.576 16.472 105.12 16.168C105.68 15.864 106.088 15.408 106.344 14.8C106.616 14.176 106.752 13.432 106.752 12.568V1.864H109.8V12.952ZM123.89 19H114.146V1.864H123.89V4.432H117.218V8.8H123.458V11.368H117.218V16.408H123.89V19ZM143.723 14.32C143.723 15.328 143.475 16.2 142.979 16.936C142.483 17.672 141.763 18.24 140.819 18.64C139.891 19.04 138.779 19.24 137.483 19.24C136.859 19.24 136.259 19.2 135.683 19.12C135.123 19.056 134.587 18.952 134.075 18.808C133.579 18.664 133.115 18.488 132.683 18.28V15.4C133.403 15.72 134.195 16.016 135.059 16.288C135.923 16.544 136.803 16.672 137.699 16.672C138.387 16.672 138.947 16.584 139.379 16.408C139.827 16.216 140.155 15.96 140.363 15.64C140.571 15.304 140.675 14.92 140.675 14.488C140.675 14.008 140.539 13.6 140.267 13.264C139.995 12.928 139.595 12.616 139.067 12.328C138.539 12.04 137.883 11.736 137.099 11.416C136.571 11.192 136.051 10.944 135.539 10.672C135.043 10.384 134.595 10.04 134.195 9.64C133.795 9.24 133.475 8.768 133.235 8.224C132.995 7.68 132.875 7.04 132.875 6.304C132.875 5.328 133.107 4.488 133.571 3.784C134.051 3.08 134.715 2.544 135.563 2.176C136.427 1.808 137.427 1.624 138.563 1.624C139.475 1.624 140.331 1.72 141.131 1.912C141.931 2.104 142.723 2.376 143.507 2.728L142.523 5.2C141.819 4.896 141.139 4.656 140.483 4.48C139.827 4.304 139.155 4.216 138.467 4.216C137.923 4.216 137.459 4.304 137.075 4.48C136.691 4.64 136.403 4.872 136.211 5.176C136.019 5.48 135.923 5.832 135.923 6.232C135.923 6.696 136.043 7.088 136.283 7.408C136.523 7.728 136.891 8.032 137.387 8.32C137.899 8.592 138.555 8.904 139.355 9.256C140.283 9.656 141.067 10.072 141.707 10.504C142.347 10.936 142.843 11.456 143.195 12.064C143.547 12.672 143.723 13.424 143.723 14.32ZM156.703 19H146.959V1.864H156.703V4.432H150.031V8.8H156.271V11.368H150.031V16.408H156.703V19ZM173.925 12.952C173.925 14.136 173.669 15.208 173.157 16.168C172.661 17.112 171.901 17.864 170.877 18.424C169.853 18.968 168.557 19.24 166.989 19.24C164.765 19.24 163.077 18.664 161.925 17.512C160.773 16.344 160.197 14.808 160.197 12.904V1.864H163.269V12.592C163.269 13.984 163.589 15.008 164.229 15.664C164.869 16.304 165.821 16.624 167.085 16.624C167.981 16.624 168.701 16.472 169.245 16.168C169.805 15.864 170.213 15.408 170.469 14.8C170.741 14.176 170.877 13.432 170.877 12.568V1.864H173.925V12.952ZM194.465 14.32C194.465 15.328 194.217 16.2 193.721 16.936C193.225 17.672 192.505 18.24 191.561 18.64C190.633 19.04 189.521 19.24 188.225 19.24C187.601 19.24 187.001 19.2 186.425 19.12C185.865 19.056 185.329 18.952 184.817 18.808C184.321 18.664 183.857 18.488 183.425 18.28V15.4C184.145 15.72 184.937 16.016 185.801 16.288C186.665 16.544 187.545 16.672 188.441 16.672C189.129 16.672 189.689 16.584 190.121 16.408C190.569 16.216 190.897 15.96 191.105 15.64C191.313 15.304 191.417 14.92 191.417 14.488C191.417 14.008 191.281 13.6 191.009 13.264C190.737 12.928 190.337 12.616 189.809 12.328C189.281 12.04 188.625 11.736 187.841 11.416C187.313 11.192 186.793 10.944 186.281 10.672C185.785 10.384 185.337 10.04 184.937 9.64C184.537 9.24 184.217 8.768 183.977 8.224C183.737 7.68 183.617 7.04 183.617 6.304C183.617 5.328 183.849 4.488 184.313 3.784C184.793 3.08 185.457 2.544 186.305 2.176C187.169 1.808 188.169 1.624 189.305 1.624C190.217 1.624 191.073 1.72 191.873 1.912C192.673 2.104 193.465 2.376 194.249 2.728L193.265 5.2C192.561 4.896 191.881 4.656 191.225 4.48C190.569 4.304 189.897 4.216 189.209 4.216C188.665 4.216 188.201 4.304 187.817 4.48C187.433 4.64 187.145 4.872 186.953 5.176C186.761 5.48 186.665 5.832 186.665 6.232C186.665 6.696 186.785 7.088 187.025 7.408C187.265 7.728 187.633 8.032 188.129 8.32C188.641 8.592 189.297 8.904 190.097 9.256C191.025 9.656 191.809 10.072 192.449 10.504C193.089 10.936 193.585 11.456 193.937 12.064C194.289 12.672 194.465 13.424 194.465 14.32ZM208.285 19L206.725 14.464H200.269L198.733 19H195.469L201.757 1.792H205.261L211.549 19H208.285ZM204.445 7.408C204.381 7.184 204.285 6.88 204.157 6.496C204.029 6.112 203.901 5.72 203.773 5.32C203.661 4.904 203.573 4.56 203.509 4.288C203.429 4.608 203.325 4.976 203.197 5.392C203.085 5.808 202.973 6.2 202.861 6.568C202.765 6.936 202.685 7.216 202.621 7.408L201.109 11.824H205.933L204.445 7.408ZM213.802 19V1.864H216.874V16.408H224.026V19H213.802ZM237.582 19L236.022 14.464H229.566L228.03 19H224.766L231.054 1.792H234.558L240.846 19H237.582ZM233.742 7.408C233.678 7.184 233.582 6.88 233.454 6.496C233.326 6.112 233.198 5.72 233.07 5.32C232.958 4.904 232.87 4.56 232.806 4.288C232.726 4.608 232.622 4.976 232.494 5.392C232.382 5.808 232.27 6.2 232.158 6.568C232.062 6.936 231.982 7.216 231.918 7.408L230.406 11.824H235.23L233.742 7.408ZM237.294 -3.272C237.102 -3.048 236.838 -2.776 236.502 -2.456C236.182 -2.136 235.822 -1.8 235.422 -1.448C235.038 -1.096 234.654 -0.760001 234.27 -0.440001C233.902 -0.136001 233.574 0.119999 233.286 0.327999H231.27V0.0159998C231.526 -0.288001 231.814 -0.640001 232.134 -1.04C232.454 -1.456 232.766 -1.88 233.07 -2.312C233.39 -2.76 233.646 -3.16 233.838 -3.512H237.294V-3.272ZM247.971 1.864C249.475 1.864 250.715 2.048 251.691 2.416C252.667 2.784 253.395 3.344 253.875 4.096C254.355 4.832 254.595 5.768 254.595 6.904C254.595 7.736 254.435 8.448 254.115 9.04C253.811 9.632 253.411 10.128 252.915 10.528C252.419 10.912 251.883 11.224 251.307 11.464L256.227 19H252.771L248.667 12.232H246.171V19H243.099V1.864H247.971ZM247.779 4.432H246.171V9.712H247.875C248.723 9.712 249.411 9.608 249.939 9.4C250.467 9.192 250.851 8.888 251.091 8.488C251.347 8.088 251.475 7.592 251.475 7C251.475 6.376 251.339 5.88 251.067 5.512C250.795 5.128 250.387 4.856 249.843 4.696C249.315 4.52 248.627 4.432 247.779 4.432ZM264.423 19H257.223V17.248L259.287 16.48V4.408L257.223 3.616V1.864H264.423V3.616L262.359 4.408V16.48L264.423 17.248V19ZM282.81 10.408C282.81 11.736 282.642 12.944 282.306 14.032C281.986 15.104 281.49 16.032 280.818 16.816C280.162 17.6 279.322 18.2 278.298 18.616C277.29 19.032 276.106 19.24 274.746 19.24C273.37 19.24 272.17 19.032 271.146 18.616C270.138 18.184 269.306 17.584 268.65 16.816C267.994 16.032 267.498 15.096 267.162 14.008C266.842 12.92 266.682 11.712 266.682 10.384C266.682 8.608 266.97 7.064 267.546 5.752C268.138 4.44 269.026 3.424 270.21 2.704C271.41 1.968 272.93 1.6 274.77 1.6C276.578 1.6 278.074 1.968 279.258 2.704C280.442 3.424 281.33 4.448 281.922 5.776C282.514 7.088 282.81 8.632 282.81 10.408ZM269.922 10.408C269.922 11.704 270.09 12.816 270.426 13.744C270.778 14.672 271.306 15.384 272.01 15.88C272.73 16.376 273.642 16.624 274.746 16.624C275.882 16.624 276.802 16.376 277.506 15.88C278.21 15.384 278.73 14.672 279.066 13.744C279.402 12.816 279.57 11.704 279.57 10.408C279.57 8.472 279.194 6.952 278.442 5.848C277.69 4.744 276.466 4.192 274.77 4.192C273.65 4.192 272.73 4.44 272.01 4.936C271.306 5.432 270.778 6.144 270.426 7.072C270.09 8 269.922 9.112 269.922 10.408Z" fill="#0D0F10" data-name="TRIPLIQUE SEU SALÁRIO"/>
		</g>
		<g data-name="TRIPLIQUE SEU SALÁRIO" transform="translate(2111 0)">
		<path d="M7.752 19H5.592V3.76H0.24V1.864H13.08V3.76H7.752V19ZM20.3919 1.864C21.8159 1.864 22.9839 2.048 23.8959 2.416C24.8239 2.768 25.5119 3.304 25.9599 4.024C26.4079 4.744 26.6319 5.648 26.6319 6.736C26.6319 7.648 26.4639 8.408 26.1279 9.016C25.7919 9.624 25.3599 10.112 24.8319 10.48C24.3199 10.832 23.7759 11.112 23.1999 11.32L27.9039 19H25.3839L21.2319 11.92H17.8239V19H15.6639V1.864H20.3919ZM20.2719 3.736H17.8239V10.096H20.3919C21.3199 10.096 22.0799 9.976 22.6719 9.736C23.2639 9.48 23.6959 9.112 23.9679 8.632C24.2559 8.152 24.3999 7.552 24.3999 6.832C24.3999 6.08 24.2479 5.48 23.9439 5.032C23.6559 4.584 23.2079 4.256 22.5999 4.048C21.9919 3.84 21.2159 3.736 20.2719 3.736ZM35.4176 19H29.2256V17.752L31.2416 17.296V3.592L29.2256 3.112V1.864H35.4176V3.112L33.4016 3.592V17.296L35.4176 17.752V19ZM43.2624 1.864C45.5024 1.864 47.1344 2.304 48.1584 3.184C49.1824 4.064 49.6944 5.304 49.6944 6.904C49.6944 7.608 49.5744 8.288 49.3344 8.944C49.1104 9.584 48.7344 10.16 48.2064 10.672C47.6784 11.184 46.9744 11.592 46.0944 11.896C45.2144 12.184 44.1344 12.328 42.8544 12.328H40.8864V19H38.7264V1.864H43.2624ZM43.0704 3.712H40.8864V10.48H42.6144C43.7024 10.48 44.6064 10.368 45.3264 10.144C46.0464 9.904 46.5824 9.528 46.9344 9.016C47.2864 8.504 47.4624 7.832 47.4624 7C47.4624 5.896 47.1104 5.072 46.4064 4.528C45.7024 3.984 44.5904 3.712 43.0704 3.712ZM53.2577 19V1.864H55.4177V17.08H62.9057V19H53.2577ZM70.6676 19H64.4756V17.752L66.4916 17.296V3.592L64.4756 3.112V1.864H70.6676V3.112L68.6516 3.592V17.296L70.6676 17.752V19ZM88.9284 10.408C88.9284 11.8 88.7364 13.064 88.3524 14.2C87.9844 15.336 87.4324 16.296 86.6964 17.08C85.9604 17.864 85.0404 18.44 83.9364 18.808L88.0404 23.08H84.9444L81.6324 19.216C81.5364 19.216 81.4324 19.216 81.3204 19.216C81.2244 19.232 81.1284 19.24 81.0324 19.24C79.6884 19.24 78.5204 19.032 77.5284 18.616C76.5364 18.184 75.7124 17.584 75.0564 16.816C74.4004 16.032 73.9124 15.096 73.5924 14.008C73.2724 12.92 73.1124 11.712 73.1124 10.384C73.1124 8.624 73.4004 7.088 73.9764 5.776C74.5524 4.464 75.4244 3.44 76.5924 2.704C77.7764 1.968 79.2644 1.6 81.0564 1.6C82.7684 1.6 84.2084 1.968 85.3764 2.704C86.5444 3.424 87.4244 4.448 88.0164 5.776C88.6244 7.088 88.9284 8.632 88.9284 10.408ZM75.3924 10.408C75.3924 11.848 75.5924 13.088 75.9924 14.128C76.3924 15.168 77.0084 15.968 77.8404 16.528C78.6884 17.088 79.7524 17.368 81.0324 17.368C82.3284 17.368 83.3844 17.088 84.2004 16.528C85.0324 15.968 85.6484 15.168 86.0484 14.128C86.4484 13.088 86.6484 11.848 86.6484 10.408C86.6484 8.248 86.2004 6.56 85.3044 5.344C84.4084 4.112 82.9924 3.496 81.0564 3.496C79.7604 3.496 78.6884 3.776 77.8404 4.336C77.0084 4.88 76.3924 5.672 75.9924 6.712C75.5924 7.736 75.3924 8.968 75.3924 10.408ZM105.758 12.952C105.758 14.136 105.518 15.208 105.038 16.168C104.558 17.112 103.822 17.864 102.83 18.424C101.854 18.968 100.606 19.24 99.0864 19.24C96.9584 19.24 95.3344 18.664 94.2144 17.512C93.1104 16.344 92.5584 14.808 92.5584 12.904V1.864H94.7184V12.976C94.7184 14.368 95.0864 15.448 95.8224 16.216C96.5744 16.984 97.7024 17.368 99.2064 17.368C100.246 17.368 101.086 17.184 101.726 16.816C102.382 16.432 102.862 15.912 103.166 15.256C103.47 14.584 103.622 13.816 103.622 12.952V1.864H105.758V12.952ZM119.857 19H110.281V1.864H119.857V3.76H112.441V9.112H119.425V10.984H112.441V17.104H119.857V19ZM139.571 14.416C139.571 15.44 139.323 16.312 138.827 17.032C138.331 17.736 137.619 18.28 136.691 18.664C135.779 19.048 134.699 19.24 133.451 19.24C132.811 19.24 132.195 19.208 131.603 19.144C131.027 19.08 130.499 18.992 130.019 18.88C129.539 18.752 129.115 18.6 128.747 18.424V16.36C129.323 16.616 130.035 16.848 130.883 17.056C131.747 17.264 132.635 17.368 133.547 17.368C134.395 17.368 135.107 17.256 135.683 17.032C136.259 16.808 136.691 16.488 136.979 16.072C137.267 15.656 137.411 15.168 137.411 14.608C137.411 14.048 137.291 13.576 137.051 13.192C136.811 12.808 136.395 12.456 135.803 12.136C135.227 11.8 134.419 11.448 133.379 11.08C132.643 10.808 131.995 10.52 131.435 10.216C130.891 9.896 130.435 9.536 130.067 9.136C129.699 8.736 129.419 8.28 129.227 7.768C129.051 7.256 128.963 6.664 128.963 5.992C128.963 5.08 129.195 4.304 129.659 3.664C130.123 3.008 130.763 2.504 131.579 2.152C132.411 1.8 133.363 1.624 134.435 1.624C135.379 1.624 136.243 1.712 137.027 1.888C137.811 2.064 138.523 2.296 139.163 2.584L138.491 4.432C137.899 4.176 137.251 3.96 136.547 3.784C135.859 3.608 135.139 3.52 134.387 3.52C133.667 3.52 133.067 3.624 132.587 3.832C132.107 4.04 131.747 4.336 131.507 4.72C131.267 5.088 131.147 5.52 131.147 6.016C131.147 6.592 131.267 7.072 131.507 7.456C131.747 7.84 132.139 8.184 132.683 8.488C133.227 8.792 133.963 9.12 134.891 9.472C135.899 9.84 136.747 10.24 137.435 10.672C138.139 11.088 138.667 11.592 139.019 12.184C139.387 12.776 139.571 13.52 139.571 14.416ZM152.599 19H143.023V1.864H152.599V3.76H145.183V9.112H152.167V10.984H145.183V17.104H152.599V19ZM169.391 12.952C169.391 14.136 169.151 15.208 168.671 16.168C168.191 17.112 167.455 17.864 166.463 18.424C165.487 18.968 164.239 19.24 162.719 19.24C160.591 19.24 158.967 18.664 157.847 17.512C156.743 16.344 156.191 14.808 156.191 12.904V1.864H158.351V12.976C158.351 14.368 158.719 15.448 159.455 16.216C160.207 16.984 161.335 17.368 162.839 17.368C163.879 17.368 164.719 17.184 165.359 16.816C166.015 16.432 166.495 15.912 166.799 15.256C167.103 14.584 167.255 13.816 167.255 12.952V1.864H169.391V12.952ZM189.868 14.416C189.868 15.44 189.62 16.312 189.124 17.032C188.628 17.736 187.916 18.28 186.988 18.664C186.076 19.048 184.996 19.24 183.748 19.24C183.108 19.24 182.492 19.208 181.9 19.144C181.324 19.08 180.796 18.992 180.316 18.88C179.836 18.752 179.412 18.6 179.044 18.424V16.36C179.62 16.616 180.332 16.848 181.18 17.056C182.044 17.264 182.932 17.368 183.844 17.368C184.692 17.368 185.404 17.256 185.98 17.032C186.556 16.808 186.988 16.488 187.276 16.072C187.564 15.656 187.708 15.168 187.708 14.608C187.708 14.048 187.588 13.576 187.348 13.192C187.108 12.808 186.692 12.456 186.1 12.136C185.524 11.8 184.716 11.448 183.676 11.08C182.94 10.808 182.292 10.52 181.732 10.216C181.188 9.896 180.732 9.536 180.364 9.136C179.996 8.736 179.716 8.28 179.524 7.768C179.348 7.256 179.26 6.664 179.26 5.992C179.26 5.08 179.492 4.304 179.956 3.664C180.42 3.008 181.06 2.504 181.876 2.152C182.708 1.8 183.66 1.624 184.732 1.624C185.676 1.624 186.54 1.712 187.324 1.888C188.108 2.064 188.82 2.296 189.46 2.584L188.788 4.432C188.196 4.176 187.548 3.96 186.844 3.784C186.156 3.608 185.436 3.52 184.684 3.52C183.964 3.52 183.364 3.624 182.884 3.832C182.404 4.04 182.044 4.336 181.804 4.72C181.564 5.088 181.444 5.52 181.444 6.016C181.444 6.592 181.564 7.072 181.804 7.456C182.044 7.84 182.436 8.184 182.98 8.488C183.524 8.792 184.26 9.12 185.188 9.472C186.196 9.84 187.044 10.24 187.732 10.672C188.436 11.088 188.964 11.592 189.316 12.184C189.684 12.776 189.868 13.52 189.868 14.416ZM204.072 19L202.008 13.696H195.216L193.176 19H190.992L197.688 1.792H199.632L206.304 19H204.072ZM199.44 6.592C199.392 6.464 199.312 6.232 199.2 5.896C199.088 5.56 198.976 5.216 198.864 4.864C198.768 4.496 198.688 4.216 198.624 4.024C198.544 4.344 198.456 4.672 198.36 5.008C198.28 5.328 198.192 5.624 198.096 5.896C198.016 6.168 197.944 6.4 197.88 6.592L195.936 11.776H201.36L199.44 6.592ZM208.648 19V1.864H210.808V17.08H218.296V19H208.648ZM231.986 19L229.922 13.696H223.13L221.09 19H218.906L225.602 1.792H227.546L234.218 19H231.986ZM227.354 6.592C227.306 6.464 227.226 6.232 227.114 5.896C227.002 5.56 226.89 5.216 226.778 4.864C226.682 4.496 226.602 4.216 226.538 4.024C226.458 4.344 226.37 4.672 226.274 5.008C226.194 5.328 226.106 5.624 226.01 5.896C225.93 6.168 225.858 6.4 225.794 6.592L223.85 11.776H229.274L227.354 6.592ZM230.09 -3.416C229.946 -3.192 229.738 -2.92 229.466 -2.6C229.194 -2.28 228.89 -1.944 228.554 -1.592C228.234 -1.256 227.906 -0.928 227.57 -0.608001C227.25 -0.304001 226.946 -0.0400009 226.658 0.183999H225.266V-0.104002C225.506 -0.408001 225.762 -0.768001 226.034 -1.184C226.322 -1.6 226.602 -2.024 226.874 -2.456C227.146 -2.904 227.37 -3.304 227.546 -3.656H230.09V-3.416ZM241.29 1.864C242.714 1.864 243.882 2.048 244.794 2.416C245.722 2.768 246.41 3.304 246.858 4.024C247.306 4.744 247.53 5.648 247.53 6.736C247.53 7.648 247.362 8.408 247.026 9.016C246.69 9.624 246.258 10.112 245.73 10.48C245.218 10.832 244.674 11.112 244.098 11.32L248.802 19H246.282L242.13 11.92H238.722V19H236.562V1.864H241.29ZM241.17 3.736H238.722V10.096H241.29C242.218 10.096 242.978 9.976 243.57 9.736C244.162 9.48 244.594 9.112 244.866 8.632C245.154 8.152 245.298 7.552 245.298 6.832C245.298 6.08 245.146 5.48 244.842 5.032C244.554 4.584 244.106 4.256 243.498 4.048C242.89 3.84 242.114 3.736 241.17 3.736ZM256.316 19H250.124V17.752L252.14 17.296V3.592L250.124 3.112V1.864H256.316V3.112L254.3 3.592V17.296L256.316 17.752V19ZM274.577 10.408C274.577 11.736 274.409 12.944 274.073 14.032C273.737 15.104 273.233 16.032 272.561 16.816C271.905 17.6 271.081 18.2 270.089 18.616C269.113 19.032 267.977 19.24 266.681 19.24C265.337 19.24 264.169 19.032 263.177 18.616C262.185 18.184 261.361 17.584 260.705 16.816C260.049 16.032 259.561 15.096 259.241 14.008C258.921 12.92 258.761 11.712 258.761 10.384C258.761 8.624 259.049 7.088 259.625 5.776C260.201 4.464 261.073 3.44 262.241 2.704C263.425 1.968 264.913 1.6 266.705 1.6C268.417 1.6 269.857 1.968 271.025 2.704C272.193 3.424 273.073 4.448 273.665 5.776C274.273 7.088 274.577 8.632 274.577 10.408ZM261.041 10.408C261.041 11.848 261.241 13.088 261.641 14.128C262.041 15.168 262.657 15.968 263.489 16.528C264.337 17.088 265.401 17.368 266.681 17.368C267.977 17.368 269.033 17.088 269.849 16.528C270.681 15.968 271.297 15.168 271.697 14.128C272.097 13.088 272.297 11.848 272.297 10.408C272.297 8.248 271.849 6.56 270.953 5.344C270.057 4.112 268.641 3.496 266.705 3.496C265.409 3.496 264.337 3.776 263.489 4.336C262.657 4.88 262.041 5.672 261.641 6.712C261.241 7.736 261.041 8.968 261.041 10.408Z" fill="#0D0F10" data-name="TRIPLIQUE SEU SALÁRIO"/>
		</g>
		<g data-name="TRIPLIQUE SEU SALÁRIO" transform="translate(2408 0)">
		<path d="M8.376 19H5.304V4.456H0.384V1.864H13.296V4.456H8.376V19ZM20.7915 1.864C22.2955 1.864 23.5355 2.048 24.5115 2.416C25.4875 2.784 26.2155 3.344 26.6955 4.096C27.1755 4.832 27.4155 5.768 27.4155 6.904C27.4155 7.736 27.2555 8.448 26.9355 9.04C26.6315 9.632 26.2315 10.128 25.7355 10.528C25.2395 10.912 24.7035 11.224 24.1275 11.464L29.0475 19H25.5915L21.4875 12.232H18.9915V19H15.9195V1.864H20.7915ZM20.5995 4.432H18.9915V9.712H20.6955C21.5435 9.712 22.2315 9.608 22.7595 9.4C23.2875 9.192 23.6715 8.888 23.9115 8.488C24.1675 8.088 24.2955 7.592 24.2955 7C24.2955 6.376 24.1595 5.88 23.8875 5.512C23.6155 5.128 23.2075 4.856 22.6635 4.696C22.1355 4.52 21.4475 4.432 20.5995 4.432ZM37.2431 19H30.0431V17.248L32.1071 16.48V4.408L30.0431 3.616V1.864H37.2431V3.616L35.1791 4.408V16.48L37.2431 17.248V19ZM45.4299 1.864C47.6539 1.864 49.2699 2.328 50.2779 3.256C51.3019 4.184 51.8139 5.464 51.8139 7.096C51.8139 7.832 51.7019 8.536 51.4779 9.208C51.2539 9.864 50.8779 10.456 50.3499 10.984C49.8219 11.512 49.1259 11.928 48.2619 12.232C47.4139 12.536 46.3579 12.688 45.0939 12.688H43.3899V19H40.3179V1.864H45.4299ZM45.2379 4.408H43.3899V10.144H44.7819C45.6139 10.144 46.3179 10.048 46.8939 9.856C47.4859 9.648 47.9339 9.328 48.2379 8.896C48.5419 8.464 48.6939 7.904 48.6939 7.216C48.6939 6.272 48.4139 5.568 47.8539 5.104C47.2939 4.64 46.4219 4.408 45.2379 4.408ZM55.1773 19V1.864H58.2493V16.408H65.4013V19H55.1773ZM74.1806 19H66.9806V17.248L69.0446 16.48V4.408L66.9806 3.616V1.864H74.1806V3.616L72.1166 4.408V16.48L74.1806 17.248V19ZM92.5674 10.408C92.5674 11.736 92.3994 12.944 92.0634 14.032C91.7434 15.104 91.2474 16.032 90.5754 16.816C89.9194 17.6 89.0794 18.192 88.0554 18.592L92.1834 23.08H88.1034L84.9114 19.24C84.8474 19.24 84.7754 19.24 84.6954 19.24C84.6314 19.24 84.5674 19.24 84.5034 19.24C83.1274 19.24 81.9274 19.032 80.9034 18.616C79.8954 18.184 79.0634 17.584 78.4074 16.816C77.7514 16.032 77.2554 15.096 76.9194 14.008C76.5994 12.92 76.4394 11.712 76.4394 10.384C76.4394 8.608 76.7274 7.064 77.3034 5.752C77.8954 4.44 78.7834 3.424 79.9674 2.704C81.1674 1.968 82.6874 1.6 84.5274 1.6C86.3354 1.6 87.8314 1.968 89.0154 2.704C90.1994 3.424 91.0874 4.448 91.6794 5.776C92.2714 7.088 92.5674 8.632 92.5674 10.408ZM79.6794 10.408C79.6794 11.704 79.8474 12.816 80.1834 13.744C80.5354 14.672 81.0634 15.384 81.7674 15.88C82.4874 16.376 83.3994 16.624 84.5034 16.624C85.6394 16.624 86.5594 16.376 87.2634 15.88C87.9674 15.384 88.4874 14.672 88.8234 13.744C89.1594 12.816 89.3274 11.704 89.3274 10.408C89.3274 8.472 88.9514 6.952 88.1994 5.848C87.4474 4.744 86.2234 4.192 84.5274 4.192C83.4074 4.192 82.4874 4.44 81.7674 4.936C81.0634 5.432 80.5354 6.144 80.1834 7.072C79.8474 8 79.6794 9.112 79.6794 10.408ZM109.8 12.952C109.8 14.136 109.544 15.208 109.032 16.168C108.536 17.112 107.776 17.864 106.752 18.424C105.728 18.968 104.432 19.24 102.864 19.24C100.64 19.24 98.9524 18.664 97.8004 17.512C96.6484 16.344 96.0724 14.808 96.0724 12.904V1.864H99.1444V12.592C99.1444 13.984 99.4644 15.008 100.104 15.664C100.744 16.304 101.696 16.624 102.96 16.624C103.856 16.624 104.576 16.472 105.12 16.168C105.68 15.864 106.088 15.408 106.344 14.8C106.616 14.176 106.752 13.432 106.752 12.568V1.864H109.8V12.952ZM123.89 19H114.146V1.864H123.89V4.432H117.218V8.8H123.458V11.368H117.218V16.408H123.89V19ZM143.723 14.32C143.723 15.328 143.475 16.2 142.979 16.936C142.483 17.672 141.763 18.24 140.819 18.64C139.891 19.04 138.779 19.24 137.483 19.24C136.859 19.24 136.259 19.2 135.683 19.12C135.123 19.056 134.587 18.952 134.075 18.808C133.579 18.664 133.115 18.488 132.683 18.28V15.4C133.403 15.72 134.195 16.016 135.059 16.288C135.923 16.544 136.803 16.672 137.699 16.672C138.387 16.672 138.947 16.584 139.379 16.408C139.827 16.216 140.155 15.96 140.363 15.64C140.571 15.304 140.675 14.92 140.675 14.488C140.675 14.008 140.539 13.6 140.267 13.264C139.995 12.928 139.595 12.616 139.067 12.328C138.539 12.04 137.883 11.736 137.099 11.416C136.571 11.192 136.051 10.944 135.539 10.672C135.043 10.384 134.595 10.04 134.195 9.64C133.795 9.24 133.475 8.768 133.235 8.224C132.995 7.68 132.875 7.04 132.875 6.304C132.875 5.328 133.107 4.488 133.571 3.784C134.051 3.08 134.715 2.544 135.563 2.176C136.427 1.808 137.427 1.624 138.563 1.624C139.475 1.624 140.331 1.72 141.131 1.912C141.931 2.104 142.723 2.376 143.507 2.728L142.523 5.2C141.819 4.896 141.139 4.656 140.483 4.48C139.827 4.304 139.155 4.216 138.467 4.216C137.923 4.216 137.459 4.304 137.075 4.48C136.691 4.64 136.403 4.872 136.211 5.176C136.019 5.48 135.923 5.832 135.923 6.232C135.923 6.696 136.043 7.088 136.283 7.408C136.523 7.728 136.891 8.032 137.387 8.32C137.899 8.592 138.555 8.904 139.355 9.256C140.283 9.656 141.067 10.072 141.707 10.504C142.347 10.936 142.843 11.456 143.195 12.064C143.547 12.672 143.723 13.424 143.723 14.32ZM156.703 19H146.959V1.864H156.703V4.432H150.031V8.8H156.271V11.368H150.031V16.408H156.703V19ZM173.925 12.952C173.925 14.136 173.669 15.208 173.157 16.168C172.661 17.112 171.901 17.864 170.877 18.424C169.853 18.968 168.557 19.24 166.989 19.24C164.765 19.24 163.077 18.664 161.925 17.512C160.773 16.344 160.197 14.808 160.197 12.904V1.864H163.269V12.592C163.269 13.984 163.589 15.008 164.229 15.664C164.869 16.304 165.821 16.624 167.085 16.624C167.981 16.624 168.701 16.472 169.245 16.168C169.805 15.864 170.213 15.408 170.469 14.8C170.741 14.176 170.877 13.432 170.877 12.568V1.864H173.925V12.952ZM194.465 14.32C194.465 15.328 194.217 16.2 193.721 16.936C193.225 17.672 192.505 18.24 191.561 18.64C190.633 19.04 189.521 19.24 188.225 19.24C187.601 19.24 187.001 19.2 186.425 19.12C185.865 19.056 185.329 18.952 184.817 18.808C184.321 18.664 183.857 18.488 183.425 18.28V15.4C184.145 15.72 184.937 16.016 185.801 16.288C186.665 16.544 187.545 16.672 188.441 16.672C189.129 16.672 189.689 16.584 190.121 16.408C190.569 16.216 190.897 15.96 191.105 15.64C191.313 15.304 191.417 14.92 191.417 14.488C191.417 14.008 191.281 13.6 191.009 13.264C190.737 12.928 190.337 12.616 189.809 12.328C189.281 12.04 188.625 11.736 187.841 11.416C187.313 11.192 186.793 10.944 186.281 10.672C185.785 10.384 185.337 10.04 184.937 9.64C184.537 9.24 184.217 8.768 183.977 8.224C183.737 7.68 183.617 7.04 183.617 6.304C183.617 5.328 183.849 4.488 184.313 3.784C184.793 3.08 185.457 2.544 186.305 2.176C187.169 1.808 188.169 1.624 189.305 1.624C190.217 1.624 191.073 1.72 191.873 1.912C192.673 2.104 193.465 2.376 194.249 2.728L193.265 5.2C192.561 4.896 191.881 4.656 191.225 4.48C190.569 4.304 189.897 4.216 189.209 4.216C188.665 4.216 188.201 4.304 187.817 4.48C187.433 4.64 187.145 4.872 186.953 5.176C186.761 5.48 186.665 5.832 186.665 6.232C186.665 6.696 186.785 7.088 187.025 7.408C187.265 7.728 187.633 8.032 188.129 8.32C188.641 8.592 189.297 8.904 190.097 9.256C191.025 9.656 191.809 10.072 192.449 10.504C193.089 10.936 193.585 11.456 193.937 12.064C194.289 12.672 194.465 13.424 194.465 14.32ZM208.285 19L206.725 14.464H200.269L198.733 19H195.469L201.757 1.792H205.261L211.549 19H208.285ZM204.445 7.408C204.381 7.184 204.285 6.88 204.157 6.496C204.029 6.112 203.901 5.72 203.773 5.32C203.661 4.904 203.573 4.56 203.509 4.288C203.429 4.608 203.325 4.976 203.197 5.392C203.085 5.808 202.973 6.2 202.861 6.568C202.765 6.936 202.685 7.216 202.621 7.408L201.109 11.824H205.933L204.445 7.408ZM213.802 19V1.864H216.874V16.408H224.026V19H213.802ZM237.582 19L236.022 14.464H229.566L228.03 19H224.766L231.054 1.792H234.558L240.846 19H237.582ZM233.742 7.408C233.678 7.184 233.582 6.88 233.454 6.496C233.326 6.112 233.198 5.72 233.07 5.32C232.958 4.904 232.87 4.56 232.806 4.288C232.726 4.608 232.622 4.976 232.494 5.392C232.382 5.808 232.27 6.2 232.158 6.568C232.062 6.936 231.982 7.216 231.918 7.408L230.406 11.824H235.23L233.742 7.408ZM237.294 -3.272C237.102 -3.048 236.838 -2.776 236.502 -2.456C236.182 -2.136 235.822 -1.8 235.422 -1.448C235.038 -1.096 234.654 -0.760001 234.27 -0.440001C233.902 -0.136001 233.574 0.119999 233.286 0.327999H231.27V0.0159998C231.526 -0.288001 231.814 -0.640001 232.134 -1.04C232.454 -1.456 232.766 -1.88 233.07 -2.312C233.39 -2.76 233.646 -3.16 233.838 -3.512H237.294V-3.272ZM247.971 1.864C249.475 1.864 250.715 2.048 251.691 2.416C252.667 2.784 253.395 3.344 253.875 4.096C254.355 4.832 254.595 5.768 254.595 6.904C254.595 7.736 254.435 8.448 254.115 9.04C253.811 9.632 253.411 10.128 252.915 10.528C252.419 10.912 251.883 11.224 251.307 11.464L256.227 19H252.771L248.667 12.232H246.171V19H243.099V1.864H247.971ZM247.779 4.432H246.171V9.712H247.875C248.723 9.712 249.411 9.608 249.939 9.4C250.467 9.192 250.851 8.888 251.091 8.488C251.347 8.088 251.475 7.592 251.475 7C251.475 6.376 251.339 5.88 251.067 5.512C250.795 5.128 250.387 4.856 249.843 4.696C249.315 4.52 248.627 4.432 247.779 4.432ZM264.423 19H257.223V17.248L259.287 16.48V4.408L257.223 3.616V1.864H264.423V3.616L262.359 4.408V16.48L264.423 17.248V19ZM282.81 10.408C282.81 11.736 282.642 12.944 282.306 14.032C281.986 15.104 281.49 16.032 280.818 16.816C280.162 17.6 279.322 18.2 278.298 18.616C277.29 19.032 276.106 19.24 274.746 19.24C273.37 19.24 272.17 19.032 271.146 18.616C270.138 18.184 269.306 17.584 268.65 16.816C267.994 16.032 267.498 15.096 267.162 14.008C266.842 12.92 266.682 11.712 266.682 10.384C266.682 8.608 266.97 7.064 267.546 5.752C268.138 4.44 269.026 3.424 270.21 2.704C271.41 1.968 272.93 1.6 274.77 1.6C276.578 1.6 278.074 1.968 279.258 2.704C280.442 3.424 281.33 4.448 281.922 5.776C282.514 7.088 282.81 8.632 282.81 10.408ZM269.922 10.408C269.922 11.704 270.09 12.816 270.426 13.744C270.778 14.672 271.306 15.384 272.01 15.88C272.73 16.376 273.642 16.624 274.746 16.624C275.882 16.624 276.802 16.376 277.506 15.88C278.21 15.384 278.73 14.672 279.066 13.744C279.402 12.816 279.57 11.704 279.57 10.408C279.57 8.472 279.194 6.952 278.442 5.848C277.69 4.744 276.466 4.192 274.77 4.192C273.65 4.192 272.73 4.44 272.01 4.936C271.306 5.432 270.778 6.144 270.426 7.072C270.09 8 269.922 9.112 269.922 10.408Z" fill="#0D0F10" data-name="TRIPLIQUE SEU SALÁRIO"/>
		</g>
	</g>
</g>
<defs><clipPath id="clip_0_782"><rect width="1932" height="87"/></clipPath>
<linearGradient id="paint_linear___49" x1="0" y1="43.0165" x2="1932" y2="43.0129" gradientUnits="userSpaceOnUse">
<stop stop-color="#00FF0A"/>
<stop offset="1" stop-color="#00C2FF"/>
</linearGradient>

<linearGradient id="paint_linear___48" x1="0" y1="43.0165" x2="1932" y2="43.0129" gradientUnits="userSpaceOnUse">
<stop stop-color="#00C2FF"/>
<stop offset="1" stop-color="#00FF0A"/>
</linearGradient>

<clipPath id="clip0_503_2353">
<rect width="285" height="20" fill="white"/>
</clipPath>

<clipPath id="clip0_503_2355">
<rect width="277" height="20" fill="white"/>
</clipPath>

<clipPath id="clip0_503_2357">
<rect width="285" height="20" fill="white"/>
</clipPath>

<clipPath id="clip0_503_2359">
<rect width="277" height="20" fill="white"/>
</clipPath>

<clipPath id="clip0_503_2361">
<rect width="285" height="20" fill="white"/>
</clipPath>

<clipPath id="clip0_503_2363">
<rect width="277" height="20" fill="white"/>
</clipPath>

<clipPath id="clip0_503_2365">
<rect width="285" height="20" fill="white"/>
</clipPath>

<clipPath id="clip0_503_2367">
<rect width="277" height="20" fill="white"/>
</clipPath>

<clipPath id="clip0_503_2369">
<rect width="285" height="20" fill="white"/>
</clipPath>

</defs>
</svg>