<svg id="5193302" viewBox="0 0 218 218" xmlns="http://www.w3.org/2000/svg" xmlns:xlink="http://www.w3.org/1999/xlink"><g transform="matrix(1,0,0,1,0,0)"><g id="5193302" opacity="1" style="mix-blend-mode:normal"><g><g><defs><filter id="5193304_dropShadow_0" x="-100%" y="-100%" width="300%" height="300%" filterUnits="userSpaceOnUse"><feOffset id="5193304_dropShadow_0_offset" dx="0" dy="4" in="SourceGraphic" result="5193304_dropShadow_0_offset"></feOffset><feGaussianBlur id="5193304_dropShadow_0_radius" stdDeviation="2" in="5193304_dropShadow_0_offset" result="5193304_dropShadow_0_blur"></feGaussianBlur><feFlood flood-color="rgb(0 0 0)" flood-opacity="0.25" in="5193304_dropShadow_0_blur" result="5193304_dropShadow_0_color"></feFlood><feComposite operator="in" in="5193304_dropShadow_0_color" in2="5193304_dropShadow_0_blur" result="5193304_dropShadow_0_shadow_result"></feComposite><feMerge><feMergeNode in="5193304_dropShadow_0_shadow_result"></feMergeNode><feMergeNode in="SourceGraphic"></feMergeNode></feMerge></filter></defs><g filter="url(#5193304_dropShadow_0)"><g transform="matrix(1,0,0,1,0,0)"><g id="5193304" opacity="1" style="mix-blend-mode:normal"><g><g><g style="mix-blend-mode:normal"><defs><linearGradient id="lcyplblarf4jnbvpf8" x1="11.026309560274424" y1="74.23535037924586" x2="242.64121508434258" y2="185.37315551855428" gradientUnits="userSpaceOnUse"><stop offset="0%" stop-opacity="1" stop-color="rgb(0, 255, 10)"></stop><stop offset="100%" stop-opacity="1" stop-color="rgb(0, 194, 255)"></stop></linearGradient></defs><path id="5193304_fill_path" d="M 103.00770000000001 5.4624999999999995 C 102.68640000000002 5.755299999999999, 102.3558 6.0055, 101.9864 6.2352 C 101.617 6.4649, 101.24620000000002 6.6494, 100.84150000000001 6.8081 C 100.4368 6.966799999999999, 100.03860000000002 7.081599999999999, 99.61160000000001 7.163899999999999 C 99.1846 7.246199999999999, 98.77200000000002 7.286, 98.33730000000001 7.289199999999999 C 97.9026 7.292399999999999, 97.4894 7.2569, 97.0614 7.1800999999999995 C 96.63340000000001 7.103299999999999, 96.23320000000001 6.9936, 95.82650000000001 6.8405 C 95.41980000000001 6.687399999999999, 95.04720000000002 6.5061, 94.67510000000001 6.2818 C 94.30300000000001 6.057499999999999, 93.5764 5.619500000000001, 93.20240000000001 5.3938000000000015 C 92.82840000000002 5.168100000000002, 92.44780000000002 4.983200000000002, 92.03880000000001 4.830400000000002 C 91.6298 4.677600000000002, 91.2219 4.566300000000001, 90.79140000000001 4.491200000000001 C 90.36090000000002 4.416100000000001, 89.93990000000001 4.3820000000000014, 89.50330000000001 4.387400000000001 C 89.06670000000001 4.392800000000001, 88.64590000000001 4.4357000000000015, 88.21730000000001 4.521200000000001 C 87.7887 4.606700000000001, 87.38380000000001 4.727700000000001, 86.9783 4.890100000000001 C 86.5728 5.052500000000001, 86.1972 5.245400000000002, 85.8284 5.479800000000002 C 85.45960000000001 5.714200000000002, 85.12490000000001 5.973300000000002, 84.80600000000001 6.271400000000002 C 84.48710000000001 6.5695000000000014, 84.2063 6.885700000000002, 83.9475 7.237200000000001 C 83.68870000000001 7.588700000000001, 83.1886 8.2679, 82.9309 8.617999999999999 C 82.6732 8.968099999999998, 82.39699999999999 9.278400000000001, 82.07979999999999 9.576 C 81.76259999999999 9.8736, 81.43579999999999 10.128499999999999, 81.06939999999999 10.3629 C 80.70299999999999 10.5973, 80.33419999999998 10.789100000000001, 79.93149999999999 10.9525 C 79.52879999999999 11.1159, 79.13069999999999 11.237499999999999, 78.7049 11.3248 C 78.2791 11.4121, 77.86659999999999 11.4588, 77.4318 11.4673 C 76.997 11.4758, 76.58289999999998 11.445599999999999, 76.15409999999999 11.3751 C 75.72529999999999 11.3046, 75.32239999999999 11.199200000000001, 74.91389999999998 11.0515 C 74.50539999999998 10.9038, 73.70580000000001 10.615400000000001, 73.2943 10.466700000000001 C 72.8828 10.318000000000001, 72.47460000000001 10.2121, 72.043 10.1417 C 71.6114 10.0713, 71.19130000000001 10.041500000000001, 70.75370000000001 10.0516 C 70.3161 10.0617, 69.89720000000001 10.110500000000002, 69.46940000000001 10.200700000000001 C 69.0416 10.2909, 68.6389 10.416400000000001, 68.2346 10.5836 C 67.8303 10.7508, 67.4572 10.9472, 67.0909 11.186200000000001 C 66.72460000000001 11.425200000000002, 66.3948 11.6872, 66.0785 11.989700000000001 C 65.7622 12.292200000000001, 65.48500000000001 12.610300000000002, 65.23010000000001 12.965500000000002 C 64.9752 13.320700000000002, 64.7617 13.6849, 64.5762 14.0808 C 64.3907 14.4767, 64.0324 15.2399, 63.847699999999996 15.6342 C 63.663 16.0285, 63.452999999999996 16.3861, 63.1996 16.740499999999997 C 62.9462 17.094899999999996, 62.67529999999999 17.407799999999998, 62.361399999999996 17.709899999999998 C 62.0475 18.011999999999997, 61.7238 18.2708, 61.3604 18.5103 C 60.997 18.7498, 60.6303 18.9452, 60.2294 19.1145 C 59.8285 19.2838, 59.4334 19.4095, 59.007999999999996 19.5024 C 58.58259999999999 19.5953, 58.1712 19.646900000000002, 57.7363 19.6612 C 57.3014 19.6755, 56.8868 19.6513, 56.4561 19.5856 C 56.0254 19.5199, 55.19049999999999 19.392699999999998, 54.757999999999996 19.3269 C 54.3255 19.2611, 53.90429999999999 19.2367, 53.467299999999994 19.2517 C 53.0303 19.2667, 52.61149999999999 19.3198, 52.18429999999999 19.4148 C 51.757099999999994 19.5098, 51.35569999999999 19.6393, 50.953599999999994 19.8111 C 50.5515 19.9829, 50.180299999999995 20.1842, 49.8163 20.4269 C 49.4523 20.6696, 49.125099999999996 20.935699999999997, 48.8124 21.2415 C 48.4997 21.5473, 48.2262 21.8689, 47.9749 22.2272 C 47.7236 22.5855, 47.5143 22.9516, 47.3334 23.3496 C 47.152499999999996 23.7476, 47.013999999999996 24.1464, 46.909099999999995 24.570899999999998 C 46.804199999999994 24.995399999999997, 46.6026 25.815700000000003, 46.4983 26.238400000000002 C 46.394 26.6611, 46.257999999999996 27.052200000000003, 46.078599999999994 27.4492 C 45.89919999999999 27.8462, 45.694399999999995 28.2059, 45.445499999999996 28.5634 C 45.1966 28.920900000000003, 44.930299999999995 29.2374, 44.620599999999996 29.543100000000003 C 44.3109 29.848800000000004, 43.989999999999995 30.1121, 43.629799999999996 30.3564 C 43.2696 30.6007, 42.9068 30.8003, 42.5075 30.9751 C 42.108200000000004 31.149900000000002, 41.7155 31.2808, 41.2917 31.3796 C 40.8679 31.4784, 40.4574 31.5351, 40.0228 31.5548 C 39.58819999999999 31.5745, 38.7428 31.613900000000005, 38.3065 31.633900000000004 C 37.8702 31.653900000000004, 37.4516 31.7116, 37.0266 31.811700000000002 C 36.601600000000005 31.911800000000003, 36.200700000000005 32.04580000000001, 35.801 32.222500000000004 C 35.4013 32.3992, 35.031600000000005 32.6039, 34.6715 32.8509 C 34.3114 33.0979, 33.986 33.367900000000006, 33.677099999999996 33.6771 C 33.368199999999995 33.9863, 33.0987 34.3111, 32.8517 34.671400000000006 C 32.6047 35.03170000000001, 32.399499999999996 35.400600000000004, 32.223 35.8004 C 32.0465 36.2002, 31.9121 36.6009, 31.8125 37.0259 C 31.7129 37.4509, 31.6543 37.8698, 31.6343 38.3059 C 31.6143 38.742000000000004, 31.574799999999996 39.586800000000004, 31.554899999999996 40.0217 C 31.534999999999997 40.4566, 31.4776 40.8668, 31.378999999999998 41.2911 C 31.280399999999997 41.7154, 31.1496 42.108200000000004, 30.974999999999998 42.5073 C 30.800399999999996 42.9064, 30.600899999999996 43.2687, 30.356699999999996 43.6289 C 30.112499999999997 43.9891, 29.848999999999997 44.309900000000006, 29.543299999999995 44.619600000000005 C 29.237599999999993 44.929300000000005, 28.920599999999997 45.1958, 28.562999999999995 45.445 C 28.205399999999994 45.6942, 27.845599999999997 45.899100000000004, 27.449199999999998 46.078500000000005 C 27.052799999999998 46.25790000000001, 26.661099999999998 46.3935, 26.238699999999998 46.4975 C 25.8163 46.6015, 24.9966 46.8042, 24.5718 46.909 C 24.147 47.013799999999996, 23.7486 47.1523, 23.3506 47.3334 C 22.9526 47.5145, 22.586000000000002 47.7239, 22.227700000000002 47.9752 C 21.869400000000002 48.2265, 21.5481 48.4997, 21.2424 48.8123 C 20.9367 49.124900000000004, 20.670700000000004 49.45290000000001, 20.427300000000002 49.816500000000005 C 20.1839 50.1801, 19.983400000000003 50.551, 19.811500000000002 50.9532 C 19.6396 51.3554, 19.5102 51.7571, 19.415100000000002 52.1843 C 19.320000000000004 52.6115, 19.266800000000003 53.0298, 19.252000000000002 53.4668 C 19.2372 53.9038, 19.2618 54.3252, 19.3273 54.7575 C 19.3928 55.1898, 19.5205 56.025800000000004, 19.586 56.456300000000006 C 19.6515 56.88680000000001, 19.675499999999996 57.300900000000006, 19.661699999999996 57.73630000000001 C 19.647899999999996 58.17170000000001, 19.5964 58.5825, 19.5032 59.008 C 19.41 59.4335, 19.284599999999998 59.8286, 19.115499999999997 60.229600000000005 C 18.946399999999997 60.63060000000001, 18.75 60.996700000000004, 18.5107 61.360200000000006 C 18.2714 61.72370000000001, 18.0127 62.047700000000006, 17.7106 62.36130000000001 C 17.4085 62.67490000000001, 17.095 62.946200000000005, 16.7413 63.19970000000001 C 16.3876 63.45320000000001, 16.0294 63.6635, 15.634799999999998 63.8481 C 15.240199999999998 64.0327, 14.4769 64.39020000000002, 14.0807 64.57580000000002 C 13.6845 64.76140000000001, 13.320800000000002 64.97500000000001, 12.965700000000002 65.23020000000001 C 12.610600000000002 65.48540000000001, 12.2924 65.7613, 11.9899 66.07770000000001 C 11.6874 66.39410000000001, 11.425600000000001 66.72460000000001, 11.186700000000002 67.09080000000002 C 10.947800000000003 67.45700000000002, 10.7516 67.83030000000001, 10.5837 68.23440000000001 C 10.4158 68.63850000000001, 10.290700000000001 69.04100000000001, 10.200500000000002 69.46900000000001 C 10.110300000000002 69.897, 10.062000000000001 70.31540000000001, 10.052100000000001 70.75290000000001 C 10.042200000000001 71.19040000000001, 10.0708 71.61140000000002, 10.1415 72.04290000000002 C 10.212200000000001 72.47440000000002, 10.3185 72.88290000000002, 10.4671 73.29410000000001 C 10.6157 73.70530000000001, 10.904 74.50519999999999, 11.0518 74.91399999999999 C 11.1996 75.32279999999999, 11.304 75.72499999999998, 11.375 76.15409999999999 C 11.446 76.58319999999999, 11.4762 76.99649999999998, 11.4674 77.43139999999998 C 11.458599999999999 77.86629999999998, 11.413 78.27949999999998, 11.3249 78.70509999999999 C 11.236799999999999 79.13069999999999, 11.116599999999998 79.52909999999999, 10.952399999999999 79.93159999999999 C 10.7882 80.33409999999999, 10.5978 80.70289999999999, 10.363199999999999 81.06899999999999 C 10.128599999999999 81.43509999999999, 9.8733 81.76269999999998, 9.5763 82.07989999999998 C 9.2793 82.39709999999998, 8.9676 82.67349999999999, 8.617799999999999 82.9309 C 8.267999999999999 83.1883, 7.589300000000001 83.68889999999999, 7.237500000000001 83.94779999999999 C 6.885700000000001 84.20669999999998, 6.5692 84.4875, 6.2713 84.80669999999999 C 5.9734 85.12589999999999, 5.7144 85.46, 5.4801 85.82889999999999 C 5.2458 86.19779999999999, 5.053000000000001 86.5735, 4.890700000000001 86.9789 C 4.728400000000001 87.3843, 4.606700000000001 87.78939999999999, 4.5215000000000005 88.21799999999999 C 4.4363 88.64659999999999, 4.392900000000001 89.06709999999998, 4.387600000000001 89.50389999999999 C 4.382300000000001 89.94069999999999, 4.4164 90.36139999999999, 4.4916 90.79189999999998 C 4.5668 91.22239999999998, 4.678 91.6308, 4.8311 92.0396 C 4.9842 92.44839999999999, 5.1688 92.82889999999999, 5.3943 93.20259999999999 C 5.619800000000001 93.57629999999999, 6.0574 94.30209999999998, 6.282 94.67429999999999 C 6.5066 95.0465, 6.6878 95.41969999999999, 6.8411 95.82669999999999 C 6.9944 96.23369999999998, 7.1030999999999995 96.6333, 7.1799 97.0612 C 7.2567 97.4891, 7.2917 97.9021, 7.2893 98.3369 C 7.2869 98.7717, 7.2456 99.18419999999999, 7.164 99.6112 C 7.0824 100.0382, 6.967099999999999 100.43639999999999, 6.8084 100.84129999999999 C 6.6497 101.24619999999999, 6.4642 101.61739999999999, 6.2348 101.98639999999999 C 6.0054 102.35539999999999, 5.754899999999999 102.6857, 5.4624 103.00699999999999 C 5.1699 103.32829999999998, 4.5924000000000005 103.96099999999998, 4.2982000000000005 104.28379999999999 C 4.0040000000000004 104.60659999999999, 3.7495000000000007 104.9429, 3.5199000000000007 105.31429999999999 C 3.2903000000000007 105.68569999999998, 3.1022000000000003 106.06349999999999, 2.9442000000000004 106.4707 C 2.7862000000000005 106.8779, 2.6716000000000006 107.28399999999999, 2.5909000000000004 107.7134 C 2.5102 108.1428, 2.4717000000000007 108.5623, 2.4716000000000005 108.99879999999999 C 2.4715000000000003 109.43529999999998, 2.5103000000000004 109.85619999999999, 2.5906000000000002 110.28559999999999 C 2.6709 110.71499999999999, 2.7863000000000007 111.12039999999999, 2.944400000000001 111.52779999999998 C 3.102500000000001 111.93519999999998, 3.2899000000000003 112.3125, 3.5197000000000003 112.6839 C 3.7495000000000003 113.05529999999999, 4.0044 113.39189999999999, 4.2983 113.7147 C 4.5922 114.0375, 5.1697 114.67099999999999, 5.4624999999999995 114.99229999999999 C 5.755299999999999 115.31359999999998, 6.0055 115.6442, 6.2352 116.0136 C 6.4649 116.383, 6.6494 116.75379999999998, 6.8081 117.15849999999999 C 6.966799999999999 117.5632, 7.081599999999999 117.96139999999998, 7.163899999999999 118.38839999999999 C 7.246199999999999 118.8154, 7.286 119.22799999999998, 7.289199999999999 119.66269999999999 C 7.292399999999999 120.0974, 7.2569 120.5106, 7.1800999999999995 120.9386 C 7.103299999999999 121.36659999999999, 6.9936 121.76679999999999, 6.8405 122.17349999999999 C 6.687399999999999 122.58019999999999, 6.5061 122.95279999999998, 6.2818 123.32489999999999 C 6.057499999999999 123.69699999999999, 5.619500000000001 124.4236, 5.3938000000000015 124.79759999999999 C 5.168100000000002 125.17159999999998, 4.983200000000002 125.55219999999998, 4.830400000000002 125.96119999999999 C 4.677600000000002 126.3702, 4.566300000000001 126.7781, 4.491200000000001 127.20859999999999 C 4.416100000000001 127.63909999999998, 4.3820000000000014 128.0601, 4.387400000000001 128.4967 C 4.392800000000001 128.9333, 4.4357000000000015 129.35410000000002, 4.521200000000001 129.7827 C 4.606700000000001 130.2113, 4.727700000000001 130.6162, 4.890100000000001 131.02169999999998 C 5.052500000000001 131.42719999999997, 5.245400000000002 131.8028, 5.479800000000002 132.17159999999998 C 5.714200000000002 132.54039999999998, 5.973300000000002 132.87509999999997, 6.271400000000002 133.194 C 6.5695000000000014 133.5129, 6.885700000000002 133.7937, 7.237200000000001 134.0525 C 7.588700000000001 134.31130000000002, 8.2679 134.8114, 8.617999999999999 135.0691 C 8.968099999999998 135.3268, 9.278400000000001 135.60299999999995, 9.576 135.92019999999997 C 9.8736 136.23739999999998, 10.128499999999999 136.56419999999997, 10.3629 136.93059999999997 C 10.5973 137.29699999999997, 10.789100000000001 137.66579999999996, 10.9525 138.06849999999997 C 11.1159 138.47119999999998, 11.237499999999999 138.86929999999998, 11.3248 139.2951 C 11.4121 139.7209, 11.4588 140.1334, 11.4673 140.5682 C 11.4758 141.003, 11.445599999999999 141.41709999999998, 11.3751 141.84589999999997 C 11.3046 142.27469999999997, 11.199200000000001 142.67759999999998, 11.0515 143.0861 C 10.9038 143.4946, 10.615400000000001 144.29420000000002, 10.466700000000001 144.7057 C 10.318000000000001 145.1172, 10.2121 145.52540000000002, 10.1417 145.95700000000002 C 10.0713 146.38860000000003, 10.041500000000001 146.80870000000002, 10.0516 147.24630000000002 C 10.0617 147.68390000000002, 10.110500000000002 148.10280000000003, 10.200700000000001 148.53060000000002 C 10.2909 148.9584, 10.416400000000001 149.3611, 10.5836 149.7654 C 10.7508 150.1697, 10.9472 150.5428, 11.186200000000001 150.9091 C 11.425200000000002 151.2754, 11.6872 151.6052, 11.989700000000001 151.9215 C 12.292200000000001 152.23780000000002, 12.610300000000002 152.51500000000001, 12.965500000000002 152.7699 C 13.320700000000002 153.0248, 13.6849 153.2383, 14.0808 153.4238 C 14.4767 153.6093, 15.2399 153.9676, 15.6342 154.1523 C 16.0285 154.337, 16.3861 154.547, 16.740499999999997 154.8004 C 17.094899999999996 155.0538, 17.407799999999998 155.3247, 17.709899999999998 155.6386 C 18.011999999999997 155.9525, 18.2708 156.2762, 18.5103 156.6396 C 18.7498 157.00300000000001, 18.9452 157.3697, 19.1145 157.7706 C 19.2838 158.1715, 19.4095 158.5666, 19.5024 158.992 C 19.5953 159.4174, 19.646900000000002 159.8288, 19.6612 160.2637 C 19.6755 160.6986, 19.6513 161.1132, 19.5856 161.5439 C 19.5199 161.9746, 19.392699999999998 162.80949999999999, 19.3269 163.242 C 19.2611 163.6745, 19.2367 164.0957, 19.2517 164.5327 C 19.2667 164.96970000000002, 19.3198 165.3885, 19.4148 165.8157 C 19.5098 166.2429, 19.6393 166.64430000000002, 19.8111 167.0464 C 19.9829 167.4485, 20.1842 167.81969999999998, 20.4269 168.1837 C 20.6696 168.5477, 20.935699999999997 168.8749, 21.2415 169.1876 C 21.5473 169.5003, 21.8689 169.77380000000002, 22.2272 170.0251 C 22.5855 170.2764, 22.9516 170.48569999999998, 23.3496 170.6666 C 23.7476 170.8475, 24.1464 170.98600000000002, 24.570899999999998 171.0909 C 24.995399999999997 171.1958, 25.815700000000003 171.3974, 26.238400000000002 171.5017 C 26.6611 171.606, 27.052200000000003 171.74200000000002, 27.4492 171.9214 C 27.8462 172.1008, 28.2059 172.3056, 28.5634 172.5545 C 28.920900000000003 172.80339999999998, 29.2374 173.0697, 29.543100000000003 173.3794 C 29.848800000000004 173.6891, 30.1121 174.01000000000002, 30.3564 174.3702 C 30.6007 174.7304, 30.8003 175.0932, 30.9751 175.4925 C 31.149900000000002 175.89180000000002, 31.2808 176.2845, 31.3796 176.7083 C 31.4784 177.1321, 31.5351 177.54260000000002, 31.5548 177.9772 C 31.5745 178.4118, 31.613900000000005 179.2572, 31.633900000000004 179.6935 C 31.653900000000004 180.1298, 31.7116 180.5484, 31.811700000000002 180.9734 C 31.911800000000003 181.3984, 32.04580000000001 181.7993, 32.222500000000004 182.19899999999998 C 32.3992 182.59869999999998, 32.6039 182.9684, 32.8509 183.3285 C 33.0979 183.68859999999998, 33.367900000000006 184.014, 33.6771 184.3229 C 33.9863 184.6318, 34.3111 184.9013, 34.671400000000006 185.1483 C 35.03170000000001 185.39530000000002, 35.400600000000004 185.60049999999998, 35.8004 185.777 C 36.2002 185.9535, 36.6009 186.0879, 37.0259 186.1875 C 37.4509 186.2871, 37.8698 186.3457, 38.3059 186.3657 C 38.742000000000004 186.3857, 39.586800000000004 186.4252, 40.0217 186.4451 C 40.4566 186.465, 40.8668 186.5224, 41.2911 186.621 C 41.7154 186.7196, 42.108200000000004 186.8504, 42.5073 187.025 C 42.9064 187.1996, 43.2687 187.3991, 43.6289 187.6433 C 43.9891 187.88750000000002, 44.309900000000006 188.151, 44.619600000000005 188.4567 C 44.929300000000005 188.7624, 45.1958 189.07940000000002, 45.445 189.437 C 45.6942 189.7946, 45.899100000000004 190.1544, 46.078500000000005 190.5508 C 46.25790000000001 190.9472, 46.3935 191.3389, 46.4975 191.7613 C 46.6015 192.18370000000002, 46.8042 193.00339999999997, 46.909 193.42819999999998 C 47.013799999999996 193.85299999999998, 47.1523 194.2514, 47.3334 194.64939999999999 C 47.5145 195.04739999999998, 47.7239 195.41399999999996, 47.9752 195.77229999999997 C 48.2265 196.1306, 48.4997 196.45189999999997, 48.8123 196.75759999999997 C 49.124900000000004 197.06329999999997, 49.45290000000001 197.32929999999996, 49.816500000000005 197.57269999999997 C 50.1801 197.81609999999998, 50.551 198.01659999999998, 50.9532 198.18849999999998 C 51.3554 198.36039999999997, 51.7571 198.48979999999997, 52.1843 198.58489999999998 C 52.6115 198.67999999999998, 53.0298 198.73319999999998, 53.4668 198.748 C 53.9038 198.7628, 54.3252 198.73819999999998, 54.7575 198.6727 C 55.1898 198.6072, 56.025800000000004 198.4795, 56.456300000000006 198.41400000000002 C 56.88680000000001 198.34850000000003, 57.300900000000006 198.3245, 57.73630000000001 198.3383 C 58.17170000000001 198.3521, 58.5825 198.4036, 59.008 198.4968 C 59.4335 198.59, 59.8286 198.71540000000002, 60.229600000000005 198.8845 C 60.63060000000001 199.0536, 60.996700000000004 199.25000000000003, 61.360200000000006 199.48930000000001 C 61.72370000000001 199.7286, 62.047700000000006 199.98730000000003, 62.36130000000001 200.28940000000003 C 62.67490000000001 200.59150000000002, 62.946200000000005 200.905, 63.19970000000001 201.2587 C 63.45320000000001 201.6124, 63.6635 201.97060000000002, 63.8481 202.36520000000002 C 64.0327 202.7598, 64.39020000000002 203.5231, 64.57580000000002 203.9193 C 64.76140000000001 204.3155, 64.97500000000001 204.6792, 65.23020000000001 205.0343 C 65.48540000000001 205.3894, 65.7613 205.70759999999999, 66.07770000000001 206.0101 C 66.39410000000001 206.3126, 66.72460000000001 206.5744, 67.09080000000002 206.8133 C 67.45700000000002 207.0522, 67.83030000000001 207.24839999999998, 68.23440000000001 207.41629999999998 C 68.63850000000001 207.58419999999998, 69.04100000000001 207.70929999999998, 69.46900000000001 207.7995 C 69.897 207.8897, 70.31540000000001 207.938, 70.75290000000001 207.94789999999998 C 71.19040000000001 207.95779999999996, 71.61140000000002 207.92919999999998, 72.04290000000002 207.8585 C 72.47440000000002 207.7878, 72.88290000000002 207.68149999999997, 73.29410000000001 207.53289999999998 C 73.70530000000001 207.3843, 74.50519999999999 207.09599999999998, 74.91399999999999 206.94819999999999 C 75.32279999999999 206.8004, 75.72499999999998 206.696, 76.15409999999999 206.625 C 76.58319999999999 206.554, 76.99649999999998 206.5238, 77.43139999999998 206.5326 C 77.86629999999998 206.5414, 78.27949999999998 206.587, 78.70509999999999 206.6751 C 79.13069999999999 206.76319999999998, 79.52909999999999 206.8834, 79.93159999999999 207.0476 C 80.33409999999999 207.21179999999998, 80.70289999999999 207.4022, 81.06899999999999 207.6368 C 81.43509999999999 207.8714, 81.76269999999998 208.1267, 82.07989999999998 208.4237 C 82.39709999999998 208.7207, 82.67349999999999 209.0324, 82.9309 209.38219999999998 C 83.1883 209.73199999999997, 83.68889999999999 210.4107, 83.94779999999999 210.7625 C 84.20669999999998 211.1143, 84.4875 211.4308, 84.80669999999999 211.7287 C 85.12589999999999 212.0266, 85.46 212.28560000000002, 85.82889999999999 212.5199 C 86.19779999999999 212.7542, 86.5735 212.947, 86.9789 213.1093 C 87.3843 213.27159999999998, 87.78939999999999 213.3933, 88.21799999999999 213.4785 C 88.64659999999999 213.56369999999998, 89.06709999999998 213.6071, 89.50389999999999 213.6124 C 89.94069999999999 213.6177, 90.36139999999999 213.5836, 90.79189999999998 213.5084 C 91.22239999999998 213.4332, 91.6308 213.322, 92.0396 213.1689 C 92.44839999999999 213.0158, 92.82889999999999 212.83120000000002, 93.20259999999999 212.6057 C 93.57629999999999 212.3802, 94.30209999999998 211.94260000000006, 94.67429999999999 211.71800000000005 C 95.0465 211.49340000000004, 95.41969999999999 211.31220000000005, 95.82669999999999 211.15890000000005 C 96.23369999999998 211.00560000000004, 96.6333 210.89690000000002, 97.0612 210.82010000000002 C 97.4891 210.74330000000003, 97.9021 210.70830000000004, 98.3369 210.71070000000003 C 98.7717 210.71310000000003, 99.18419999999999 210.75440000000003, 99.6112 210.83600000000004 C 100.0382 210.91760000000005, 100.43639999999999 211.0329, 100.84129999999999 211.19160000000002 C 101.24619999999999 211.35030000000003, 101.61739999999999 211.53580000000002, 101.98639999999999 211.76520000000002 C 102.35539999999999 211.99460000000002, 102.6857 212.24510000000004, 103.00699999999999 212.53760000000003 C 103.32829999999998 212.83010000000002, 103.96099999999998 213.4076, 104.28379999999999 213.7018 C 104.60659999999999 213.99599999999998, 104.9429 214.2505, 105.31429999999999 214.4801 C 105.68569999999998 214.7097, 106.06349999999999 214.89780000000002, 106.4707 215.0558 C 106.8779 215.2138, 107.28399999999999 215.3284, 107.7134 215.4091 C 108.1428 215.4898, 108.5623 215.5283, 108.99879999999999 215.5284 C 109.43529999999998 215.5285, 109.85619999999999 215.4897, 110.28559999999999 215.4094 C 110.71499999999999 215.3291, 111.12039999999999 215.2137, 111.52779999999998 215.0556 C 111.93519999999998 214.8975, 112.3125 214.7101, 112.6839 214.4803 C 113.05529999999999 214.2505, 113.39189999999999 213.99560000000002, 113.7147 213.70170000000002 C 114.0375 213.4078, 114.67099999999999 212.83030000000002, 114.99229999999999 212.53750000000002 C 115.31359999999998 212.24470000000002, 115.6442 211.99450000000002, 116.0136 211.7648 C 116.383 211.5351, 116.75379999999998 211.35060000000001, 117.15849999999999 211.1919 C 117.5632 211.0332, 117.96139999999998 210.91840000000002, 118.38839999999999 210.83610000000002 C 118.8154 210.7538, 119.22799999999998 210.714, 119.66269999999999 210.7108 C 120.0974 210.7076, 120.5106 210.74310000000003, 120.9386 210.81990000000002 C 121.36659999999999 210.8967, 121.76679999999999 211.0064, 122.17349999999999 211.1595 C 122.58019999999999 211.3126, 122.95279999999998 211.4939, 123.32489999999999 211.7182 C 123.69699999999999 211.9425, 124.4236 212.38049999999998, 124.79759999999999 212.60619999999997 C 125.17159999999998 212.83189999999996, 125.55219999999998 213.01679999999996, 125.96119999999999 213.16959999999997 C 126.3702 213.3224, 126.7781 213.4337, 127.20859999999999 213.50879999999998 C 127.63909999999998 213.58389999999997, 128.0601 213.618, 128.4967 213.6126 C 128.9333 213.60719999999998, 129.35410000000002 213.56429999999997, 129.7827 213.47879999999998 C 130.2113 213.39329999999998, 130.6162 213.27229999999997, 131.02169999999998 213.10989999999998 C 131.42719999999997 212.9475, 131.8028 212.75459999999998, 132.17159999999998 212.5202 C 132.54039999999998 212.2858, 132.87509999999997 212.02669999999998, 133.194 211.72859999999997 C 133.5129 211.43049999999997, 133.7937 211.11429999999996, 134.0525 210.76279999999997 C 134.31130000000002 210.41129999999998, 134.8114 209.7321, 135.0691 209.382 C 135.3268 209.0319, 135.60299999999995 208.7216, 135.92019999999997 208.424 C 136.23739999999998 208.12640000000002, 136.56419999999997 207.8715, 136.93059999999997 207.6371 C 137.29699999999997 207.4027, 137.66579999999996 207.21089999999998, 138.06849999999997 207.04749999999999 C 138.47119999999998 206.8841, 138.86929999999998 206.7625, 139.2951 206.6752 C 139.7209 206.5879, 140.1334 206.5412, 140.5682 206.5327 C 141.003 206.5242, 141.41709999999998 206.5544, 141.84589999999997 206.6249 C 142.27469999999997 206.6954, 142.67759999999998 206.8008, 143.0861 206.9485 C 143.4946 207.09619999999998, 144.29420000000002 207.3846, 144.7057 207.5333 C 145.1172 207.682, 145.52540000000002 207.78789999999998, 145.95700000000002 207.85829999999999 C 146.38860000000003 207.9287, 146.80870000000002 207.9585, 147.24630000000002 207.9484 C 147.68390000000002 207.9383, 148.10280000000003 207.8895, 148.53060000000002 207.7993 C 148.9584 207.70909999999998, 149.3611 207.5836, 149.7654 207.41639999999998 C 150.1697 207.24919999999997, 150.5428 207.0528, 150.9091 206.8138 C 151.2754 206.57479999999998, 151.6052 206.3128, 151.9215 206.0103 C 152.23780000000002 205.7078, 152.51500000000001 205.38969999999998, 152.7699 205.03449999999998 C 153.0248 204.67929999999998, 153.2383 204.3151, 153.4238 203.9192 C 153.6093 203.52329999999998, 153.9676 202.7601, 154.1523 202.3658 C 154.337 201.97150000000002, 154.547 201.6139, 154.8004 201.2595 C 155.0538 200.9051, 155.3247 200.59220000000002, 155.6386 200.29010000000002 C 155.9525 199.98800000000003, 156.2762 199.7292, 156.6396 199.4897 C 157.00300000000001 199.2502, 157.3697 199.0548, 157.7706 198.8855 C 158.1715 198.71620000000001, 158.5666 198.5905, 158.992 198.4976 C 159.4174 198.40470000000002, 159.8288 198.3531, 160.2637 198.33880000000002 C 160.6986 198.32450000000003, 161.1132 198.3487, 161.5439 198.4144 C 161.9746 198.4801, 162.80949999999999 198.6073, 163.242 198.6731 C 163.6745 198.7389, 164.0957 198.7633, 164.5327 198.7483 C 164.96970000000002 198.7333, 165.3885 198.6802, 165.8157 198.58520000000001 C 166.2429 198.49020000000002, 166.64430000000002 198.3607, 167.0464 198.18890000000002 C 167.4485 198.01710000000003, 167.81969999999998 197.81580000000002, 168.1837 197.5731 C 168.5477 197.3304, 168.8749 197.0643, 169.1876 196.7585 C 169.5003 196.4527, 169.77380000000002 196.13110000000003, 170.0251 195.77280000000002 C 170.2764 195.4145, 170.48569999999998 195.0484, 170.6666 194.6504 C 170.8475 194.2524, 170.98600000000002 193.8536, 171.0909 193.4291 C 171.1958 193.0046, 171.3974 192.1843, 171.5017 191.76160000000002 C 171.606 191.33890000000002, 171.74200000000002 190.9478, 171.9214 190.5508 C 172.1008 190.15380000000002, 172.3056 189.7941, 172.5545 189.4366 C 172.80339999999998 189.0791, 173.0697 188.76260000000002, 173.3794 188.45690000000002 C 173.6891 188.15120000000002, 174.01000000000002 187.88790000000003, 174.3702 187.64360000000002 C 174.7304 187.3993, 175.0932 187.1997, 175.4925 187.0249 C 175.89180000000002 186.8501, 176.2845 186.71920000000003, 176.7083 186.62040000000002 C 177.1321 186.5216, 177.54260000000002 186.4649, 177.9772 186.4452 C 178.4118 186.4255, 179.2572 186.38610000000003, 179.6935 186.36610000000002 C 180.1298 186.3461, 180.5484 186.2884, 180.9734 186.1883 C 181.3984 186.0882, 181.7993 185.95420000000001, 182.19899999999998 185.7775 C 182.59869999999998 185.6008, 182.9684 185.39610000000002, 183.3285 185.1491 C 183.68859999999998 184.9021, 184.014 184.6321, 184.3229 184.3229 C 184.6318 184.0137, 184.9013 183.6889, 185.1483 183.3286 C 185.39530000000002 182.9683, 185.60049999999998 182.5994, 185.777 182.1996 C 185.9535 181.7998, 186.0879 181.3991, 186.1875 180.9741 C 186.2871 180.54909999999998, 186.3457 180.1302, 186.3657 179.6941 C 186.3857 179.25799999999998, 186.4252 178.4132, 186.4451 177.9783 C 186.465 177.5434, 186.5224 177.1332, 186.621 176.7089 C 186.7196 176.2846, 186.8504 175.8918, 187.025 175.49269999999999 C 187.1996 175.09359999999998, 187.3991 174.73129999999998, 187.6433 174.37109999999998 C 187.88750000000002 174.0109, 188.151 173.6901, 188.4567 173.3804 C 188.7624 173.07070000000002, 189.07940000000002 172.8042, 189.437 172.555 C 189.7946 172.3058, 190.1544 172.1009, 190.5508 171.9215 C 190.9472 171.74210000000002, 191.3389 171.6065, 191.7613 171.5025 C 192.18370000000002 171.39849999999998, 193.00339999999997 171.1958, 193.42819999999998 171.09099999999998 C 193.85299999999998 170.98619999999997, 194.2514 170.84769999999997, 194.64939999999999 170.6666 C 195.04739999999998 170.4855, 195.41399999999996 170.27609999999996, 195.77229999999997 170.02479999999997 C 196.1306 169.77349999999998, 196.45189999999997 169.50029999999998, 196.75759999999997 169.18769999999998 C 197.06329999999997 168.87509999999997, 197.32929999999996 168.54709999999997, 197.57269999999997 168.18349999999998 C 197.81609999999998 167.8199, 198.01659999999998 167.44899999999998, 198.18849999999998 167.0468 C 198.36039999999997 166.6446, 198.48979999999997 166.24289999999996, 198.58489999999998 165.81569999999996 C 198.67999999999998 165.38849999999996, 198.73319999999998 164.97019999999998, 198.748 164.53319999999997 C 198.7628 164.09619999999995, 198.73819999999998 163.67479999999998, 198.6727 163.24249999999998 C 198.6072 162.81019999999998, 198.4795 161.9742, 198.41400000000002 161.5437 C 198.34850000000003 161.1132, 198.3245 160.6991, 198.3383 160.2637 C 198.3521 159.8283, 198.4036 159.4175, 198.4968 158.992 C 198.59 158.5665, 198.71540000000002 158.1714, 198.8845 157.7704 C 199.0536 157.36939999999998, 199.25000000000003 157.0033, 199.48930000000001 156.6398 C 199.7286 156.27630000000002, 199.98730000000003 155.9523, 200.28940000000003 155.6387 C 200.59150000000002 155.3251, 200.905 155.0538, 201.2587 154.8003 C 201.6124 154.5468, 201.97060000000002 154.33649999999997, 202.36520000000002 154.15189999999998 C 202.7598 153.9673, 203.5231 153.6098, 203.9193 153.4242 C 204.3155 153.23860000000002, 204.6792 153.025, 205.0343 152.7698 C 205.3894 152.5146, 205.70759999999999 152.2387, 206.0101 151.9223 C 206.3126 151.60590000000002, 206.5744 151.27540000000002, 206.8133 150.90920000000003 C 207.0522 150.54300000000003, 207.24839999999998 150.1697, 207.41629999999998 149.7656 C 207.58419999999998 149.3615, 207.70929999999998 148.959, 207.7995 148.531 C 207.8897 148.103, 207.938 147.68460000000002, 207.94789999999998 147.24710000000002 C 207.95779999999996 146.80960000000002, 207.92919999999998 146.38860000000003, 207.8585 145.95710000000003 C 207.7878 145.52560000000003, 207.68149999999997 145.11710000000002, 207.53289999999998 144.7059 C 207.3843 144.2947, 207.09599999999998 143.4948, 206.94819999999999 143.08599999999998 C 206.8004 142.67719999999997, 206.696 142.27499999999998, 206.625 141.84589999999997 C 206.554 141.41679999999997, 206.5238 141.00349999999997, 206.5326 140.56859999999998 C 206.5414 140.13369999999998, 206.587 139.7205, 206.6751 139.29489999999998 C 206.76319999999998 138.86929999999998, 206.8834 138.4709, 207.0476 138.0684 C 207.21179999999998 137.6659, 207.4022 137.29709999999997, 207.6368 136.93099999999998 C 207.8714 136.5649, 208.1267 136.2373, 208.4237 135.9201 C 208.7207 135.60289999999998, 209.0324 135.32649999999998, 209.38219999999998 135.0691 C 209.73199999999997 134.8117, 210.4107 134.31109999999998, 210.7625 134.05219999999997 C 211.1143 133.79329999999996, 211.4308 133.5125, 211.7287 133.1933 C 212.0266 132.8741, 212.28560000000002 132.54, 212.5199 132.1711 C 212.7542 131.8022, 212.947 131.42649999999998, 213.1093 131.0211 C 213.27159999999998 130.6157, 213.3933 130.21059999999997, 213.4785 129.78199999999998 C 213.56369999999998 129.3534, 213.6071 128.9329, 213.6124 128.49609999999998 C 213.6177 128.05929999999998, 213.5836 127.63859999999998, 213.5084 127.20809999999999 C 213.4332 126.77759999999999, 213.322 126.36919999999998, 213.1689 125.96039999999998 C 213.0158 125.55159999999998, 212.83120000000002 125.17109999999998, 212.6057 124.79739999999998 C 212.3802 124.42369999999998, 211.94260000000006 123.69790000000002, 211.71800000000005 123.32570000000001 C 211.49340000000004 122.9535, 211.31220000000005 122.58030000000001, 211.15890000000005 122.17330000000001 C 211.00560000000004 121.76630000000002, 210.89690000000002 121.3667, 210.82010000000002 120.9388 C 210.74330000000003 120.5109, 210.70830000000004 120.0979, 210.71070000000003 119.6631 C 210.71310000000003 119.2283, 210.75440000000003 118.81580000000001, 210.83600000000004 118.3888 C 210.91760000000005 117.9618, 211.0329 117.56360000000001, 211.19160000000002 117.15870000000001 C 211.35030000000003 116.75380000000001, 211.53580000000002 116.38260000000001, 211.76520000000002 116.01360000000001 C 211.99460000000002 115.64460000000001, 212.24510000000004 115.3143, 212.53760000000003 114.99300000000001 C 212.83010000000002 114.67170000000002, 213.4076 114.03900000000002, 213.7018 113.71620000000001 C 213.99599999999998 113.39340000000001, 214.2505 113.0571, 214.4801 112.68570000000001 C 214.7097 112.31430000000002, 214.89780000000002 111.93650000000001, 215.0558 111.5293 C 215.2138 111.1221, 215.3284 110.71600000000001, 215.4091 110.2866 C 215.4898 109.8572, 215.5283 109.4377, 215.5284 109.00120000000001 C 215.5285 108.56470000000002, 215.4897 108.14380000000001, 215.4094 107.71440000000001 C 215.3291 107.28500000000001, 215.2137 106.87960000000001, 215.0556 106.47220000000002 C 214.8975 106.06480000000002, 214.7101 105.6875, 214.4803 105.3161 C 214.2505 104.94470000000001, 213.99560000000002 104.60810000000001, 213.70170000000002 104.2853 C 213.4078 103.9625, 212.83030000000002 103.32900000000001, 212.53750000000002 103.00770000000001 C 212.24470000000002 102.68640000000002, 211.99450000000002 102.3558, 211.7648 101.9864 C 211.5351 101.617, 211.35060000000001 101.24620000000002, 211.1919 100.84150000000001 C 211.0332 100.4368, 210.91840000000002 100.03860000000002, 210.83610000000002 99.61160000000001 C 210.7538 99.1846, 210.714 98.77200000000002, 210.7108 98.33730000000001 C 210.7076 97.9026, 210.74310000000003 97.4894, 210.81990000000002 97.0614 C 210.8967 96.63340000000001, 211.0064 96.23320000000001, 211.1595 95.82650000000001 C 211.3126 95.41980000000001, 211.4939 95.04720000000002, 211.7182 94.67510000000001 C 211.9425 94.30300000000001, 212.38049999999998 93.5764, 212.60619999999997 93.20240000000001 C 212.83189999999996 92.82840000000002, 213.01679999999996 92.44780000000002, 213.16959999999997 92.03880000000001 C 213.3224 91.6298, 213.4337 91.2219, 213.50879999999998 90.79140000000001 C 213.58389999999997 90.36090000000002, 213.618 89.93990000000001, 213.6126 89.50330000000001 C 213.60719999999998 89.06670000000001, 213.56429999999997 88.64590000000001, 213.47879999999998 88.21730000000001 C 213.39329999999998 87.7887, 213.27229999999997 87.38380000000001, 213.10989999999998 86.9783 C 212.9475 86.5728, 212.75459999999998 86.1972, 212.5202 85.8284 C 212.2858 85.45960000000001, 212.02669999999998 85.12490000000001, 211.72859999999997 84.80600000000001 C 211.43049999999997 84.48710000000001, 211.11429999999996 84.2063, 210.76279999999997 83.9475 C 210.41129999999998 83.68870000000001, 209.7321 83.1886, 209.382 82.9309 C 209.0319 82.6732, 208.7216 82.39699999999999, 208.424 82.07979999999999 C 208.12640000000002 81.76259999999999, 207.8715 81.43579999999999, 207.6371 81.06939999999999 C 207.4027 80.70299999999999, 207.21089999999998 80.33419999999998, 207.04749999999999 79.93149999999999 C 206.8841 79.52879999999999, 206.7625 79.13069999999999, 206.6752 78.7049 C 206.5879 78.2791, 206.5412 77.86659999999999, 206.5327 77.4318 C 206.5242 76.997, 206.5544 76.58289999999998, 206.6249 76.15409999999999 C 206.6954 75.72529999999999, 206.8008 75.32239999999999, 206.9485 74.91389999999998 C 207.09619999999998 74.50539999999998, 207.3846 73.70580000000001, 207.5333 73.2943 C 207.682 72.8828, 207.78789999999998 72.47460000000001, 207.85829999999999 72.043 C 207.9287 71.6114, 207.9585 71.19130000000001, 207.9484 70.75370000000001 C 207.9383 70.3161, 207.8895 69.89720000000001, 207.7993 69.46940000000001 C 207.70909999999998 69.0416, 207.5836 68.6389, 207.41639999999998 68.2346 C 207.24919999999997 67.8303, 207.0528 67.4572, 206.8138 67.0909 C 206.57479999999998 66.72460000000001, 206.3128 66.3948, 206.0103 66.0785 C 205.7078 65.7622, 205.38969999999998 65.48500000000001, 205.03449999999998 65.23010000000001 C 204.67929999999998 64.9752, 204.3151 64.7617, 203.9192 64.5762 C 203.52329999999998 64.3907, 202.7601 64.0324, 202.3658 63.847699999999996 C 201.97150000000002 63.663, 201.6139 63.452999999999996, 201.2595 63.1996 C 200.9051 62.9462, 200.59220000000002 62.67529999999999, 200.29010000000002 62.361399999999996 C 199.98800000000003 62.0475, 199.7292 61.7238, 199.4897 61.3604 C 199.2502 60.997, 199.0548 60.6303, 198.8855 60.2294 C 198.71620000000001 59.8285, 198.5905 59.4334, 198.4976 59.007999999999996 C 198.40470000000002 58.58259999999999, 198.3531 58.1712, 198.33880000000002 57.7363 C 198.32450000000003 57.3014, 198.3487 56.8868, 198.4144 56.4561 C 198.4801 56.0254, 198.6073 55.19049999999999, 198.6731 54.757999999999996 C 198.7389 54.3255, 198.7633 53.90429999999999, 198.7483 53.467299999999994 C 198.7333 53.0303, 198.6802 52.61149999999999, 198.58520000000001 52.18429999999999 C 198.49020000000002 51.757099999999994, 198.3607 51.35569999999999, 198.18890000000002 50.953599999999994 C 198.01710000000003 50.5515, 197.81580000000002 50.180299999999995, 197.5731 49.8163 C 197.3304 49.4523, 197.0643 49.125099999999996, 196.7585 48.8124 C 196.4527 48.4997, 196.13110000000003 48.2262, 195.77280000000002 47.9749 C 195.4145 47.7236, 195.0484 47.5143, 194.6504 47.3334 C 194.2524 47.152499999999996, 193.8536 47.013999999999996, 193.4291 46.909099999999995 C 193.0046 46.804199999999994, 192.1843 46.6026, 191.76160000000002 46.4983 C 191.33890000000002 46.394, 190.9478 46.257999999999996, 190.5508 46.078599999999994 C 190.15380000000002 45.89919999999999, 189.7941 45.694399999999995, 189.4366 45.445499999999996 C 189.0791 45.1966, 188.76260000000002 44.930299999999995, 188.45690000000002 44.620599999999996 C 188.15120000000002 44.3109, 187.88790000000003 43.989999999999995, 187.64360000000002 43.629799999999996 C 187.3993 43.2696, 187.1997 42.9068, 187.0249 42.5075 C 186.8501 42.108200000000004, 186.71920000000003 41.7155, 186.62040000000002 41.2917 C 186.5216 40.8679, 186.4649 40.4574, 186.4452 40.0228 C 186.4255 39.58819999999999, 186.38610000000003 38.7428, 186.36610000000002 38.3065 C 186.3461 37.8702, 186.2884 37.4516, 186.1883 37.0266 C 186.0882 36.601600000000005, 185.95420000000001 36.200700000000005, 185.7775 35.801 C 185.6008 35.4013, 185.39610000000002 35.031600000000005, 185.1491 34.6715 C 184.9021 34.3114, 184.6321 33.986, 184.3229 33.677099999999996 C 184.0137 33.368199999999995, 183.6889 33.0987, 183.3286 32.8517 C 182.9683 32.6047, 182.5994 32.399499999999996, 182.1996 32.223 C 181.7998 32.0465, 181.3991 31.9121, 180.9741 31.8125 C 180.54909999999998 31.7129, 180.1302 31.6543, 179.6941 31.6343 C 179.25799999999998 31.6143, 178.4132 31.574799999999996, 177.9783 31.554899999999996 C 177.5434 31.534999999999997, 177.1332 31.4776, 176.7089 31.378999999999998 C 176.2846 31.280399999999997, 175.8918 31.1496, 175.49269999999999 30.974999999999998 C 175.09359999999998 30.800399999999996, 174.73129999999998 30.600899999999996, 174.37109999999998 30.356699999999996 C 174.0109 30.112499999999997, 173.6901 29.848999999999997, 173.3804 29.543299999999995 C 173.07070000000002 29.237599999999993, 172.8042 28.920599999999997, 172.555 28.562999999999995 C 172.3058 28.205399999999994, 172.1009 27.845599999999997, 171.9215 27.449199999999998 C 171.74210000000002 27.052799999999998, 171.6065 26.661099999999998, 171.5025 26.238699999999998 C 171.39849999999998 25.8163, 171.1958 24.9966, 171.09099999999998 24.5718 C 170.98619999999997 24.147, 170.84769999999997 23.7486, 170.6666 23.3506 C 170.4855 22.9526, 170.27609999999996 22.586000000000002, 170.02479999999997 22.227700000000002 C 169.77349999999998 21.869400000000002, 169.50029999999998 21.5481, 169.18769999999998 21.2424 C 168.87509999999997 20.9367, 168.54709999999997 20.670700000000004, 168.18349999999998 20.427300000000002 C 167.8199 20.1839, 167.44899999999998 19.983400000000003, 167.0468 19.811500000000002 C 166.6446 19.6396, 166.24289999999996 19.5102, 165.81569999999996 19.415100000000002 C 165.38849999999996 19.320000000000004, 164.97019999999998 19.266800000000003, 164.53319999999997 19.252000000000002 C 164.09619999999995 19.2372, 163.67479999999998 19.2618, 163.24249999999998 19.3273 C 162.81019999999998 19.3928, 161.9742 19.5205, 161.5437 19.586 C 161.1132 19.6515, 160.6991 19.675499999999996, 160.2637 19.661699999999996 C 159.8283 19.647899999999996, 159.4175 19.5964, 158.992 19.5032 C 158.5665 19.41, 158.1714 19.284599999999998, 157.7704 19.115499999999997 C 157.36939999999998 18.946399999999997, 157.0033 18.75, 156.6398 18.5107 C 156.27630000000002 18.2714, 155.9523 18.0127, 155.6387 17.7106 C 155.3251 17.4085, 155.0538 17.095, 154.8003 16.7413 C 154.5468 16.3876, 154.33649999999997 16.0294, 154.15189999999998 15.634799999999998 C 153.9673 15.240199999999998, 153.6098 14.4769, 153.4242 14.0807 C 153.23860000000002 13.6845, 153.025 13.320800000000002, 152.7698 12.965700000000002 C 152.5146 12.610600000000002, 152.2387 12.2924, 151.9223 11.9899 C 151.60590000000002 11.6874, 151.27540000000002 11.425600000000001, 150.90920000000003 11.186700000000002 C 150.54300000000003 10.947800000000003, 150.1697 10.7516, 149.7656 10.5837 C 149.3615 10.4158, 148.959 10.290700000000001, 148.531 10.200500000000002 C 148.103 10.110300000000002, 147.68460000000002 10.062000000000001, 147.24710000000002 10.052100000000001 C 146.80960000000002 10.042200000000001, 146.38860000000003 10.0708, 145.95710000000003 10.1415 C 145.52560000000003 10.212200000000001, 145.11710000000002 10.3185, 144.7059 10.4671 C 144.2947 10.6157, 143.4948 10.904, 143.08599999999998 11.0518 C 142.67719999999997 11.1996, 142.27499999999998 11.304, 141.84589999999997 11.375 C 141.41679999999997 11.446, 141.00349999999997 11.4762, 140.56859999999998 11.4674 C 140.13369999999998 11.458599999999999, 139.7205 11.413, 139.29489999999998 11.3249 C 138.86929999999998 11.236799999999999, 138.4709 11.116599999999998, 138.0684 10.952399999999999 C 137.6659 10.7882, 137.29709999999997 10.5978, 136.93099999999998 10.363199999999999 C 136.5649 10.128599999999999, 136.2373 9.8733, 135.9201 9.5763 C 135.60289999999998 9.2793, 135.32649999999998 8.9676, 135.0691 8.617799999999999 C 134.8117 8.267999999999999, 134.31109999999998 7.589300000000001, 134.05219999999997 7.237500000000001 C 133.79329999999996 6.885700000000001, 133.5125 6.5692, 133.1933 6.2713 C 132.8741 5.9734, 132.54 5.7144, 132.1711 5.4801 C 131.8022 5.2458, 131.42649999999998 5.053000000000001, 131.0211 4.890700000000001 C 130.6157 4.728400000000001, 130.21059999999997 4.606700000000001, 129.78199999999998 4.5215000000000005 C 129.3534 4.4363, 128.9329 4.392900000000001, 128.49609999999998 4.387600000000001 C 128.05929999999998 4.382300000000001, 127.63859999999998 4.4164, 127.20809999999999 4.4916 C 126.77759999999999 4.5668, 126.36919999999998 4.678, 125.96039999999998 4.8311 C 125.55159999999998 4.9842, 125.17109999999998 5.1688, 124.79739999999998 5.3943 C 124.42369999999998 5.619800000000001, 123.69790000000002 6.0574, 123.32570000000001 6.282 C 122.9535 6.5066, 122.58030000000001 6.6878, 122.17330000000001 6.8411 C 121.76630000000002 6.9944, 121.3667 7.1030999999999995, 120.9388 7.1799 C 120.5109 7.2567, 120.0979 7.2917, 119.6631 7.2893 C 119.2283 7.2869, 118.81580000000001 7.2456, 118.3888 7.164 C 117.9618 7.0824, 117.56360000000001 6.967099999999999, 117.15870000000001 6.8084 C 116.75380000000001 6.6497, 116.38260000000001 6.4642, 116.01360000000001 6.2348 C 115.64460000000001 6.0054, 115.3143 5.754899999999999, 114.99300000000001 5.4624 C 114.67170000000002 5.1699, 114.03900000000002 4.5924000000000005, 113.71620000000001 4.2982000000000005 C 113.39340000000001 4.0040000000000004, 113.0571 3.7495000000000007, 112.68570000000001 3.5199000000000007 C 112.31430000000002 3.2903000000000007, 111.93650000000001 3.1022000000000003, 111.5293 2.9442000000000004 C 111.1221 2.7862000000000005, 110.71600000000001 2.6716000000000006, 110.2866 2.5909000000000004 C 109.8572 2.5102, 109.4377 2.4717000000000007, 109.00120000000001 2.4716000000000005 C 108.56470000000002 2.4715000000000003, 108.14380000000001 2.5103000000000004, 107.71440000000001 2.5906000000000002 C 107.28500000000001 2.6709, 106.87960000000001 2.7863000000000007, 106.47220000000002 2.944400000000001 C 106.06480000000002 3.102500000000001, 105.6875 3.2899000000000003, 105.3161 3.5197000000000003 C 104.94470000000001 3.7495000000000003, 104.60810000000001 4.0044, 104.2853 4.2983 C 103.9625 4.5922, 103.32900000000001 5.1697, 103.00770000000001 5.4624999999999995 Z" fill-rule="nonzero" fill="url(#lcyplblarf4jnbvpf8)"></path></g></g></g></g></g></g><g transform="matrix(1,0,0,1,13.7977,13.797)"><g id="5193305" opacity="1" style="mix-blend-mode:normal"><g><g><path id="5193305_fill_path" d="M190.4048,95.2024c0,9.9867 -1.5708,19.9163 -4.6554,29.4175c-3.0846,9.5012 -7.6543,18.4598 -13.5283,26.5425c-5.874,8.0827 -12.976,15.1847 -21.0587,21.0587c-8.0827,5.874 -17.0413,10.4437 -26.5425,13.5283c-9.5012,3.0846 -19.4308,4.6554 -29.4175,4.6554c-9.9867,0 -19.9163,-1.5708 -29.4175,-4.6554c-9.5012,-3.0846 -18.4598,-7.6543 -26.5425,-13.5283c-8.0827,-5.874 -15.1847,-12.976 -21.0587,-21.0587c-5.874,-8.0827 -10.4437,-17.0413 -13.5283,-26.5425c-3.0846,-9.5012 -4.6554,-19.4308 -4.6554,-29.4175c0,-9.9867 1.5708,-19.9163 4.6554,-29.4175c3.0846,-9.5012 7.6543,-18.4598 13.5283,-26.5425c5.874,-8.0827 12.976,-15.1847 21.0587,-21.0587c8.0827,-5.874 17.0413,-10.4437 26.5425,-13.5283c9.5012,-3.0846 19.4308,-4.6554 29.4175,-4.6554c9.9867,0 19.9163,1.5708 29.4175,4.6554c9.5012,3.0846 18.4598,7.6543 26.5425,13.5283c8.0827,5.874 15.1847,12.976 21.0587,21.0587c5.874,8.0827 10.4437,17.0413 13.5283,26.5425c3.0846,9.5012 4.6554,19.4308 4.6554,29.4175z" fill-rule="nonzero" fill="rgb(13, 15, 16)" fill-opacity="1" style="mix-blend-mode:NORMAL"></path></g></g></g></g><g transform="matrix(1,0,0,1,62.853,50.2295)"><g id="5193306" opacity="1" style="mix-blend-mode:normal"><g><g><g style="mix-blend-mode:normal"><defs><linearGradient id="lcyplblirhal4z5udsm" x1="55.37994886143925" y1="-13.95021474627875" x2="26.135840274945938" y2="151.34256281526245" gradientUnits="userSpaceOnUse"><stop offset="0%" stop-opacity="0.5" stop-color="rgb(255, 255, 255)"></stop><stop offset="85.75091361999512%" stop-opacity="0" stop-color="rgb(255, 255, 255)"></stop></linearGradient></defs><path id="5193306_fill_path" d="M13.49328,128.45602l46.23697,-102.90875h-59.73025v-25.54728h92.29402v18.71068l-46.95661,109.74534z" fill-rule="nonzero" fill="url(#lcyplblirhal4z5udsm)"></path></g></g></g></g></g><g transform="matrix(1,0,0,1,47.3221,109.7244)"><g id="5193307" opacity="1" style="mix-blend-mode:normal"><g><g><path id="5193307_fill_path" d="M29.63346,7.91543c0,1.75898 -0.32981,3.23213 -0.98943,4.41945c-0.65962,1.18731 -1.6124,2.08146 -2.85835,2.68245c-1.23129,0.60099 -2.7191,0.90148 -4.46342,0.90148h-4.39746v-15.69893h4.85919c1.59774,0 2.98294,0.29316 4.1556,0.87949c1.17266,0.58633 2.08146,1.45116 2.72642,2.5945c0.64496,1.12868 0.96744,2.53587 0.96744,4.22156zM27.14889,7.98139c0,-1.31924 -0.21254,-2.40394 -0.63763,-3.25412c-0.42509,-0.85018 -1.05539,-1.48048 -1.89091,-1.89091c-0.82086,-0.41043 -1.81762,-0.61564 -2.99027,-0.61564h-2.33065v11.69724h1.9129c1.97886,0 3.45933,-0.49838 4.44143,-1.49513c0.99676,-0.99676 1.49513,-2.47724 1.49513,-4.44143zM39.42657,15.9188h-6.09048v-1.36321l1.86892,-0.54968v-11.85115l-1.86892,-0.57167v-1.36321h6.09048v1.36321l-1.84694,0.57167v11.85115l1.84694,0.54968zM53.68567,15.9188l-1.67103,-4.52938h-6.0685l-1.67103,4.52938h-2.46258l5.95856,-15.76489h2.46258l5.93657,15.76489zM49.77193,4.90317c-0.04397,-0.16124 -0.12459,-0.4031 -0.24186,-0.72558c-0.10261,-0.33714 -0.20521,-0.67428 -0.30782,-1.01142c-0.10261,-0.3518 -0.18323,-0.63763 -0.24186,-0.8575c-0.07329,0.29316 -0.16124,0.61564 -0.26385,0.96744c-0.08795,0.33714 -0.1759,0.65229 -0.26385,0.94545c-0.08795,0.27851 -0.16124,0.50571 -0.21987,0.68161l-1.58309,4.41945h4.70528zM68.84144,11.67525c0,0.93812 -0.2272,1.73699 -0.6816,2.39661c-0.4544,0.65962 -1.1067,1.17266 -1.95687,1.53911c-0.85018,0.3518 -1.86159,0.5277 -3.03425,0.5277c-0.57167,0 -1.12135,-0.03665 -1.64905,-0.10994c-0.52769,-0.05863 -1.01875,-0.14658 -1.47315,-0.26385c-0.4544,-0.11727 -0.8575,-0.26385 -1.2093,-0.43975v-2.2427c0.58633,0.26385 1.27526,0.50571 2.0668,0.72558c0.79154,0.20521 1.59774,0.30782 2.4186,0.30782c0.70359,0 1.28992,-0.09528 1.75899,-0.28584c0.46906,-0.19056 0.82086,-0.4544 1.05539,-0.79154c0.23453,-0.33714 0.3518,-0.73291 0.3518,-1.18731c0,-0.48372 -0.12459,-0.88682 -0.37378,-1.2093c-0.23453,-0.33714 -0.60832,-0.64496 -1.12136,-0.92347c-0.49838,-0.29316 -1.17265,-0.60099 -2.02283,-0.92347c-0.58633,-0.21987 -1.12135,-0.46173 -1.60507,-0.72558c-0.46906,-0.27851 -0.88682,-0.60099 -1.25328,-0.96744c-0.3518,-0.36645 -0.62297,-0.79154 -0.81353,-1.27526c-0.19056,-0.48372 -0.28584,-1.04806 -0.28584,-1.69302c0,-0.86483 0.21255,-1.60507 0.63764,-2.22072c0.43975,-0.61564 1.04073,-1.08471 1.80296,-1.40719c0.76223,-0.33714 1.64905,-0.50571 2.66046,-0.50571c0.85018,0 1.63439,0.08795 2.35264,0.26385c0.73291,0.16124 1.42917,0.38844 2.08879,0.6816l-0.74757,1.95687c-0.60099,-0.24919 -1.2093,-0.4544 -1.82494,-0.61564c-0.61564,-0.16124 -1.2606,-0.24186 -1.93488,-0.24186c-0.58633,0 -1.07738,0.08795 -1.47315,0.26385c-0.39577,0.1759 -0.69626,0.41776 -0.90148,0.72558c-0.19056,0.30782 -0.28584,0.66695 -0.28584,1.07738c0,0.48372 0.10994,0.88682 0.32981,1.2093c0.21987,0.32248 0.57167,0.62297 1.05539,0.90148c0.48372,0.26385 1.12135,0.55701 1.91289,0.87949c0.87949,0.33714 1.62706,0.70359 2.24271,1.09937c0.6303,0.39577 1.10669,0.87216 1.42917,1.42917c0.32248,0.54235 0.48372,1.22396 0.48372,2.04482zM93.41378,7.91543c0,1.75898 -0.32981,3.23213 -0.98943,4.41945c-0.65962,1.18731 -1.61241,2.08146 -2.85835,2.68245c-1.23129,0.60099 -2.71909,0.90148 -4.46342,0.90148h-4.39746v-15.69893h4.8592c1.59774,0 2.98293,0.29316 4.15559,0.87949c1.17266,0.58633 2.08147,1.45116 2.72643,2.5945c0.64496,1.12868 0.96744,2.53587 0.96744,4.22156zM90.92922,7.98139c0,-1.31924 -0.21255,-2.40394 -0.63764,-3.25412c-0.42509,-0.85018 -1.05539,-1.48048 -1.8909,-1.89091c-0.82086,-0.41043 -1.81762,-0.61564 -2.99028,-0.61564h-2.33065v11.69724h1.9129c1.97886,0 3.45934,-0.49838 4.44143,-1.49513c0.99676,-0.99676 1.49513,-2.47724 1.49513,-4.44143zM107.20857,15.9188h-8.83889v-15.69893h8.83889v2.02283h-6.46426v4.48541h6.0685v2.00084h-6.0685v5.14503h6.46426zM6.66215,37.6398h6.2224v8.1353c-0.82086,0.27851 -1.67836,0.49838 -2.57251,0.65962c-0.87949,0.16124 -1.88358,0.24186 -3.01226,0.24186c-1.55377,0 -2.88034,-0.30782 -3.9797,-0.92347c-1.08471,-0.61564 -1.91289,-1.52445 -2.48456,-2.72642c-0.55701,-1.20197 -0.83552,-2.68245 -0.83552,-4.44143c0,-1.64172 0.31515,-3.06356 0.94545,-4.26554c0.64496,-1.20197 1.57576,-2.13277 2.79239,-2.79239c1.21663,-0.65962 2.70444,-0.98943 4.46342,-0.98943c0.83552,0 1.65638,0.08795 2.46258,0.26385c0.8062,0.1759 1.53911,0.41043 2.19873,0.70359l-1.09936,2.66046c-0.48372,-0.24919 -1.0334,-0.45441 -1.64905,-0.61565c-0.61564,-0.16124 -1.26061,-0.24186 -1.93488,-0.24186c-0.96744,0 -1.81029,0.21987 -2.52854,0.65962c-0.70359,0.43975 -1.25328,1.06272 -1.64905,1.86892c-0.38111,0.79154 -0.57167,1.72967 -0.57167,2.81437c0,1.02607 0.13925,1.93488 0.41776,2.72642c0.27851,0.79154 0.71825,1.41452 1.31924,1.86892c0.60099,0.43975 1.3852,0.65962 2.35264,0.65962c0.32248,0 0.60099,-0.00733 0.83552,-0.02198c0.24919,-0.02932 0.47639,-0.05864 0.68161,-0.08795c0.20521,-0.04397 0.4031,-0.08062 0.59366,-0.10994v-3.27611h-2.96828zM27.76188,46.45671l-1.14334,-3.73784h-5.7167l-1.14334,3.73784h-3.58393l5.5408,-15.76489h4.06765l5.56279,15.76489zM24.68365,36.27659c-0.07329,-0.24919 -0.16857,-0.56434 -0.28583,-0.94546c-0.11727,-0.38111 -0.23453,-0.76955 -0.3518,-1.16532c-0.11727,-0.39577 -0.21254,-0.74024 -0.28583,-1.0334c-0.07329,0.29316 -0.1759,0.65962 -0.30782,1.09937c-0.11727,0.42509 -0.23453,0.83552 -0.3518,1.23129c-0.10261,0.38111 -0.18323,0.65229 -0.24186,0.81353l-1.12135,3.64989h4.08964zM39.44658,30.75778c1.42184,0 2.5945,0.1759 3.51797,0.52769c0.92347,0.33714 1.6124,0.8575 2.06681,1.5611c0.4544,0.68893 0.6816,1.5611 0.6816,2.61649c0,0.71825 -0.13925,1.34855 -0.41776,1.89091c-0.26385,0.5277 -0.62297,0.9821 -1.07738,1.36321c-0.43975,0.36645 -0.91614,0.66695 -1.42918,0.90148l4.61733,6.83805h-3.69387l-3.73784,-6.02452h-1.78097v6.02452h-3.32008v-15.69893zM39.20472,33.4842h-1.01142v4.24355h1.07738c0.73291,0 1.32657,-0.08062 1.78097,-0.24186c0.4544,-0.16124 0.78421,-0.4031 0.98943,-0.72558c0.20521,-0.33714 0.30783,-0.74024 0.30783,-1.2093c0,-0.49838 -0.11727,-0.89415 -0.3518,-1.18731c-0.21987,-0.30782 -0.56434,-0.5277 -1.0334,-0.65962c-0.4544,-0.14658 -1.04073,-0.21987 -1.75898,-0.21987zM60.53582,46.45671l-1.14334,-3.73784h-5.7167l-1.14334,3.73784h-3.58393l5.5408,-15.76489h4.06765l5.56279,15.76489zM57.4576,36.27659c-0.07329,-0.24919 -0.16857,-0.56434 -0.28584,-0.94546c-0.11727,-0.38111 -0.23453,-0.76955 -0.35179,-1.16532c-0.11727,-0.39577 -0.21255,-0.74024 -0.28584,-1.0334c-0.07329,0.29316 -0.1759,0.65962 -0.30782,1.09937c-0.11727,0.42509 -0.23453,0.83552 -0.35179,1.23129c-0.10261,0.38111 -0.18323,0.65229 -0.24186,0.81353l-1.12135,3.64989h4.08964zM81.56512,46.45671h-4.22156l-6.83805,-11.87314h-0.08795c0.01466,0.36645 0.02932,0.74024 0.04397,1.12135c0.01466,0.36645 0.02932,0.74024 0.04397,1.12136c0.02932,0.36645 0.0513,0.74024 0.06596,1.12135c0.01466,0.36645 0.02932,0.74024 0.04397,1.12135v7.38773h-2.96828v-15.69893h4.19957l6.81605,11.7632h0.06596c-0.01466,-0.36645 -0.02931,-0.72558 -0.04397,-1.07738c-0.01466,-0.36645 -0.02932,-0.72558 -0.04398,-1.07738c0,-0.36645 -0.00733,-0.72558 -0.02198,-1.07738c-0.01466,-0.36645 -0.02932,-0.73291 -0.04398,-1.09937v-7.4317h2.99028zM93.11892,46.45671h-3.32008v-12.92853h-4.26553v-2.7704h11.85115v2.7704h-4.26553zM107.21501,46.45671h-7.14588v-1.89091l1.9129,-0.87949v-10.15813l-1.9129,-0.87949v-1.89091h7.14588v1.89091l-1.9129,0.87949v10.15813l1.9129,0.87949zM121.03781,46.45671l-1.14334,-3.73784h-5.7167l-1.14334,3.73784h-3.58393l5.5408,-15.76489h4.06764l5.56279,15.76489zM117.95959,36.27659c-0.07329,-0.24919 -0.16857,-0.56434 -0.28584,-0.94546c-0.11727,-0.38111 -0.23453,-0.76955 -0.3518,-1.16532c-0.11727,-0.39577 -0.21255,-0.74024 -0.28584,-1.0334c-0.07329,0.29316 -0.1759,0.65962 -0.30782,1.09937c-0.11727,0.42509 -0.23453,0.83552 -0.3518,1.23129c-0.10261,0.38111 -0.18322,0.65229 -0.24186,0.81353l-1.12135,3.64989h4.08964z" fill-rule="nonzero" fill="rgb(255, 255, 255)" fill-opacity="1" style="mix-blend-mode:NORMAL"></path></g></g></g></g></g></g></g></g><animateTransform href="#5193304" attributeName="transform" type="rotate" values="0 109 109;-360 109 109" dur="5s" repeatCount="indefinite" calcMode="spline" keyTimes="0;1" keySplines="0.5 0.35 0.15 1" additive="sum" fill="freeze"></animateTransform></svg>